<?xml version="1.0" encoding="UTF-8"?>
<!DOCTYPE svg PUBLIC "-//W3C//DTD SVG 1.1//EN" "http://www.w3.org/Graphics/SVG/1.1/DTD/svg11.dtd">
<!-- Creator: CorelDRAW 2018 (64 Bit) -->
<svg xmlns="http://www.w3.org/2000/svg" xml:space="preserve" width="450px" height="700px" version="1.1" style="shape-rendering:geometricPrecision; text-rendering:geometricPrecision; image-rendering:optimizeQuality; fill-rule:evenodd; clip-rule:evenodd"
viewBox="0 0 105.17 163.6"
 xmlns:xlink="http://www.w3.org/1999/xlink">
 <defs>
  <style type="text/css">
   <![CDATA[
    .fil0 {fill:none}
    .fil1 {fill:#DAEBDE}
    .fil2 {fill:black;fill-rule:nonzero}
    .fil3 {fill:black;fill-rule:nonzero}
   ]]>
  </style>
 </defs>
 <g id="Camada_x0020_1">
  <metadata id="CorelCorpID_0Corel-Layer"/>
  <rect class="fil0" width="105.17" height="163.6"/>
  <rect class="fil1" x="36.39" y="41.68" width="39.44" height="45.45" rx="3.51" ry="1.86"/>
  <polygon class="fil2" points="18.9,28.83 18.9,36.33 17.51,36.33 17.51,33.11 13.63,33.11 13.63,36.33 12.24,36.33 12.24,28.83 13.63,28.83 13.63,31.92 17.51,31.92 17.51,28.83 "/>
  <path class="fil2" d="M22.83 36.07c0.5,0.06 0.89,0.23 1.15,0.51 0.27,0.28 0.4,0.63 0.4,1.05 0,0.32 -0.08,0.61 -0.24,0.87 -0.16,0.26 -0.41,0.47 -0.73,0.62 -0.33,0.15 -0.72,0.23 -1.19,0.23 -0.39,0 -0.76,-0.06 -1.13,-0.17 -0.36,-0.11 -0.66,-0.27 -0.92,-0.46l0.44 -0.79c0.19,0.17 0.44,0.3 0.72,0.39 0.28,0.1 0.57,0.15 0.87,0.15 0.36,0 0.64,-0.08 0.85,-0.22 0.2,-0.15 0.31,-0.35 0.31,-0.61 0,-0.25 -0.1,-0.45 -0.29,-0.59 -0.2,-0.15 -0.5,-0.22 -0.9,-0.22l-0.5 0 0 -0.69 1.24 -1.47 -2.47 0 0 -0.85 3.71 0 0 0.67 -1.32 1.58z"/>
  <path class="fil2" d="M67.89 56.67l0 0.86 -4.02 0 0 -0.68 2.17 -2.06c0.24,-0.23 0.41,-0.43 0.5,-0.61 0.08,-0.17 0.12,-0.34 0.12,-0.52 0,-0.25 -0.08,-0.44 -0.25,-0.58 -0.17,-0.13 -0.43,-0.2 -0.76,-0.2 -0.56,0 -0.98,0.19 -1.28,0.57l-0.71 -0.55c0.22,-0.28 0.5,-0.51 0.86,-0.66 0.37,-0.16 0.77,-0.24 1.22,-0.24 0.59,0 1.06,0.14 1.41,0.42 0.36,0.28 0.53,0.66 0.53,1.14 0,0.3 -0.06,0.58 -0.18,0.84 -0.13,0.26 -0.37,0.55 -0.72,0.89l-1.46 1.38 2.57 0z"/>
  <polygon class="fil2" points="32.44,28.83 32.44,36.33 31.29,36.33 27.16,31.25 27.16,36.33 25.78,36.33 25.78,28.83 26.92,28.83 31.06,33.91 31.06,28.83 "/>
  <path class="fil2" d="M51.19 36.43c-0.76,0 -1.44,-0.16 -2.05,-0.49 -0.62,-0.34 -1.09,-0.8 -1.44,-1.38 -0.35,-0.59 -0.52,-1.25 -0.52,-1.98 0,-0.74 0.18,-1.4 0.53,-1.98 0.35,-0.59 0.83,-1.05 1.44,-1.38 0.61,-0.33 1.29,-0.5 2.05,-0.5 0.61,0 1.17,0.11 1.68,0.32 0.51,0.22 0.93,0.53 1.28,0.93l-0.9 0.85c-0.54,-0.59 -1.21,-0.88 -2,-0.88 -0.51,0 -0.97,0.11 -1.38,0.34 -0.41,0.22 -0.73,0.54 -0.95,0.94 -0.23,0.4 -0.35,0.85 -0.35,1.36 0,0.5 0.12,0.96 0.35,1.36 0.22,0.4 0.54,0.71 0.95,0.94 0.41,0.22 0.87,0.33 1.38,0.33 0.79,0 1.46,-0.29 2,-0.89l0.9 0.86c-0.35,0.41 -0.78,0.72 -1.29,0.93 -0.51,0.22 -1.07,0.32 -1.68,0.32z"/>
  <path class="fil2" d="M69.82 36.43c-0.76,0 -1.44,-0.16 -2.05,-0.49 -0.61,-0.34 -1.09,-0.8 -1.44,-1.38 -0.34,-0.59 -0.52,-1.25 -0.52,-1.98 0,-0.74 0.18,-1.4 0.53,-1.98 0.35,-0.59 0.83,-1.05 1.44,-1.38 0.61,-0.33 1.29,-0.5 2.05,-0.5 0.62,0 1.18,0.11 1.68,0.32 0.51,0.22 0.94,0.53 1.29,0.93l-0.9 0.85c-0.54,-0.59 -1.21,-0.88 -2,-0.88 -0.52,0 -0.98,0.11 -1.39,0.34 -0.4,0.22 -0.72,0.54 -0.95,0.94 -0.23,0.4 -0.34,0.85 -0.34,1.36 0,0.5 0.11,0.96 0.34,1.36 0.23,0.4 0.55,0.71 0.95,0.94 0.41,0.22 0.87,0.33 1.39,0.33 0.79,0 1.46,-0.29 2,-0.89l0.9 0.86c-0.35,0.41 -0.78,0.72 -1.29,0.93 -0.51,0.22 -1.07,0.32 -1.69,0.32z"/>
  <path class="fil2" d="M85.8 27.37c-0.76,0 -1.45,-0.17 -2.07,-0.5 -0.61,-0.34 -1.09,-0.8 -1.44,-1.38 -0.35,-0.59 -0.53,-1.25 -0.53,-1.98 0,-0.73 0.18,-1.39 0.53,-1.98 0.35,-0.59 0.83,-1.05 1.44,-1.38 0.62,-0.33 1.31,-0.5 2.07,-0.5 0.76,0 1.45,0.17 2.07,0.5 0.61,0.33 1.09,0.79 1.44,1.38 0.35,0.58 0.53,1.24 0.53,1.98 0,0.73 -0.18,1.39 -0.53,1.98 -0.35,0.59 -0.83,1.04 -1.44,1.38 -0.62,0.33 -1.31,0.5 -2.07,0.5zm0 -1.23c0.5,0 0.95,-0.11 1.35,-0.33 0.4,-0.23 0.71,-0.54 0.94,-0.95 0.23,-0.4 0.35,-0.85 0.35,-1.35 0,-0.5 -0.12,-0.95 -0.35,-1.36 -0.23,-0.4 -0.54,-0.71 -0.94,-0.94 -0.4,-0.22 -0.85,-0.34 -1.35,-0.34 -0.5,0 -0.95,0.12 -1.35,0.34 -0.4,0.23 -0.71,0.54 -0.94,0.94 -0.23,0.41 -0.35,0.86 -0.35,1.36 0,0.5 0.12,0.95 0.35,1.35 0.23,0.41 0.54,0.72 0.94,0.95 0.4,0.22 0.85,0.33 1.35,0.33z"/>
  <path class="fil2" d="M85.8 45.5c-0.76,0 -1.45,-0.16 -2.07,-0.5 -0.61,-0.33 -1.09,-0.79 -1.44,-1.38 -0.35,-0.59 -0.53,-1.25 -0.53,-1.97 0,-0.73 0.18,-1.39 0.53,-1.98 0.35,-0.59 0.83,-1.05 1.44,-1.38 0.62,-0.33 1.31,-0.5 2.07,-0.5 0.76,0 1.45,0.17 2.07,0.5 0.61,0.33 1.09,0.79 1.44,1.37 0.35,0.59 0.53,1.25 0.53,1.99 0,0.73 -0.18,1.39 -0.53,1.98 -0.35,0.58 -0.83,1.04 -1.44,1.37 -0.62,0.34 -1.31,0.5 -2.07,0.5zm0 -1.22c0.5,0 0.95,-0.11 1.35,-0.34 0.4,-0.22 0.71,-0.54 0.94,-0.94 0.23,-0.4 0.35,-0.85 0.35,-1.35 0,-0.5 -0.12,-0.96 -0.35,-1.36 -0.23,-0.4 -0.54,-0.72 -0.94,-0.94 -0.4,-0.23 -0.85,-0.34 -1.35,-0.34 -0.5,0 -0.95,0.11 -1.35,0.34 -0.4,0.22 -0.71,0.54 -0.94,0.94 -0.23,0.4 -0.35,0.86 -0.35,1.36 0,0.5 0.12,0.95 0.35,1.35 0.23,0.4 0.54,0.72 0.94,0.94 0.4,0.23 0.85,0.34 1.35,0.34z"/>
  <path class="fil2" d="M51.19 54.69c-0.76,0 -1.44,-0.16 -2.05,-0.5 -0.62,-0.33 -1.09,-0.79 -1.44,-1.37 -0.35,-0.59 -0.52,-1.25 -0.52,-1.98 0,-0.74 0.18,-1.4 0.53,-1.99 0.35,-0.58 0.83,-1.04 1.44,-1.37 0.61,-0.33 1.29,-0.5 2.05,-0.5 0.61,0 1.17,0.11 1.68,0.32 0.51,0.22 0.93,0.53 1.28,0.93l-0.9 0.85c-0.54,-0.59 -1.21,-0.88 -2,-0.88 -0.51,0 -0.97,0.11 -1.38,0.34 -0.41,0.22 -0.73,0.54 -0.95,0.94 -0.23,0.4 -0.35,0.85 -0.35,1.36 0,0.5 0.12,0.96 0.35,1.36 0.22,0.4 0.54,0.71 0.95,0.93 0.41,0.23 0.87,0.34 1.38,0.34 0.79,0 1.46,-0.3 2,-0.89l0.9 0.86c-0.35,0.41 -0.78,0.72 -1.29,0.93 -0.51,0.22 -1.07,0.32 -1.68,0.32z"/>
  <polygon id="1" class="fil2" points="62.17,47.09 62.17,54.59 60.77,54.59 60.77,51.37 56.9,51.37 56.9,54.59 55.5,54.59 55.5,47.09 56.9,47.09 56.9,50.18 60.77,50.18 60.77,47.09 "/>
  <polygon class="fil2" points="54.38,10.55 54.38,18.05 52.99,18.05 52.99,14.83 49.11,14.83 49.11,18.05 47.72,18.05 47.72,10.55 49.11,10.55 49.11,13.64 52.99,13.64 52.99,10.55 "/>
  <polygon class="fil2" points="37.71,29.68 36.16,29.68 36.16,31.21 35.22,31.21 35.22,29.68 33.67,29.68 33.67,28.8 35.22,28.8 35.22,27.27 36.16,27.27 36.16,28.8 37.71,28.8 "/>
  <polygon class="fil2" points="90.38,37.59 92.79,37.59 92.79,38.5 90.38,38.5 "/>
  <polygon class="fil2" points="50.88,38.75 50.88,44.6 50.33,44.6 50.33,38.75 "/>
  <polygon class="fil2" points="38.31,32.3 44.15,32.3 44.15,32.85 38.31,32.85 "/>
  <polygon class="fil2" points="56.94,32.3 62.79,32.3 62.79,32.85 56.94,32.85 "/>
  <polygon class="fil2" points="74.38,28.4 79.44,25.48 79.72,25.96 74.66,28.88 "/>
  <polygon class="fil2" points="75.07,29.6 80.13,26.67 80.4,27.15 75.34,30.07 "/>
  <polygon class="fil2" points="75.34,36.27 80.4,39.2 80.13,39.67 75.07,36.75 "/>
  <polygon class="fil2" points="50.88,57.01 50.88,62.85 50.33,62.85 50.33,57.01 "/>
  <polygon class="fil2" points="50.88,20.48 50.88,26.32 50.33,26.32 50.33,20.48 "/>
  <polygon class="fil2" points="50.88,57.01 50.88,62.85 50.33,62.85 50.33,57.01 "/>
  <polygon class="fil2" points="57.29,67.85 57.29,75.8 56.74,76.12 56.74,67.54 "/>
  <polygon class="fil2" points="50.58,64.15 43.7,68.12 43.7,68.76 51.13,64.47 "/>
  <polygon class="fil2" points="50.64,79.66 43.76,75.69 43.76,75.05 51.19,79.34 "/>
  <path class="fil3" d="M50.47 62.61c-2.65,1.53 -5.29,3.06 -7.94,4.59l0 9.32 8.07 4.66 8.08 -4.66 0 -9.32c-2.7,-1.55 -5.39,-3.11 -8.08,-4.67l-0.13 0.08zm-3.63 2.73l3.76 -2.17 7.53 4.34 0 8.69 -7.53 4.35 -7.52 -4.35 0 -8.69 3.76 -2.17z"/>
 </g>
</svg>
