<?xml version="1.0" encoding="UTF-8"?>
<!DOCTYPE svg PUBLIC "-//W3C//DTD SVG 1.1//EN" "http://www.w3.org/Graphics/SVG/1.1/DTD/svg11.dtd">
<!-- Creator: CorelDRAW 2018 (64 Bit) -->
<svg xmlns="http://www.w3.org/2000/svg" xml:space="preserve" width="164px" height="111px" version="1.1" style="shape-rendering:geometricPrecision; text-rendering:geometricPrecision; image-rendering:optimizeQuality; fill-rule:evenodd; clip-rule:evenodd"
viewBox="0 0 164 110.97"
 xmlns:xlink="http://www.w3.org/1999/xlink">
 <defs>
  <style type="text/css">
   <![CDATA[
    .fil0 {fill:none}
    .fil1 {fill:#DAEBDE}
    .fil2 {fill:black;fill-rule:nonzero}
   ]]>
  </style>
 </defs>
 <g id="Camada_x0020_1">
  <metadata id="CorelCorpID_0Corel-Layer"/>
  <rect class="fil0" width="164" height="110.97"/>
  <rect class="fil1" x="57.8" y="64.99" width="43.64" height="29.76" rx="3.88" ry="1.22"/>
  <polygon class="fil2" points="29.47,44.95 29.47,56.65 27.3,56.65 27.3,51.63 21.25,51.63 21.25,56.65 19.08,56.65 19.08,44.95 21.25,44.95 21.25,49.78 27.3,49.78 27.3,44.95 "/>
  <path class="fil2" d="M35.6 56.24c0.78,0.1 1.38,0.37 1.79,0.8 0.42,0.44 0.62,0.99 0.62,1.64 0,0.5 -0.12,0.95 -0.37,1.35 -0.25,0.41 -0.63,0.73 -1.14,0.97 -0.51,0.24 -1.12,0.36 -1.85,0.36 -0.61,0 -1.19,-0.09 -1.76,-0.26 -0.56,-0.18 -1.04,-0.42 -1.44,-0.73l0.68 -1.22c0.31,0.26 0.69,0.46 1.13,0.61 0.44,0.15 0.89,0.22 1.36,0.22 0.56,0 1,-0.11 1.32,-0.34 0.32,-0.23 0.48,-0.55 0.48,-0.94 0,-0.4 -0.15,-0.71 -0.45,-0.93 -0.31,-0.23 -0.77,-0.34 -1.39,-0.34l-0.78 0 0 -1.08 1.93 -2.29 -3.86 0 0 -1.33 5.79 0 0 1.06 -2.06 2.45z"/>
  <polygon class="fil2" points="50.58,44.95 50.58,56.65 48.8,56.65 42.35,48.73 42.35,56.65 40.19,56.65 40.19,44.95 41.98,44.95 48.43,52.87 48.43,44.95 "/>
  <path class="fil2" d="M79.82 56.81c-1.18,0 -2.25,-0.26 -3.2,-0.77 -0.95,-0.52 -1.7,-1.24 -2.24,-2.15 -0.54,-0.91 -0.81,-1.94 -0.81,-3.09 0,-1.15 0.27,-2.18 0.82,-3.09 0.54,-0.91 1.29,-1.63 2.24,-2.15 0.96,-0.52 2.02,-0.77 3.2,-0.77 0.96,0 1.84,0.16 2.63,0.5 0.79,0.33 1.45,0.82 2,1.45l-1.4 1.32c-0.85,-0.91 -1.89,-1.37 -3.13,-1.37 -0.8,0 -1.52,0.18 -2.15,0.53 -0.64,0.35 -1.13,0.83 -1.49,1.46 -0.35,0.62 -0.53,1.33 -0.53,2.12 0,0.79 0.18,1.5 0.53,2.12 0.36,0.62 0.85,1.11 1.49,1.46 0.63,0.35 1.35,0.53 2.15,0.53 1.24,0 2.28,-0.46 3.13,-1.39l1.4 1.34c-0.55,0.63 -1.22,1.12 -2.01,1.45 -0.8,0.34 -1.68,0.5 -2.63,0.5z"/>
  <path class="fil2" d="M108.87 56.81c-1.18,0 -2.24,-0.26 -3.19,-0.77 -0.96,-0.52 -1.7,-1.24 -2.24,-2.15 -0.54,-0.91 -0.81,-1.94 -0.81,-3.09 0,-1.15 0.27,-2.18 0.82,-3.09 0.54,-0.91 1.29,-1.63 2.24,-2.15 0.95,-0.52 2.02,-0.77 3.2,-0.77 0.96,0 1.83,0.16 2.62,0.5 0.79,0.33 1.46,0.82 2.01,1.45l-1.41 1.32c-0.84,-0.91 -1.88,-1.37 -3.12,-1.37 -0.8,0 -1.52,0.18 -2.15,0.53 -0.64,0.35 -1.13,0.83 -1.49,1.46 -0.36,0.62 -0.53,1.33 -0.53,2.12 0,0.79 0.17,1.5 0.53,2.12 0.36,0.62 0.85,1.11 1.49,1.46 0.63,0.35 1.35,0.53 2.15,0.53 1.24,0 2.28,-0.46 3.12,-1.39l1.41 1.34c-0.55,0.63 -1.22,1.12 -2.01,1.45 -0.8,0.34 -1.68,0.5 -2.64,0.5z"/>
  <path class="fil2" d="M133.79 42.67c-1.19,0 -2.27,-0.26 -3.22,-0.78 -0.96,-0.51 -1.71,-1.23 -2.26,-2.15 -0.54,-0.92 -0.82,-1.95 -0.82,-3.08 0,-1.14 0.28,-2.16 0.82,-3.08 0.55,-0.92 1.3,-1.64 2.26,-2.16 0.95,-0.52 2.03,-0.78 3.22,-0.78 1.19,0 2.27,0.26 3.22,0.78 0.96,0.52 1.71,1.23 2.26,2.15 0.54,0.91 0.82,1.94 0.82,3.09 0,1.15 -0.28,2.18 -0.82,3.09 -0.55,0.91 -1.3,1.63 -2.26,2.14 -0.95,0.52 -2.03,0.78 -3.22,0.78zm0 -1.9c0.78,0 1.48,-0.18 2.11,-0.53 0.62,-0.35 1.11,-0.84 1.47,-1.47 0.35,-0.63 0.53,-1.33 0.53,-2.11 0,-0.78 -0.18,-1.49 -0.53,-2.11 -0.36,-0.63 -0.85,-1.12 -1.47,-1.47 -0.63,-0.36 -1.33,-0.53 -2.11,-0.53 -0.78,0 -1.48,0.17 -2.1,0.53 -0.63,0.35 -1.12,0.84 -1.47,1.47 -0.36,0.62 -0.54,1.33 -0.54,2.11 0,0.78 0.18,1.48 0.54,2.11 0.35,0.63 0.84,1.12 1.47,1.47 0.62,0.35 1.32,0.53 2.1,0.53z"/>
  <path class="fil2" d="M133.79 70.95c-1.19,0 -2.27,-0.25 -3.22,-0.77 -0.96,-0.52 -1.71,-1.24 -2.26,-2.16 -0.54,-0.92 -0.82,-1.94 -0.82,-3.08 0,-1.14 0.28,-2.16 0.82,-3.08 0.55,-0.92 1.3,-1.64 2.26,-2.16 0.95,-0.51 2.03,-0.77 3.22,-0.77 1.19,0 2.27,0.26 3.22,0.77 0.96,0.52 1.71,1.24 2.26,2.15 0.54,0.91 0.82,1.94 0.82,3.09 0,1.15 -0.28,2.18 -0.82,3.09 -0.55,0.91 -1.3,1.63 -2.26,2.15 -0.95,0.52 -2.03,0.77 -3.22,0.77zm0 -1.9c0.78,0 1.48,-0.18 2.11,-0.53 0.62,-0.35 1.11,-0.84 1.47,-1.47 0.35,-0.63 0.53,-1.33 0.53,-2.11 0,-0.78 -0.18,-1.48 -0.53,-2.11 -0.36,-0.63 -0.85,-1.12 -1.47,-1.47 -0.63,-0.35 -1.33,-0.53 -2.11,-0.53 -0.78,0 -1.48,0.18 -2.1,0.53 -0.63,0.35 -1.12,0.84 -1.47,1.47 -0.36,0.63 -0.54,1.33 -0.54,2.11 0,0.78 0.18,1.48 0.54,2.11 0.35,0.63 0.84,1.12 1.47,1.47 0.62,0.35 1.32,0.53 2.1,0.53z"/>
  <polygon class="fil2" points="84.79,73.42 84.79,85.12 82.62,85.12 82.62,80.11 76.58,80.11 76.58,85.12 74.4,85.12 74.4,73.42 76.58,73.42 76.58,78.25 82.62,78.25 82.62,73.42 "/>
  <polygon class="fil2" points="84.79,16.45 84.79,28.14 82.62,28.14 82.62,23.13 76.58,23.13 76.58,28.14 74.4,28.14 74.4,16.45 76.58,16.45 76.58,21.28 82.62,21.28 82.62,16.45 "/>
  <polygon class="fil2" points="58.8,46.28 56.39,46.28 56.39,48.67 54.92,48.67 54.92,46.28 52.5,46.28 52.5,44.91 54.92,44.91 54.92,42.52 56.39,42.52 56.39,44.91 58.8,44.91 "/>
  <polygon class="fil2" points="140.94,58.61 144.69,58.61 144.69,60.03 140.94,60.03 "/>
  <polygon class="fil2" points="79.34,60.43 79.34,69.54 78.48,69.54 78.48,60.43 "/>
  <polygon class="fil2" points="59.73,50.37 68.85,50.37 68.85,51.23 59.73,51.23 "/>
  <polygon class="fil2" points="88.79,50.37 97.9,50.37 97.9,51.23 88.79,51.23 "/>
  <polygon class="fil2" points="115.99,44.29 123.88,39.74 124.31,40.48 116.41,45.04 "/>
  <polygon class="fil2" points="117.06,46.15 124.95,41.59 125.38,42.34 117.49,46.89 "/>
  <polygon class="fil2" points="117.49,56.56 125.38,61.12 124.95,61.86 117.06,57.31 "/>
  <polygon class="fil2" points="79.34,31.93 79.34,41.05 78.48,41.05 78.48,31.93 "/>
 </g>
</svg>
