<?xml version="1.0" encoding="UTF-8"?>
<!DOCTYPE svg PUBLIC "-//W3C//DTD SVG 1.1//EN" "http://www.w3.org/Graphics/SVG/1.1/DTD/svg11.dtd">
<!-- Creator: CorelDRAW 2018 (64 Bit) -->
<svg xmlns="http://www.w3.org/2000/svg" xml:space="preserve" width="450px" height="700px" version="1.1" style="shape-rendering:geometricPrecision; text-rendering:geometricPrecision; image-rendering:optimizeQuality; fill-rule:evenodd; clip-rule:evenodd"
viewBox="0 0 69.61 108.28"
 xmlns:xlink="http://www.w3.org/1999/xlink">
 <defs>
  <style type="text/css">
   <![CDATA[
    .fil0 {fill:none}
    .fil1 {fill:#DAEBDE}
    .fil2 {fill:black;fill-rule:nonzero}
   ]]>
  </style>
 </defs>
 <g id="Camada_x0020_1">
  <metadata id="CorelCorpID_0Corel-Layer"/>
  <rect class="fil0" width="69.61" height="108.28"/>
  <rect class="fil1" x="24.53" y="27.58" width="18.52" height="12.63" rx="1.65" ry="0.52"/>
  <polygon class="fil2" points="12.51,19.08 12.51,24.04 11.59,24.04 11.59,21.92 9.02,21.92 9.02,24.04 8.1,24.04 8.1,19.08 9.02,19.08 9.02,21.13 11.59,21.13 11.59,19.08 "/>
  <path class="fil2" d="M15.11 23.87c0.33,0.04 0.59,0.16 0.76,0.34 0.18,0.19 0.27,0.42 0.27,0.7 0,0.21 -0.06,0.4 -0.16,0.57 -0.11,0.17 -0.27,0.31 -0.49,0.41 -0.21,0.1 -0.47,0.15 -0.78,0.15 -0.26,0 -0.51,-0.03 -0.75,-0.11 -0.24,-0.07 -0.44,-0.17 -0.61,-0.3l0.29 -0.52c0.13,0.11 0.29,0.19 0.48,0.26 0.18,0.06 0.38,0.09 0.58,0.09 0.23,0 0.42,-0.05 0.56,-0.15 0.13,-0.09 0.2,-0.23 0.2,-0.4 0,-0.16 -0.06,-0.3 -0.19,-0.39 -0.13,-0.09 -0.33,-0.14 -0.59,-0.14l-0.33 0 0 -0.46 0.82 -0.98 -1.64 0 0 -0.56 2.46 0 0 0.45 -0.88 1.04z"/>
  <polygon class="fil2" points="21.47,19.08 21.47,24.04 20.71,24.04 17.98,20.68 17.98,24.04 17.06,24.04 17.06,19.08 17.82,19.08 20.56,22.44 20.56,19.08 "/>
  <path class="fil2" d="M33.88 24.11c-0.5,0 -0.95,-0.11 -1.36,-0.33 -0.4,-0.21 -0.72,-0.52 -0.95,-0.91 -0.23,-0.38 -0.34,-0.82 -0.34,-1.31 0,-0.48 0.11,-0.92 0.34,-1.31 0.24,-0.39 0.55,-0.69 0.96,-0.91 0.4,-0.22 0.85,-0.33 1.36,-0.33 0.4,0 0.77,0.07 1.11,0.21 0.33,0.14 0.62,0.35 0.85,0.62l-0.6 0.56c-0.35,-0.39 -0.8,-0.58 -1.32,-0.58 -0.34,0 -0.65,0.07 -0.92,0.22 -0.27,0.15 -0.48,0.36 -0.63,0.62 -0.15,0.27 -0.22,0.57 -0.22,0.9 0,0.34 0.07,0.64 0.22,0.9 0.15,0.27 0.36,0.47 0.63,0.62 0.27,0.15 0.58,0.23 0.92,0.23 0.52,0 0.97,-0.2 1.32,-0.59l0.6 0.57c-0.23,0.26 -0.52,0.47 -0.85,0.61 -0.34,0.14 -0.71,0.21 -1.12,0.21z"/>
  <path class="fil2" d="M46.21 24.11c-0.5,0 -0.95,-0.11 -1.35,-0.33 -0.41,-0.21 -0.73,-0.52 -0.95,-0.91 -0.23,-0.38 -0.35,-0.82 -0.35,-1.31 0,-0.48 0.12,-0.92 0.35,-1.31 0.23,-0.39 0.55,-0.69 0.95,-0.91 0.41,-0.22 0.86,-0.33 1.36,-0.33 0.41,0 0.78,0.07 1.11,0.21 0.34,0.14 0.62,0.35 0.85,0.62l-0.59 0.56c-0.36,-0.39 -0.8,-0.58 -1.33,-0.58 -0.34,0 -0.64,0.07 -0.91,0.22 -0.27,0.15 -0.48,0.36 -0.63,0.62 -0.15,0.27 -0.23,0.57 -0.23,0.9 0,0.34 0.08,0.64 0.23,0.9 0.15,0.27 0.36,0.47 0.63,0.62 0.27,0.15 0.57,0.23 0.91,0.23 0.53,0 0.97,-0.2 1.33,-0.59l0.59 0.57c-0.23,0.26 -0.51,0.47 -0.85,0.61 -0.34,0.14 -0.71,0.21 -1.12,0.21z"/>
  <path class="fil2" d="M56.79 18.11c-0.51,0 -0.96,-0.11 -1.37,-0.33 -0.41,-0.22 -0.73,-0.52 -0.96,-0.91 -0.23,-0.39 -0.34,-0.83 -0.34,-1.31 0,-0.48 0.11,-0.92 0.34,-1.31 0.23,-0.39 0.55,-0.69 0.96,-0.91 0.41,-0.22 0.86,-0.33 1.37,-0.33 0.5,0 0.96,0.11 1.37,0.33 0.4,0.22 0.72,0.52 0.95,0.91 0.24,0.39 0.35,0.82 0.35,1.31 0,0.49 -0.11,0.92 -0.35,1.31 -0.23,0.39 -0.55,0.69 -0.95,0.91 -0.41,0.22 -0.87,0.33 -1.37,0.33zm0 -0.81c0.33,0 0.63,-0.07 0.89,-0.22 0.27,-0.15 0.47,-0.36 0.63,-0.62 0.15,-0.27 0.22,-0.57 0.22,-0.9 0,-0.33 -0.07,-0.63 -0.22,-0.9 -0.16,-0.26 -0.36,-0.47 -0.63,-0.62 -0.26,-0.15 -0.56,-0.22 -0.89,-0.22 -0.33,0 -0.63,0.07 -0.89,0.22 -0.27,0.15 -0.48,0.36 -0.63,0.62 -0.15,0.27 -0.23,0.57 -0.23,0.9 0,0.33 0.08,0.63 0.23,0.9 0.15,0.26 0.36,0.47 0.63,0.62 0.26,0.15 0.56,0.22 0.89,0.22z"/>
  <path class="fil2" d="M56.79 30.12c-0.51,0 -0.96,-0.11 -1.37,-0.33 -0.41,-0.22 -0.73,-0.53 -0.96,-0.92 -0.23,-0.39 -0.34,-0.82 -0.34,-1.31 0,-0.48 0.11,-0.91 0.34,-1.3 0.23,-0.39 0.55,-0.7 0.96,-0.92 0.41,-0.22 0.86,-0.33 1.37,-0.33 0.5,0 0.96,0.11 1.37,0.33 0.4,0.22 0.72,0.53 0.95,0.91 0.24,0.39 0.35,0.83 0.35,1.31 0,0.49 -0.11,0.93 -0.35,1.32 -0.23,0.38 -0.55,0.69 -0.95,0.91 -0.41,0.22 -0.87,0.33 -1.37,0.33zm0 -0.81c0.33,0 0.63,-0.08 0.89,-0.22 0.27,-0.15 0.47,-0.36 0.63,-0.63 0.15,-0.27 0.22,-0.56 0.22,-0.9 0,-0.33 -0.07,-0.63 -0.22,-0.89 -0.16,-0.27 -0.36,-0.48 -0.63,-0.63 -0.26,-0.15 -0.56,-0.22 -0.89,-0.22 -0.33,0 -0.63,0.07 -0.89,0.22 -0.27,0.15 -0.48,0.36 -0.63,0.63 -0.15,0.26 -0.23,0.56 -0.23,0.89 0,0.34 0.08,0.63 0.23,0.9 0.15,0.27 0.36,0.48 0.63,0.63 0.26,0.14 0.56,0.22 0.89,0.22z"/>
  <polygon class="fil2" points="35.99,31.17 35.99,36.13 35.07,36.13 35.07,34 32.5,34 32.5,36.13 31.58,36.13 31.58,31.17 32.5,31.17 32.5,33.21 35.07,33.21 35.07,31.17 "/>
  <polygon class="fil2" points="35.99,6.98 35.99,11.95 35.07,11.95 35.07,9.82 32.5,9.82 32.5,11.95 31.58,11.95 31.58,6.98 32.5,6.98 32.5,9.03 35.07,9.03 35.07,6.98 "/>
  <polygon class="fil2" points="24.96,19.64 23.93,19.64 23.93,20.66 23.31,20.66 23.31,19.64 22.29,19.64 22.29,19.06 23.31,19.06 23.31,18.05 23.93,18.05 23.93,19.06 24.96,19.06 "/>
  <polygon class="fil2" points="59.82,24.88 61.42,24.88 61.42,25.48 59.82,25.48 "/>
  <polygon class="fil2" points="33.68,25.65 33.68,29.52 33.31,29.52 33.31,25.65 "/>
  <polygon class="fil2" points="25.35,21.38 29.22,21.38 29.22,21.74 25.35,21.74 "/>
  <polygon class="fil2" points="37.69,21.38 41.56,21.38 41.56,21.74 37.69,21.74 "/>
  <polygon class="fil2" points="49.23,18.8 52.58,16.87 52.76,17.18 49.41,19.12 "/>
  <polygon class="fil2" points="49.69,19.59 53.04,17.65 53.22,17.97 49.87,19.9 "/>
  <polygon class="fil2" points="49.87,24.01 53.22,25.94 53.04,26.26 49.69,24.32 "/>
  <polygon class="fil2" points="33.68,13.55 33.68,17.42 33.31,17.42 33.31,13.55 "/>
 </g>
</svg>
