<?xml version="1.0" encoding="UTF-8"?>
<!DOCTYPE svg PUBLIC "-//W3C//DTD SVG 1.1//EN" "http://www.w3.org/Graphics/SVG/1.1/DTD/svg11.dtd">
<!-- Creator: CorelDRAW 2018 (64 Bit) -->
<svg xmlns="http://www.w3.org/2000/svg" xml:space="preserve" width="450px" height="700px" version="1.1" style="shape-rendering:geometricPrecision; text-rendering:geometricPrecision; image-rendering:optimizeQuality; fill-rule:evenodd; clip-rule:evenodd"
viewBox="0 0 100.8 156.79"
 xmlns:xlink="http://www.w3.org/1999/xlink">
 <defs>
  <style type="text/css">
   <![CDATA[
    .fil0 {fill:none}
    .fil1 {fill:#DAEBF6}
    .fil2 {fill:black;fill-rule:nonzero}
    .fil3 {fill:black;fill-rule:nonzero}
   ]]>
  </style>
 </defs>
 <g id="Camada_x0020_1">
  <metadata id="CorelCorpID_0Corel-Layer"/>
  <rect class="fil0" width="100.8" height="156.79"/>
  <path class="fil1" d="M78.14 45.62l0.01 0.01c0.55,0.64 0.89,1.48 0.89,2.38l0 40.98c0,2.01 -1.65,3.66 -3.66,3.66l-11.33 0 -9.62 0 -11.93 0c-1.85,0 -3.36,-1.51 -3.36,-3.36l0 -45.99c0,-1.85 1.51,-3.36 3.36,-3.36l24.68 0c0.56,0 1.09,0.14 1.55,0.38l9.41 5.3z"/>
  <polygon class="fil2" points="18.11,27.63 18.11,34.81 16.78,34.81 16.78,31.73 13.06,31.73 13.06,34.81 11.73,34.81 11.73,27.63 13.06,27.63 13.06,30.6 16.78,30.6 16.78,27.63 "/>
  <path class="fil2" d="M21.88 34.57c0.48,0.06 0.85,0.22 1.1,0.49 0.26,0.27 0.38,0.6 0.38,1.01 0,0.3 -0.07,0.58 -0.23,0.83 -0.15,0.25 -0.39,0.44 -0.7,0.59 -0.31,0.15 -0.69,0.22 -1.13,0.22 -0.38,0 -0.74,-0.05 -1.08,-0.16 -0.35,-0.11 -0.64,-0.25 -0.89,-0.44l0.42 -0.76c0.19,0.16 0.42,0.29 0.69,0.38 0.27,0.09 0.55,0.14 0.84,0.14 0.34,0 0.61,-0.07 0.81,-0.22 0.2,-0.14 0.3,-0.33 0.3,-0.57 0,-0.25 -0.1,-0.44 -0.28,-0.58 -0.19,-0.13 -0.48,-0.2 -0.86,-0.2l-0.48 0 0 -0.67 1.19 -1.41 -2.37 0 0 -0.81 3.56 0 0 0.65 -1.27 1.51z"/>
  <path class="fil2" d="M65.07 54.31l0 0.82 -3.85 0 0 -0.64 2.07 -1.98c0.24,-0.22 0.39,-0.42 0.48,-0.58 0.08,-0.17 0.12,-0.33 0.12,-0.5 0,-0.24 -0.08,-0.43 -0.25,-0.56 -0.16,-0.13 -0.4,-0.19 -0.72,-0.19 -0.53,0 -0.94,0.18 -1.23,0.54l-0.68 -0.52c0.21,-0.27 0.48,-0.49 0.83,-0.64 0.35,-0.15 0.73,-0.23 1.16,-0.23 0.57,0 1.02,0.14 1.36,0.41 0.34,0.27 0.51,0.63 0.51,1.09 0,0.29 -0.06,0.55 -0.18,0.8 -0.12,0.25 -0.35,0.54 -0.69,0.85l-1.39 1.33 2.46 0z"/>
  <polygon class="fil2" points="31.09,27.63 31.09,34.81 29.99,34.81 26.03,29.95 26.03,34.81 24.7,34.81 24.7,27.63 25.8,27.63 29.77,32.49 29.77,27.63 "/>
  <path class="fil2" d="M49.06 34.92c-0.73,0 -1.38,-0.16 -1.97,-0.48 -0.58,-0.32 -1.04,-0.76 -1.38,-1.32 -0.33,-0.56 -0.49,-1.19 -0.49,-1.9 0,-0.7 0.16,-1.34 0.5,-1.9 0.34,-0.56 0.8,-1 1.38,-1.32 0.59,-0.32 1.24,-0.47 1.97,-0.47 0.59,0 1.12,0.1 1.61,0.3 0.48,0.21 0.9,0.51 1.23,0.9l-0.86 0.81c-0.52,-0.56 -1.16,-0.84 -1.92,-0.84 -0.49,0 -0.94,0.1 -1.33,0.32 -0.39,0.22 -0.69,0.51 -0.91,0.9 -0.22,0.38 -0.33,0.82 -0.33,1.3 0,0.49 0.11,0.92 0.33,1.31 0.22,0.38 0.52,0.68 0.91,0.89 0.39,0.22 0.84,0.33 1.33,0.33 0.76,0 1.4,-0.29 1.92,-0.86l0.86 0.83c-0.33,0.39 -0.75,0.68 -1.24,0.89 -0.49,0.2 -1.02,0.31 -1.61,0.31z"/>
  <path class="fil2" d="M66.92 34.92c-0.73,0 -1.39,-0.16 -1.97,-0.48 -0.59,-0.32 -1.04,-0.76 -1.38,-1.32 -0.33,-0.56 -0.49,-1.19 -0.49,-1.9 0,-0.7 0.16,-1.34 0.5,-1.9 0.33,-0.56 0.79,-1 1.38,-1.32 0.58,-0.32 1.24,-0.47 1.97,-0.47 0.58,0 1.12,0.1 1.61,0.3 0.48,0.21 0.89,0.51 1.23,0.9l-0.86 0.81c-0.52,-0.56 -1.16,-0.84 -1.92,-0.84 -0.5,0 -0.94,0.1 -1.33,0.32 -0.39,0.22 -0.69,0.51 -0.91,0.9 -0.22,0.38 -0.33,0.82 -0.33,1.3 0,0.49 0.11,0.92 0.33,1.31 0.22,0.38 0.52,0.68 0.91,0.89 0.39,0.22 0.83,0.33 1.33,0.33 0.76,0 1.4,-0.29 1.92,-0.86l0.86 0.83c-0.34,0.39 -0.75,0.68 -1.24,0.89 -0.49,0.2 -1.03,0.31 -1.61,0.31z"/>
  <path class="fil2" d="M82.23 26.23c-0.73,0 -1.39,-0.16 -1.98,-0.48 -0.59,-0.32 -1.05,-0.76 -1.39,-1.33 -0.33,-0.56 -0.5,-1.19 -0.5,-1.89 0,-0.7 0.17,-1.33 0.5,-1.89 0.34,-0.57 0.8,-1.01 1.39,-1.33 0.59,-0.32 1.25,-0.48 1.98,-0.48 0.73,0 1.39,0.16 1.98,0.48 0.59,0.32 1.05,0.76 1.39,1.32 0.33,0.56 0.5,1.2 0.5,1.9 0,0.71 -0.17,1.34 -0.5,1.9 -0.34,0.56 -0.8,1 -1.39,1.32 -0.59,0.32 -1.25,0.48 -1.98,0.48zm0 -1.17c0.48,0 0.91,-0.11 1.29,-0.33 0.39,-0.21 0.69,-0.51 0.91,-0.9 0.22,-0.39 0.32,-0.82 0.32,-1.3 0,-0.48 -0.1,-0.91 -0.32,-1.3 -0.22,-0.39 -0.52,-0.69 -0.91,-0.9 -0.38,-0.22 -0.81,-0.33 -1.29,-0.33 -0.48,0 -0.91,0.11 -1.29,0.33 -0.39,0.21 -0.69,0.51 -0.91,0.9 -0.22,0.39 -0.33,0.82 -0.33,1.3 0,0.48 0.11,0.91 0.33,1.3 0.22,0.39 0.52,0.69 0.91,0.9 0.38,0.22 0.81,0.33 1.29,0.33z"/>
  <path class="fil2" d="M82.23 43.61c-0.73,0 -1.39,-0.16 -1.98,-0.48 -0.59,-0.32 -1.05,-0.76 -1.39,-1.32 -0.33,-0.57 -0.5,-1.2 -0.5,-1.9 0,-0.7 0.17,-1.33 0.5,-1.89 0.34,-0.57 0.8,-1.01 1.39,-1.33 0.59,-0.31 1.25,-0.47 1.98,-0.47 0.73,0 1.39,0.16 1.98,0.47 0.59,0.32 1.05,0.76 1.39,1.32 0.33,0.56 0.5,1.2 0.5,1.9 0,0.71 -0.17,1.34 -0.5,1.9 -0.34,0.56 -0.8,1 -1.39,1.32 -0.59,0.32 -1.25,0.48 -1.98,0.48zm0 -1.17c0.48,0 0.91,-0.11 1.29,-0.32 0.39,-0.22 0.69,-0.52 0.91,-0.91 0.22,-0.38 0.32,-0.82 0.32,-1.3 0,-0.48 -0.1,-0.91 -0.32,-1.3 -0.22,-0.38 -0.52,-0.68 -0.91,-0.9 -0.38,-0.21 -0.81,-0.32 -1.29,-0.32 -0.48,0 -0.91,0.11 -1.29,0.32 -0.39,0.22 -0.69,0.52 -0.91,0.9 -0.22,0.39 -0.33,0.82 -0.33,1.3 0,0.48 0.11,0.92 0.33,1.3 0.22,0.39 0.52,0.69 0.91,0.91 0.38,0.21 0.81,0.32 1.29,0.32z"/>
  <path class="fil2" d="M49.06 52.42c-0.73,0 -1.38,-0.16 -1.97,-0.48 -0.58,-0.32 -1.04,-0.76 -1.38,-1.32 -0.33,-0.56 -0.49,-1.19 -0.49,-1.9 0,-0.7 0.16,-1.34 0.5,-1.9 0.34,-0.56 0.8,-1 1.38,-1.32 0.59,-0.32 1.24,-0.48 1.97,-0.48 0.59,0 1.12,0.11 1.61,0.31 0.48,0.21 0.9,0.51 1.23,0.9l-0.86 0.81c-0.52,-0.56 -1.16,-0.84 -1.92,-0.84 -0.49,0 -0.94,0.1 -1.33,0.32 -0.39,0.21 -0.69,0.51 -0.91,0.9 -0.22,0.38 -0.33,0.81 -0.33,1.3 0,0.49 0.11,0.92 0.33,1.3 0.22,0.39 0.52,0.69 0.91,0.9 0.39,0.22 0.84,0.33 1.33,0.33 0.76,0 1.4,-0.29 1.92,-0.86l0.86 0.83c-0.33,0.39 -0.75,0.68 -1.24,0.89 -0.49,0.2 -1.02,0.31 -1.61,0.31z"/>
  <polygon id="1" class="fil2" points="59.58,45.13 59.58,52.31 58.24,52.31 58.24,49.23 54.53,49.23 54.53,52.31 53.19,52.31 53.19,45.13 54.53,45.13 54.53,48.09 58.24,48.09 58.24,45.13 "/>
  <polygon class="fil2" points="63.52,60.65 63.52,67.84 62.43,67.84 58.46,62.97 58.46,67.84 57.14,67.84 57.14,60.65 58.24,60.65 62.2,65.52 62.2,60.65 "/>
  <polygon class="fil2" points="70.91,60.65 70.91,67.84 69.57,67.84 69.57,64.76 65.86,64.76 65.86,67.84 64.52,67.84 64.52,60.65 65.86,60.65 65.86,63.62 69.57,63.62 69.57,60.65 "/>
  <polygon class="fil2" points="52.12,10.11 52.12,17.3 50.78,17.3 50.78,14.22 47.06,14.22 47.06,17.3 45.73,17.3 45.73,10.11 47.06,10.11 47.06,13.08 50.78,13.08 50.78,10.11 "/>
  <polygon class="fil2" points="36.14,28.44 34.66,28.44 34.66,29.91 33.76,29.91 33.76,28.44 32.27,28.44 32.27,27.6 33.76,27.6 33.76,26.13 34.66,26.13 34.66,27.6 36.14,27.6 "/>
  <polygon class="fil2" points="86.62,36.02 88.93,36.02 88.93,36.9 86.62,36.9 "/>
  <polygon class="fil2" points="67.6,78.81 67.6,86 66.5,86 62.54,81.13 62.54,86 61.21,86 61.21,78.81 62.31,78.81 66.28,83.68 66.28,78.81 "/>
  <polygon class="fil2" points="74.98,78.81 74.98,86 73.65,86 73.65,82.92 69.93,82.92 69.93,86 68.6,86 68.6,78.81 69.93,78.81 69.93,81.78 73.65,81.78 73.65,78.81 "/>
  <polygon class="fil2" points="60.16,79.66 58.67,79.66 58.67,81.13 57.77,81.13 57.77,79.66 56.28,79.66 56.28,78.82 57.77,78.82 57.77,77.35 58.67,77.35 58.67,78.82 60.16,78.82 "/>
  <polygon class="fil2" points="48.76,37.14 48.76,42.74 48.23,42.74 48.23,37.14 "/>
  <polygon class="fil2" points="36.71,30.96 42.31,30.96 42.31,31.49 36.71,31.49 "/>
  <polygon class="fil2" points="54.57,30.96 60.17,30.96 60.17,31.49 54.57,31.49 "/>
  <polygon class="fil2" points="71.29,27.22 76.14,24.42 76.4,24.88 71.55,27.68 "/>
  <polygon class="fil2" points="71.95,28.36 76.8,25.56 77.06,26.02 72.21,28.82 "/>
  <polygon class="fil2" points="72.21,34.76 77.06,37.56 76.8,38.02 71.95,35.22 "/>
  <path class="fil3" d="M48.23 80.78l0 -15.47 0.53 0 0 15.47 -0.53 0zm1.32 0l0 -15.47 0.53 0 0 15.47 -0.53 0z"/>
  <polygon class="fil3" points="57.42,76.66 59.88,72.38 60.19,72.91 58.03,76.66 "/>
  <polygon class="fil2" points="48.76,19.63 48.76,25.23 48.23,25.23 48.23,19.63 "/>
  <polygon class="fil2" points="48.76,54.64 48.76,60.24 48.76,65.84 48.23,65.84 48.23,60.24 48.23,54.64 "/>
  <path class="fil3" d="M48.72 65.3l8.15 0 0 0.53 -8.15 0 0 -0.53zm10.21 3.06l2.71 4.68 -2.09 3.62 -0.61 0 2.09 -3.62 -2.7 -4.68 0.6 0zm-2.06 12.42l-8.15 0 0 -0.53 8.15 0 0 0.53z"/>
 </g>
</svg>
