<?xml version="1.0" encoding="UTF-8"?>
<!DOCTYPE svg PUBLIC "-//W3C//DTD SVG 1.1//EN" "http://www.w3.org/Graphics/SVG/1.1/DTD/svg11.dtd">
<!-- Creator: CorelDRAW 2018 (64 Bit) -->
<svg xmlns="http://www.w3.org/2000/svg" xml:space="preserve" width="450px" height="700px" version="1.1" style="shape-rendering:geometricPrecision; text-rendering:geometricPrecision; image-rendering:optimizeQuality; fill-rule:evenodd; clip-rule:evenodd"
viewBox="0 0 197.48 307.2"
 xmlns:xlink="http://www.w3.org/1999/xlink">
 <defs>
  <style type="text/css">
   <![CDATA[
    .fil0 {fill:none}
    .fil1 {fill:#DAEBDE}
    .fil2 {fill:black;fill-rule:nonzero}
   ]]>
  </style>
 </defs>
 <g id="Camada_x0020_1">
  <metadata id="CorelCorpID_0Corel-Layer"/>
  <rect class="fil0" width="197.48" height="307.2"/>
  <rect class="fil1" x="20.15" y="78.25" width="121.22" height="105.96" rx="7.53" ry="3.03"/>
  <polygon class="fil2" points="35.49,54.13 35.49,68.21 32.87,68.21 32.87,62.18 25.59,62.18 25.59,68.21 22.98,68.21 22.98,54.13 25.59,54.13 25.59,59.94 32.87,59.94 32.87,54.13 "/>
  <path class="fil2" d="M42.86 67.73c0.95,0.11 1.67,0.43 2.17,0.96 0.5,0.53 0.74,1.19 0.74,1.98 0,0.59 -0.15,1.13 -0.45,1.62 -0.3,0.49 -0.76,0.88 -1.37,1.16 -0.61,0.29 -1.35,0.43 -2.23,0.43 -0.73,0 -1.43,-0.1 -2.11,-0.31 -0.68,-0.21 -1.26,-0.5 -1.73,-0.87l0.81 -1.48c0.38,0.31 0.83,0.56 1.36,0.74 0.53,0.18 1.08,0.27 1.64,0.27 0.68,0 1.21,-0.14 1.59,-0.42 0.39,-0.27 0.58,-0.65 0.58,-1.13 0,-0.48 -0.18,-0.85 -0.55,-1.12 -0.37,-0.27 -0.92,-0.4 -1.68,-0.4l-0.93 0 0 -1.3 2.32 -2.77 -4.65 0 0 -1.59 6.98 0 0 1.27 -2.49 2.96z"/>
  <path class="fil2" d="M127.49 140.69l0 1.61 -7.55 0 0 -1.27 4.06 -3.86c0.46,-0.44 0.77,-0.83 0.93,-1.15 0.16,-0.33 0.24,-0.65 0.24,-0.98 0,-0.47 -0.16,-0.84 -0.48,-1.09 -0.32,-0.26 -0.79,-0.38 -1.42,-0.38 -1.04,0 -1.84,0.35 -2.4,1.07l-1.33 -1.03c0.4,-0.54 0.94,-0.95 1.62,-1.25 0.68,-0.3 1.43,-0.45 2.27,-0.45 1.12,0 2,0.27 2.67,0.79 0.66,0.53 0.99,1.25 0.99,2.15 0,0.56 -0.12,1.08 -0.35,1.57 -0.23,0.49 -0.68,1.04 -1.35,1.67l-2.73 2.6 4.83 0z"/>
  <polygon class="fil2" points="60.91,54.13 60.91,68.21 58.76,68.21 51,58.68 51,68.21 48.4,68.21 48.4,54.13 50.55,54.13 58.32,63.66 58.32,54.13 "/>
  <path class="fil2" d="M96.11 68.41c-1.42,0 -2.7,-0.31 -3.85,-0.93 -1.15,-0.63 -2.04,-1.49 -2.69,-2.59 -0.65,-1.1 -0.98,-2.34 -0.98,-3.72 0,-1.38 0.33,-2.62 0.99,-3.72 0.65,-1.1 1.55,-1.96 2.7,-2.58 1.15,-0.63 2.43,-0.94 3.85,-0.94 1.16,0 2.21,0.2 3.16,0.6 0.95,0.41 1.76,0.99 2.41,1.75l-1.68 1.59c-1.02,-1.1 -2.28,-1.65 -3.77,-1.65 -0.96,0 -1.83,0.21 -2.59,0.64 -0.77,0.42 -1.36,1.01 -1.79,1.76 -0.43,0.75 -0.64,1.6 -0.64,2.55 0,0.95 0.21,1.8 0.64,2.55 0.43,0.76 1.02,1.34 1.79,1.77 0.76,0.42 1.63,0.63 2.59,0.63 1.49,0 2.75,-0.56 3.77,-1.67l1.68 1.61c-0.65,0.76 -1.46,1.35 -2.42,1.75 -0.96,0.4 -2.01,0.6 -3.17,0.6z"/>
  <path class="fil2" d="M131.1 68.41c-1.42,0 -2.7,-0.31 -3.85,-0.93 -1.15,-0.63 -2.04,-1.49 -2.69,-2.59 -0.65,-1.1 -0.98,-2.34 -0.98,-3.72 0,-1.38 0.33,-2.62 0.99,-3.72 0.65,-1.1 1.55,-1.96 2.7,-2.58 1.15,-0.63 2.43,-0.94 3.85,-0.94 1.16,0 2.21,0.2 3.16,0.6 0.95,0.41 1.76,0.99 2.41,1.75l-1.68 1.59c-1.02,-1.1 -2.28,-1.65 -3.77,-1.65 -0.96,0 -1.83,0.21 -2.59,0.64 -0.76,0.42 -1.36,1.01 -1.79,1.76 -0.43,0.75 -0.64,1.6 -0.64,2.55 0,0.95 0.21,1.8 0.64,2.55 0.43,0.76 1.03,1.34 1.79,1.77 0.76,0.42 1.63,0.63 2.59,0.63 1.49,0 2.75,-0.56 3.77,-1.67l1.68 1.61c-0.65,0.76 -1.46,1.35 -2.42,1.75 -0.96,0.4 -2.01,0.6 -3.17,0.6z"/>
  <path class="fil2" d="M161.11 51.38c-1.44,0 -2.73,-0.31 -3.89,-0.93 -1.15,-0.63 -2.05,-1.49 -2.71,-2.6 -0.66,-1.1 -0.99,-2.34 -0.99,-3.71 0,-1.36 0.33,-2.6 0.99,-3.71 0.66,-1.1 1.56,-1.97 2.71,-2.59 1.16,-0.63 2.45,-0.94 3.89,-0.94 1.43,0 2.72,0.31 3.88,0.94 1.15,0.62 2.06,1.48 2.71,2.58 0.66,1.1 0.99,2.34 0.99,3.72 0,1.38 -0.33,2.62 -0.99,3.72 -0.65,1.1 -1.56,1.96 -2.71,2.59 -1.16,0.62 -2.45,0.93 -3.88,0.93zm0 -2.29c0.93,0 1.78,-0.21 2.53,-0.63 0.75,-0.43 1.34,-1.02 1.77,-1.77 0.43,-0.76 0.64,-1.61 0.64,-2.55 0,-0.94 -0.21,-1.78 -0.64,-2.54 -0.43,-0.76 -1.02,-1.35 -1.77,-1.77 -0.75,-0.42 -1.6,-0.64 -2.53,-0.64 -0.94,0 -1.79,0.22 -2.54,0.64 -0.75,0.42 -1.34,1.01 -1.77,1.77 -0.43,0.76 -0.64,1.6 -0.64,2.54 0,0.94 0.21,1.79 0.64,2.55 0.43,0.75 1.02,1.34 1.77,1.77 0.75,0.42 1.6,0.63 2.54,0.63z"/>
  <path class="fil2" d="M161.11 85.44c-1.44,0 -2.73,-0.31 -3.89,-0.93 -1.15,-0.63 -2.05,-1.49 -2.71,-2.6 -0.66,-1.11 -0.99,-2.34 -0.99,-3.71 0,-1.37 0.33,-2.61 0.99,-3.71 0.66,-1.11 1.56,-1.97 2.71,-2.6 1.16,-0.62 2.45,-0.93 3.89,-0.93 1.43,0 2.72,0.31 3.88,0.93 1.15,0.63 2.06,1.49 2.71,2.59 0.66,1.1 0.99,2.34 0.99,3.72 0,1.38 -0.33,2.62 -0.99,3.72 -0.65,1.1 -1.56,1.96 -2.71,2.59 -1.16,0.62 -2.45,0.93 -3.88,0.93zm0 -2.29c0.93,0 1.78,-0.21 2.53,-0.64 0.75,-0.42 1.34,-1.01 1.77,-1.77 0.43,-0.75 0.64,-1.6 0.64,-2.54 0,-0.94 -0.21,-1.79 -0.64,-2.55 -0.43,-0.75 -1.02,-1.34 -1.77,-1.76 -0.75,-0.43 -1.6,-0.64 -2.53,-0.64 -0.94,0 -1.79,0.21 -2.54,0.64 -0.75,0.42 -1.34,1.01 -1.77,1.76 -0.43,0.76 -0.64,1.61 -0.64,2.55 0,0.94 0.21,1.79 0.64,2.54 0.43,0.76 1.02,1.35 1.77,1.77 0.75,0.43 1.6,0.64 2.54,0.64z"/>
  <path class="fil2" d="M96.11 102.7c-1.42,0 -2.7,-0.32 -3.85,-0.94 -1.15,-0.62 -2.04,-1.48 -2.69,-2.58 -0.65,-1.1 -0.98,-2.34 -0.98,-3.73 0,-1.38 0.33,-2.62 0.99,-3.72 0.65,-1.1 1.55,-1.96 2.7,-2.58 1.15,-0.62 2.43,-0.94 3.85,-0.94 1.16,0 2.21,0.2 3.16,0.61 0.95,0.4 1.76,0.98 2.41,1.75l-1.68 1.59c-1.02,-1.1 -2.28,-1.65 -3.77,-1.65 -0.96,0 -1.83,0.21 -2.59,0.63 -0.77,0.42 -1.36,1.01 -1.79,1.76 -0.43,0.75 -0.64,1.6 -0.64,2.55 0,0.96 0.21,1.81 0.64,2.56 0.43,0.75 1.02,1.34 1.79,1.76 0.76,0.42 1.63,0.63 2.59,0.63 1.49,0 2.75,-0.55 3.77,-1.67l1.68 1.61c-0.65,0.77 -1.46,1.35 -2.42,1.75 -0.96,0.4 -2.01,0.61 -3.17,0.61z"/>
  <polygon id="1" class="fil2" points="116.73,88.41 116.73,102.49 114.12,102.49 114.12,96.46 106.83,96.46 106.83,102.49 104.22,102.49 104.22,88.41 106.83,88.41 106.83,94.23 114.12,94.23 114.12,88.41 "/>
  <path class="fil2" d="M96.11 136.97c-1.42,0 -2.7,-0.31 -3.85,-0.93 -1.15,-0.62 -2.04,-1.49 -2.69,-2.59 -0.65,-1.1 -0.98,-2.34 -0.98,-3.72 0,-1.38 0.33,-2.62 0.99,-3.72 0.65,-1.1 1.55,-1.96 2.7,-2.58 1.15,-0.63 2.43,-0.94 3.85,-0.94 1.16,0 2.21,0.2 3.16,0.61 0.95,0.4 1.76,0.98 2.41,1.75l-1.68 1.58c-1.02,-1.1 -2.28,-1.65 -3.77,-1.65 -0.96,0 -1.83,0.22 -2.59,0.64 -0.77,0.42 -1.36,1.01 -1.79,1.76 -0.43,0.75 -0.64,1.6 -0.64,2.55 0,0.96 0.21,1.81 0.64,2.56 0.43,0.75 1.02,1.33 1.79,1.76 0.76,0.42 1.63,0.63 2.59,0.63 1.49,0 2.75,-0.56 3.77,-1.67l1.68 1.61c-0.65,0.76 -1.46,1.35 -2.42,1.75 -0.96,0.4 -2.01,0.6 -3.17,0.6z"/>
  <polygon id="1" class="fil2" points="116.73,122.69 116.73,136.77 114.12,136.77 114.12,130.74 106.83,130.74 106.83,136.77 104.22,136.77 104.22,122.69 106.83,122.69 106.83,128.51 114.12,128.51 114.12,122.69 "/>
  <polygon class="fil2" points="102.11,19.81 102.11,33.89 99.49,33.89 99.49,27.85 92.21,27.85 92.21,33.89 89.6,33.89 89.6,19.81 92.21,19.81 92.21,25.62 99.49,25.62 99.49,19.81 "/>
  <polygon class="fil2" points="70.81,55.73 67.9,55.73 67.9,58.61 66.14,58.61 66.14,55.73 63.22,55.73 63.22,54.08 66.14,54.08 66.14,51.2 67.9,51.2 67.9,54.08 70.81,54.08 "/>
  <polygon class="fil2" points="169.71,70.58 174.24,70.58 174.24,72.29 169.71,72.29 "/>
  <polygon class="fil2" points="95.54,72.77 95.54,83.74 94.5,83.74 94.5,72.77 "/>
  <polygon class="fil2" points="71.93,60.65 82.9,60.65 82.9,61.69 71.93,61.69 "/>
  <polygon class="fil2" points="44.42,88.41 44.42,102.49 41.8,102.49 41.8,96.46 34.52,96.46 34.52,102.49 31.9,102.49 31.9,88.41 34.52,88.41 34.52,94.23 41.8,94.23 41.8,88.41 "/>
  <path class="fil2" d="M51.79 102.01c0.95,0.12 1.67,0.44 2.17,0.97 0.49,0.52 0.74,1.18 0.74,1.97 0,0.6 -0.15,1.14 -0.45,1.62 -0.3,0.49 -0.76,0.88 -1.37,1.17 -0.61,0.28 -1.35,0.43 -2.23,0.43 -0.73,0 -1.44,-0.11 -2.11,-0.32 -0.68,-0.21 -1.26,-0.5 -1.74,-0.87l0.82 -1.47c0.37,0.31 0.82,0.55 1.36,0.73 0.53,0.19 1.08,0.28 1.64,0.28 0.67,0 1.2,-0.14 1.59,-0.42 0.38,-0.28 0.58,-0.66 0.58,-1.13 0,-0.48 -0.19,-0.86 -0.55,-1.12 -0.37,-0.27 -0.93,-0.41 -1.68,-0.41l-0.93 0 0 -1.3 2.32 -2.76 -4.65 0 0 -1.6 6.98 0 0 1.28 -2.49 2.95z"/>
  <path class="fil2" d="M63.85 102.7c-1.42,0 -2.71,-0.32 -3.86,-0.94 -1.14,-0.62 -2.04,-1.48 -2.69,-2.58 -0.65,-1.1 -0.98,-2.34 -0.98,-3.73 0,-1.38 0.33,-2.62 0.99,-3.72 0.66,-1.1 1.56,-1.96 2.7,-2.58 1.15,-0.62 2.44,-0.94 3.86,-0.94 1.15,0 2.2,0.2 3.15,0.61 0.96,0.4 1.76,0.98 2.42,1.75l-1.69 1.59c-1.02,-1.1 -2.27,-1.65 -3.76,-1.65 -0.97,0 -1.83,0.21 -2.6,0.63 -0.76,0.42 -1.36,1.01 -1.79,1.76 -0.43,0.75 -0.64,1.6 -0.64,2.55 0,0.96 0.21,1.81 0.64,2.56 0.43,0.75 1.03,1.34 1.79,1.76 0.77,0.42 1.63,0.63 2.6,0.63 1.49,0 2.74,-0.55 3.76,-1.67l1.69 1.61c-0.66,0.77 -1.47,1.35 -2.43,1.75 -0.95,0.4 -2.01,0.61 -3.16,0.61z"/>
  <polygon class="fil2" points="71.93,93.02 82.9,93.02 82.9,94.05 71.93,94.05 "/>
  <polygon class="fil2" points="106.92,60.65 117.89,60.65 117.89,61.69 106.92,61.69 "/>
  <polygon class="fil2" points="139.67,53.34 149.17,47.85 149.68,48.74 140.18,54.23 "/>
  <polygon class="fil2" points="140.96,55.57 150.46,50.09 150.97,50.98 141.47,56.47 "/>
  <polygon class="fil2" points="141.47,68.11 150.97,73.6 150.46,74.49 140.96,69.01 "/>
  <path class="fil2" d="M96.11 171.27c-1.42,0 -2.7,-0.32 -3.85,-0.94 -1.15,-0.62 -2.04,-1.48 -2.69,-2.58 -0.65,-1.1 -0.98,-2.34 -0.98,-3.72 0,-1.39 0.33,-2.63 0.99,-3.73 0.65,-1.1 1.55,-1.96 2.7,-2.58 1.15,-0.62 2.43,-0.94 3.85,-0.94 1.16,0 2.21,0.21 3.16,0.61 0.95,0.4 1.76,0.98 2.41,1.75l-1.68 1.59c-1.02,-1.1 -2.28,-1.65 -3.77,-1.65 -0.96,0 -1.83,0.21 -2.59,0.63 -0.77,0.42 -1.36,1.01 -1.79,1.76 -0.43,0.75 -0.64,1.6 -0.64,2.56 0,0.95 0.21,1.8 0.64,2.55 0.43,0.75 1.02,1.34 1.79,1.76 0.76,0.42 1.63,0.63 2.59,0.63 1.49,0 2.75,-0.55 3.77,-1.67l1.68 1.61c-0.65,0.77 -1.46,1.35 -2.42,1.75 -0.96,0.41 -2.01,0.61 -3.17,0.61z"/>
  <polygon class="fil2" points="95.54,141.34 95.54,152.31 94.5,152.31 94.5,141.34 "/>
  <polygon class="fil2" points="95.54,38.45 95.54,49.43 94.5,49.43 94.5,38.45 "/>
  <polygon class="fil2" points="95.54,107.05 95.54,118.02 94.5,118.02 94.5,107.05 "/>
  <path class="fil2" d="M124.43 170.58c0.94,0.12 1.67,0.44 2.16,0.97 0.5,0.52 0.75,1.18 0.75,1.97 0,0.6 -0.15,1.14 -0.45,1.62 -0.31,0.49 -0.76,0.88 -1.37,1.17 -0.61,0.29 -1.36,0.43 -2.23,0.43 -0.73,0 -1.44,-0.11 -2.12,-0.32 -0.67,-0.21 -1.25,-0.5 -1.73,-0.87l0.82 -1.47c0.37,0.31 0.82,0.56 1.35,0.74 0.53,0.18 1.08,0.27 1.65,0.27 0.67,0 1.2,-0.14 1.59,-0.42 0.38,-0.28 0.57,-0.66 0.57,-1.13 0,-0.48 -0.18,-0.86 -0.55,-1.12 -0.36,-0.27 -0.92,-0.41 -1.67,-0.41l-0.94 0 0 -1.3 2.33 -2.76 -4.65 0 0 -1.6 6.98 0 0 1.28 -2.49 2.95z"/>
  <path class="fil2" d="M96.11 171.27c-1.42,0 -2.7,-0.32 -3.85,-0.94 -1.15,-0.62 -2.04,-1.48 -2.69,-2.58 -0.65,-1.1 -0.98,-2.34 -0.98,-3.72 0,-1.39 0.33,-2.63 0.99,-3.73 0.65,-1.1 1.55,-1.96 2.7,-2.58 1.15,-0.62 2.43,-0.94 3.85,-0.94 1.16,0 2.21,0.21 3.16,0.61 0.95,0.4 1.76,0.98 2.41,1.75l-1.68 1.59c-1.02,-1.1 -2.28,-1.65 -3.77,-1.65 -0.96,0 -1.83,0.21 -2.59,0.63 -0.77,0.42 -1.36,1.01 -1.79,1.76 -0.43,0.75 -0.64,1.6 -0.64,2.56 0,0.95 0.21,1.8 0.64,2.55 0.43,0.75 1.02,1.34 1.79,1.76 0.76,0.42 1.63,0.63 2.59,0.63 1.49,0 2.75,-0.55 3.77,-1.67l1.68 1.61c-0.65,0.77 -1.46,1.35 -2.42,1.75 -0.96,0.41 -2.01,0.61 -3.17,0.61z"/>
  <polygon id="1" class="fil2" points="116.73,156.99 116.73,171.07 114.12,171.07 114.12,165.03 106.83,165.03 106.83,171.07 104.22,171.07 104.22,156.99 106.83,156.99 106.83,162.8 114.12,162.8 114.12,156.99 "/>
 </g>
</svg>
