<?xml version="1.0" encoding="UTF-8"?>
<!DOCTYPE svg PUBLIC "-//W3C//DTD SVG 1.1//EN" "http://www.w3.org/Graphics/SVG/1.1/DTD/svg11.dtd">
<!-- Creator: CorelDRAW 2018 (64 Bit) -->
<svg xmlns="http://www.w3.org/2000/svg" xml:space="preserve" width="450px" height="700px" version="1.1" style="shape-rendering:geometricPrecision; text-rendering:geometricPrecision; image-rendering:optimizeQuality; fill-rule:evenodd; clip-rule:evenodd"
viewBox="0 0 197.48 307.2"
 xmlns:xlink="http://www.w3.org/1999/xlink">
 <defs>
  <style type="text/css">
   <![CDATA[
    .fil0 {fill:none}
    .fil1 {fill:#DAEBF6}
    .fil2 {fill:black;fill-rule:nonzero}
    .fil3 {fill:black;fill-rule:nonzero}
   ]]>
  </style>
 </defs>
 <g id="Camada_x0020_1">
  <metadata id="CorelCorpID_0Corel-Layer"/>
  <rect class="fil0" width="197.48" height="307.2"/>
  <path class="fil1" d="M173.6 104.3l0.02 0.03c1.19,1.25 1.91,2.89 1.91,4.66l0 21.79 0 43.58 0 106.45c0,3.62 -2.96,6.58 -6.58,6.58l-93.26 0c-3.62,0 -6.58,-2.96 -6.58,-6.58l0 -105.87 0 -44.16 0 -45.94c0,-3.62 3.25,-6.59 7.23,-6.59l53.75 0c1.2,0 2.34,0.28 3.34,0.75l40.17 25.3z"/>
  <polygon class="fil2" points="30.58,54.13 30.58,68.21 27.96,68.21 27.96,62.18 20.68,62.18 20.68,68.21 18.07,68.21 18.07,54.13 20.68,54.13 20.68,59.94 27.96,59.94 27.96,54.13 "/>
  <path class="fil2" d="M37.95 67.73c0.95,0.11 1.67,0.43 2.17,0.96 0.5,0.53 0.74,1.19 0.74,1.98 0,0.59 -0.15,1.13 -0.45,1.62 -0.3,0.49 -0.76,0.88 -1.37,1.16 -0.61,0.29 -1.35,0.43 -2.23,0.43 -0.73,0 -1.43,-0.1 -2.11,-0.31 -0.68,-0.21 -1.26,-0.5 -1.73,-0.87l0.81 -1.48c0.38,0.31 0.83,0.56 1.36,0.74 0.53,0.18 1.08,0.27 1.64,0.27 0.68,0 1.21,-0.14 1.59,-0.42 0.39,-0.27 0.58,-0.65 0.58,-1.13 0,-0.48 -0.18,-0.85 -0.55,-1.12 -0.37,-0.27 -0.92,-0.4 -1.68,-0.4l-0.93 0 0 -1.3 2.32 -2.77 -4.65 0 0 -1.59 6.98 0 0 1.27 -2.49 2.96z"/>
  <path class="fil2" d="M122.58 106.41l0 1.61 -7.55 0 0 -1.27 4.06 -3.86c0.46,-0.44 0.77,-0.82 0.93,-1.15 0.16,-0.33 0.24,-0.65 0.24,-0.97 0,-0.48 -0.16,-0.85 -0.48,-1.1 -0.32,-0.25 -0.79,-0.38 -1.42,-0.38 -1.04,0 -1.84,0.35 -2.4,1.07l-1.33 -1.03c0.4,-0.53 0.94,-0.95 1.62,-1.25 0.68,-0.3 1.43,-0.44 2.27,-0.44 1.12,0 2,0.26 2.67,0.79 0.66,0.52 0.99,1.24 0.99,2.15 0,0.55 -0.12,1.07 -0.35,1.56 -0.23,0.49 -0.68,1.05 -1.35,1.67l-2.73 2.6 4.83 0z"/>
  <path class="fil2" d="M122.71 277.83l0 1.6 -7.55 0 0 -1.27 4.07 -3.86c0.45,-0.44 0.76,-0.82 0.92,-1.15 0.17,-0.33 0.25,-0.65 0.25,-0.97 0,-0.48 -0.16,-0.85 -0.49,-1.1 -0.32,-0.25 -0.79,-0.38 -1.42,-0.38 -1.04,0 -1.84,0.36 -2.39,1.07l-1.34 -1.02c0.4,-0.54 0.94,-0.96 1.62,-1.26 0.68,-0.29 1.44,-0.44 2.28,-0.44 1.11,0 1.99,0.26 2.66,0.79 0.66,0.52 0.99,1.24 0.99,2.15 0,0.55 -0.11,1.08 -0.35,1.56 -0.23,0.49 -0.68,1.05 -1.34,1.67l-2.74 2.61 4.83 0z"/>
  <path class="fil2" d="M122.58 174.98l0 1.61 -7.55 0 0 -1.27 4.06 -3.86c0.46,-0.44 0.77,-0.82 0.93,-1.15 0.16,-0.33 0.24,-0.65 0.24,-0.97 0,-0.48 -0.16,-0.85 -0.48,-1.1 -0.32,-0.25 -0.79,-0.38 -1.42,-0.38 -1.04,0 -1.84,0.36 -2.4,1.07l-1.33 -1.03c0.4,-0.53 0.94,-0.95 1.62,-1.25 0.68,-0.29 1.43,-0.44 2.27,-0.44 1.12,0 2,0.26 2.67,0.79 0.66,0.52 0.99,1.24 0.99,2.15 0,0.55 -0.12,1.07 -0.35,1.56 -0.23,0.49 -0.68,1.05 -1.35,1.67l-2.73 2.6 4.83 0z"/>
  <path class="fil2" d="M122.58 140.69l0 1.61 -7.55 0 0 -1.27 4.06 -3.86c0.46,-0.44 0.77,-0.83 0.93,-1.15 0.16,-0.33 0.24,-0.65 0.24,-0.98 0,-0.47 -0.16,-0.84 -0.48,-1.09 -0.32,-0.26 -0.79,-0.38 -1.42,-0.38 -1.04,0 -1.84,0.35 -2.4,1.07l-1.33 -1.03c0.4,-0.54 0.94,-0.95 1.62,-1.25 0.68,-0.3 1.43,-0.45 2.27,-0.45 1.12,0 2,0.27 2.67,0.79 0.66,0.53 0.99,1.25 0.99,2.15 0,0.56 -0.12,1.08 -0.35,1.57 -0.23,0.49 -0.68,1.04 -1.35,1.67l-2.73 2.6 4.83 0z"/>
  <polygon class="fil2" points="56,54.13 56,68.21 53.85,68.21 46.09,58.68 46.09,68.21 43.49,68.21 43.49,54.13 45.64,54.13 53.41,63.66 53.41,54.13 "/>
  <path class="fil2" d="M91.2 68.41c-1.42,0 -2.7,-0.31 -3.85,-0.93 -1.15,-0.63 -2.04,-1.49 -2.69,-2.59 -0.65,-1.1 -0.98,-2.34 -0.98,-3.72 0,-1.38 0.33,-2.62 0.99,-3.72 0.65,-1.1 1.55,-1.96 2.7,-2.59 1.15,-0.62 2.43,-0.93 3.85,-0.93 1.16,0 2.21,0.2 3.16,0.6 0.95,0.41 1.76,0.99 2.41,1.75l-1.69 1.59c-1.01,-1.1 -2.27,-1.65 -3.76,-1.65 -0.96,0 -1.83,0.21 -2.59,0.64 -0.77,0.42 -1.36,1.01 -1.79,1.76 -0.43,0.75 -0.64,1.6 -0.64,2.55 0,0.95 0.21,1.8 0.64,2.55 0.43,0.76 1.02,1.34 1.79,1.77 0.76,0.42 1.63,0.63 2.59,0.63 1.49,0 2.75,-0.56 3.76,-1.67l1.69 1.61c-0.65,0.76 -1.46,1.35 -2.42,1.75 -0.96,0.4 -2.01,0.6 -3.17,0.6z"/>
  <path class="fil2" d="M126.19 68.41c-1.42,0 -2.7,-0.31 -3.85,-0.93 -1.15,-0.63 -2.04,-1.49 -2.69,-2.59 -0.65,-1.1 -0.98,-2.34 -0.98,-3.72 0,-1.38 0.33,-2.62 0.99,-3.72 0.65,-1.1 1.55,-1.96 2.7,-2.59 1.15,-0.62 2.43,-0.93 3.85,-0.93 1.16,0 2.21,0.2 3.16,0.6 0.95,0.41 1.76,0.99 2.41,1.75l-1.68 1.59c-1.02,-1.1 -2.28,-1.65 -3.77,-1.65 -0.96,0 -1.83,0.21 -2.59,0.64 -0.77,0.42 -1.36,1.01 -1.79,1.76 -0.43,0.75 -0.64,1.6 -0.64,2.55 0,0.95 0.21,1.8 0.64,2.55 0.43,0.76 1.02,1.34 1.79,1.77 0.76,0.42 1.63,0.63 2.59,0.63 1.49,0 2.75,-0.56 3.77,-1.67l1.68 1.61c-0.65,0.76 -1.46,1.35 -2.42,1.75 -0.96,0.4 -2.01,0.6 -3.17,0.6z"/>
  <path class="fil2" d="M156.2 51.38c-1.44,0 -2.73,-0.31 -3.89,-0.93 -1.15,-0.63 -2.05,-1.49 -2.71,-2.6 -0.66,-1.1 -0.99,-2.34 -0.99,-3.71 0,-1.37 0.33,-2.6 0.99,-3.71 0.66,-1.1 1.56,-1.97 2.71,-2.59 1.16,-0.63 2.45,-0.94 3.89,-0.94 1.43,0 2.73,0.31 3.88,0.94 1.15,0.62 2.06,1.48 2.71,2.58 0.66,1.1 0.99,2.34 0.99,3.72 0,1.38 -0.33,2.62 -0.99,3.72 -0.65,1.1 -1.56,1.96 -2.71,2.59 -1.15,0.62 -2.45,0.93 -3.88,0.93zm0 -2.29c0.93,0 1.78,-0.21 2.53,-0.63 0.75,-0.43 1.34,-1.02 1.77,-1.77 0.43,-0.76 0.64,-1.61 0.64,-2.55 0,-0.94 -0.21,-1.78 -0.64,-2.54 -0.43,-0.76 -1.02,-1.35 -1.77,-1.77 -0.75,-0.42 -1.6,-0.64 -2.53,-0.64 -0.94,0 -1.79,0.22 -2.54,0.64 -0.75,0.42 -1.34,1.01 -1.77,1.77 -0.43,0.76 -0.64,1.6 -0.64,2.54 0,0.94 0.21,1.79 0.64,2.55 0.43,0.75 1.02,1.34 1.77,1.77 0.75,0.42 1.6,0.63 2.54,0.63z"/>
  <path class="fil2" d="M156.2 85.44c-1.44,0 -2.73,-0.31 -3.89,-0.93 -1.15,-0.63 -2.05,-1.49 -2.71,-2.6 -0.66,-1.11 -0.99,-2.34 -0.99,-3.71 0,-1.37 0.33,-2.61 0.99,-3.71 0.66,-1.11 1.56,-1.97 2.71,-2.6 1.16,-0.62 2.45,-0.93 3.89,-0.93 1.43,0 2.73,0.31 3.88,0.93 1.15,0.63 2.06,1.49 2.71,2.59 0.66,1.1 0.99,2.34 0.99,3.72 0,1.38 -0.33,2.62 -0.99,3.72 -0.65,1.1 -1.56,1.96 -2.71,2.59 -1.15,0.62 -2.45,0.93 -3.88,0.93zm0 -2.29c0.93,0 1.78,-0.21 2.53,-0.64 0.75,-0.42 1.34,-1.01 1.77,-1.77 0.43,-0.75 0.64,-1.6 0.64,-2.54 0,-0.94 -0.21,-1.79 -0.64,-2.55 -0.43,-0.75 -1.02,-1.34 -1.77,-1.77 -0.75,-0.42 -1.6,-0.63 -2.53,-0.63 -0.94,0 -1.79,0.21 -2.54,0.63 -0.75,0.43 -1.34,1.02 -1.77,1.77 -0.43,0.76 -0.64,1.61 -0.64,2.55 0,0.94 0.21,1.79 0.64,2.54 0.43,0.76 1.02,1.35 1.77,1.77 0.75,0.43 1.6,0.64 2.54,0.64z"/>
  <path class="fil2" d="M91.2 102.7c-1.42,0 -2.7,-0.32 -3.85,-0.94 -1.15,-0.62 -2.04,-1.48 -2.69,-2.58 -0.65,-1.1 -0.98,-2.34 -0.98,-3.73 0,-1.38 0.33,-2.62 0.99,-3.72 0.65,-1.1 1.55,-1.96 2.7,-2.58 1.15,-0.62 2.43,-0.94 3.85,-0.94 1.16,0 2.21,0.2 3.16,0.61 0.95,0.4 1.76,0.98 2.41,1.75l-1.69 1.59c-1.01,-1.1 -2.27,-1.65 -3.76,-1.65 -0.96,0 -1.83,0.21 -2.59,0.63 -0.77,0.42 -1.36,1.01 -1.79,1.76 -0.43,0.75 -0.64,1.6 -0.64,2.55 0,0.96 0.21,1.81 0.64,2.56 0.43,0.75 1.02,1.34 1.79,1.76 0.76,0.42 1.63,0.63 2.59,0.63 1.49,0 2.75,-0.55 3.76,-1.67l1.69 1.61c-0.65,0.77 -1.46,1.35 -2.42,1.75 -0.96,0.4 -2.01,0.61 -3.17,0.61z"/>
  <polygon id="1" class="fil2" points="111.82,88.41 111.82,102.49 109.2,102.49 109.2,96.46 101.92,96.46 101.92,102.49 99.31,102.49 99.31,88.41 101.92,88.41 101.92,94.23 109.2,94.23 109.2,88.41 "/>
  <polygon class="fil2" points="97.2,191.26 97.2,205.34 95.04,205.34 87.28,195.81 87.28,205.34 84.69,205.34 84.69,191.26 86.84,191.26 94.6,200.8 94.6,191.26 "/>
  <polygon class="fil2" points="97.2,259.83 97.2,273.91 95.04,273.91 87.28,264.37 87.28,273.91 84.69,273.91 84.69,259.83 86.84,259.83 94.6,269.36 94.6,259.83 "/>
  <polygon class="fil2" points="111.66,191.26 111.66,205.34 109.04,205.34 109.04,199.31 101.76,199.31 101.76,205.34 99.15,205.34 99.15,191.26 101.76,191.26 101.76,197.08 109.04,197.08 109.04,191.26 "/>
  <polygon class="fil2" points="111.66,259.83 111.66,273.91 109.04,273.91 109.04,267.87 101.76,267.87 101.76,273.91 99.15,273.91 99.15,259.83 101.76,259.83 101.76,265.64 109.04,265.64 109.04,259.83 "/>
  <path class="fil2" d="M91.2 171.27c-1.42,0 -2.7,-0.32 -3.85,-0.94 -1.15,-0.62 -2.04,-1.48 -2.69,-2.58 -0.65,-1.1 -0.98,-2.34 -0.98,-3.72 0,-1.39 0.33,-2.63 0.99,-3.73 0.65,-1.1 1.55,-1.96 2.7,-2.58 1.15,-0.62 2.43,-0.94 3.85,-0.94 1.16,0 2.21,0.21 3.16,0.61 0.95,0.4 1.76,0.98 2.41,1.75l-1.69 1.59c-1.01,-1.1 -2.27,-1.65 -3.76,-1.65 -0.96,0 -1.83,0.21 -2.59,0.63 -0.77,0.42 -1.36,1.01 -1.79,1.76 -0.43,0.75 -0.64,1.6 -0.64,2.56 0,0.95 0.21,1.8 0.64,2.55 0.43,0.75 1.02,1.34 1.79,1.76 0.76,0.42 1.63,0.63 2.59,0.63 1.49,0 2.75,-0.55 3.76,-1.67l1.69 1.61c-0.65,0.77 -1.46,1.35 -2.42,1.75 -0.96,0.41 -2.01,0.61 -3.17,0.61z"/>
  <polygon id="1" class="fil2" points="111.82,156.99 111.82,171.07 109.2,171.07 109.2,165.03 101.92,165.03 101.92,171.07 99.31,171.07 99.31,156.99 101.92,156.99 101.92,162.8 109.2,162.8 109.2,156.99 "/>
  <path class="fil2" d="M91.2 136.97c-1.42,0 -2.7,-0.31 -3.85,-0.93 -1.15,-0.62 -2.04,-1.49 -2.69,-2.59 -0.65,-1.1 -0.98,-2.34 -0.98,-3.72 0,-1.38 0.33,-2.62 0.99,-3.72 0.65,-1.1 1.55,-1.96 2.7,-2.58 1.15,-0.63 2.43,-0.94 3.85,-0.94 1.16,0 2.21,0.2 3.16,0.61 0.95,0.4 1.76,0.98 2.41,1.75l-1.69 1.58c-1.01,-1.1 -2.27,-1.65 -3.76,-1.65 -0.96,0 -1.83,0.22 -2.59,0.64 -0.77,0.42 -1.36,1.01 -1.79,1.76 -0.43,0.75 -0.64,1.6 -0.64,2.55 0,0.96 0.21,1.81 0.64,2.56 0.43,0.75 1.02,1.33 1.79,1.76 0.76,0.42 1.63,0.63 2.59,0.63 1.49,0 2.75,-0.56 3.76,-1.67l1.69 1.61c-0.65,0.76 -1.46,1.35 -2.42,1.75 -0.96,0.4 -2.01,0.6 -3.17,0.6z"/>
  <polygon id="1" class="fil2" points="111.82,122.69 111.82,136.77 109.2,136.77 109.2,130.74 101.92,130.74 101.92,136.77 99.31,136.77 99.31,122.69 101.92,122.69 101.92,128.51 109.2,128.51 109.2,122.69 "/>
  <polygon class="fil2" points="97.2,19.81 97.2,33.89 94.58,33.89 94.58,27.85 87.3,27.85 87.3,33.89 84.69,33.89 84.69,19.81 87.3,19.81 87.3,25.62 94.58,25.62 94.58,19.81 "/>
  <path class="fil2" d="M91.2 239.82c-1.42,0 -2.7,-0.31 -3.85,-0.93 -1.15,-0.62 -2.04,-1.49 -2.69,-2.59 -0.65,-1.1 -0.98,-2.34 -0.98,-3.72 0,-1.38 0.33,-2.62 0.99,-3.72 0.65,-1.1 1.55,-1.96 2.7,-2.58 1.15,-0.63 2.43,-0.94 3.85,-0.94 1.16,0 2.21,0.2 3.16,0.6 0.95,0.41 1.76,0.99 2.41,1.75l-1.69 1.59c-1.01,-1.1 -2.27,-1.65 -3.76,-1.65 -0.96,0 -1.83,0.22 -2.59,0.64 -0.77,0.42 -1.36,1.01 -1.79,1.76 -0.43,0.75 -0.64,1.6 -0.64,2.55 0,0.95 0.21,1.81 0.64,2.56 0.43,0.75 1.02,1.33 1.79,1.76 0.76,0.42 1.63,0.63 2.59,0.63 1.49,0 2.75,-0.56 3.76,-1.67l1.69 1.61c-0.65,0.76 -1.46,1.35 -2.42,1.75 -0.96,0.4 -2.01,0.6 -3.17,0.6z"/>
  <polygon class="fil2" points="65.9,55.73 62.99,55.73 62.99,58.61 61.23,58.61 61.23,55.73 58.31,55.73 58.31,54.08 61.23,54.08 61.23,51.2 62.99,51.2 62.99,54.08 65.9,54.08 "/>
  <polygon class="fil2" points="164.8,70.58 169.33,70.58 169.33,72.29 164.8,72.29 "/>
  <path class="fil2" d="M164.83 243.54l0 1.61 -7.55 0 0 -1.27 4.07 -3.86c0.46,-0.44 0.76,-0.83 0.93,-1.15 0.16,-0.33 0.24,-0.65 0.24,-0.97 0,-0.48 -0.16,-0.85 -0.49,-1.1 -0.32,-0.26 -0.79,-0.38 -1.41,-0.38 -1.05,0 -1.85,0.35 -2.4,1.07l-1.33 -1.03c0.4,-0.53 0.93,-0.95 1.61,-1.25 0.68,-0.3 1.44,-0.45 2.28,-0.45 1.11,0 2,0.27 2.66,0.79 0.66,0.53 0.99,1.25 0.99,2.16 0,0.55 -0.11,1.07 -0.35,1.56 -0.23,0.49 -0.68,1.04 -1.34,1.67l-2.74 2.6 4.83 0z"/>
  <polygon class="fil2" points="139.32,225.54 139.32,239.62 137.17,239.62 129.4,230.09 129.4,239.62 126.81,239.62 126.81,225.54 128.96,225.54 136.72,235.08 136.72,225.54 "/>
  <polygon class="fil2" points="153.78,225.54 153.78,239.62 151.17,239.62 151.17,233.59 143.88,233.59 143.88,239.62 141.27,239.62 141.27,225.54 143.88,225.54 143.88,231.36 151.17,231.36 151.17,225.54 "/>
  <polygon class="fil2" points="124.74,227.2 121.82,227.2 121.82,230.08 120.06,230.08 120.06,227.2 117.15,227.2 117.15,225.56 120.06,225.56 120.06,222.68 121.82,222.68 121.82,225.56 124.74,225.56 "/>
  <polygon class="fil2" points="90.63,72.77 90.63,83.74 89.59,83.74 89.59,72.77 "/>
  <polygon class="fil2" points="67.02,60.65 77.99,60.65 77.99,61.69 67.02,61.69 "/>
  <polygon class="fil2" points="102.01,60.65 112.98,60.65 112.98,61.69 102.01,61.69 "/>
  <polygon class="fil2" points="134.76,53.34 144.26,47.85 144.77,48.74 135.27,54.23 "/>
  <polygon class="fil2" points="136.05,55.57 145.55,50.09 146.06,50.98 136.56,56.47 "/>
  <polygon class="fil2" points="136.56,68.11 146.06,73.6 145.55,74.49 136.05,69.01 "/>
  <polygon class="fil2" points="90.63,175.62 90.63,186.59 89.59,186.59 89.59,175.62 "/>
  <polygon class="fil2" points="90.63,244.18 90.63,255.15 89.59,255.15 89.59,244.18 "/>
  <path class="fil3" d="M102.01 230.77l10.97 0 0 1.04 -10.97 0 0 -1.04zm0 2.58l10.97 0 0 1.04 -10.97 0 0 -1.04z"/>
  <polygon class="fil2" points="90.63,141.34 90.63,152.31 89.59,152.31 89.59,141.34 "/>
  <polygon class="fil2" points="90.63,38.45 90.63,49.43 89.59,49.43 89.59,38.45 "/>
  <polygon class="fil2" points="90.63,107.05 90.63,118.02 89.59,118.02 89.59,107.05 "/>
  <polygon class="fil2" points="90.63,209.9 90.63,220.87 89.59,220.87 89.59,209.9 "/>
 </g>
</svg>
