<?xml version="1.0" encoding="UTF-8"?>
<!DOCTYPE svg PUBLIC "-//W3C//DTD SVG 1.1//EN" "http://www.w3.org/Graphics/SVG/1.1/DTD/svg11.dtd">
<!-- Creator: CorelDRAW 2018 (64 Bit) -->
<svg xmlns="http://www.w3.org/2000/svg" xml:space="preserve" width="450px" height="700px" version="1.1" style="shape-rendering:geometricPrecision; text-rendering:geometricPrecision; image-rendering:optimizeQuality; fill-rule:evenodd; clip-rule:evenodd"
viewBox="0 0 4844.32 7535.61"
 xmlns:xlink="http://www.w3.org/1999/xlink">
 <defs>
  <style type="text/css">
   <![CDATA[
    .fil0 {fill:none}
    .fil2 {fill:#DAEBDE}
    .fil1 {fill:black;fill-rule:nonzero}
   ]]>
  </style>
 </defs>
 <g id="Camada_x0020_1">
  <metadata id="CorelCorpID_0Corel-Layer"/>
  <rect class="fil0" y="-0.01" width="4844.32" height="7535.61"/>
  <polygon class="fil1" points="870.48,1327.84 870.48,1673.22 806.34,1673.22 806.34,1525.2 627.73,1525.2 627.73,1673.22 563.59,1673.22 563.59,1327.84 627.73,1327.84 627.73,1470.43 806.34,1470.43 806.34,1327.84 "/>
  <path class="fil1" d="M1051.45 1661.33c23.2,2.88 40.9,10.77 53.09,23.69 12.21,12.92 18.31,29.07 18.31,48.44 0,14.59 -3.71,27.86 -11.12,39.83 -7.43,11.96 -18.61,21.47 -33.56,28.53 -14.95,7.05 -33.18,10.58 -54.72,10.58 -17.94,0 -35.22,-2.57 -51.85,-7.72 -16.62,-5.14 -30.8,-12.26 -42.52,-21.35l20.1 -36.24c9.09,7.66 20.15,13.7 33.19,18.12 13.03,4.43 26.49,6.64 40.37,6.64 16.5,0 29.48,-3.41 38.93,-10.22 9.44,-6.82 14.17,-16.09 14.17,-27.81 0,-11.72 -4.48,-20.88 -13.46,-27.45 -8.96,-6.57 -22.66,-9.87 -41.08,-9.87l-22.96 0 0 -31.94 57.05 -67.82 -114.11 0 0 -39.11 171.16 0 0 31.23 -60.99 72.47z"/>
  <polygon class="fil1" points="1494.17,1327.84 1494.17,1673.22 1441.38,1673.22 1250.94,1439.35 1250.94,1673.22 1187.29,1673.22 1187.29,1327.84 1240.08,1327.84 1430.54,1561.71 1430.54,1327.84 "/>
  <path class="fil1" d="M2357.66 1678.15c-34.87,0 -66.36,-7.64 -94.49,-22.93 -28.12,-15.3 -50.16,-36.43 -66.11,-63.41 -15.95,-26.97 -23.93,-57.4 -23.93,-91.28 0,-33.87 8.06,-64.3 24.18,-91.28 16.11,-26.97 38.23,-48.1 66.36,-63.4 28.12,-15.29 59.62,-22.95 94.48,-22.95 28.29,0 54.12,4.94 77.47,14.82 23.35,9.86 43.09,24.17 59.2,42.92l-41.44 38.97c-24.99,-26.96 -55.75,-40.46 -92.27,-40.46 -23.68,0 -44.89,5.19 -63.65,15.56 -18.74,10.34 -33.38,24.74 -43.9,43.16 -10.53,18.43 -15.79,39.3 -15.79,62.66 0,23.36 5.26,44.25 15.79,62.66 10.52,18.42 25.16,32.81 43.9,43.18 18.76,10.36 39.97,15.53 63.65,15.53 36.52,0 67.28,-13.64 92.27,-40.95l41.44 39.48c-16.11,18.74 -35.93,33.06 -59.45,42.92 -23.51,9.87 -49.42,14.8 -77.71,14.8z"/>
  <path class="fil1" d="M3215.98 1678.15c-34.87,0 -66.36,-7.64 -94.49,-22.93 -28.12,-15.3 -50.16,-36.43 -66.11,-63.41 -15.95,-26.97 -23.93,-57.4 -23.93,-91.28 0,-33.87 8.06,-64.3 24.18,-91.28 16.11,-26.97 38.23,-48.1 66.36,-63.4 28.12,-15.29 59.62,-22.95 94.48,-22.95 28.29,0 54.12,4.94 77.47,14.82 23.35,9.86 43.09,24.17 59.2,42.92l-41.43 38.97c-25,-26.96 -55.76,-40.46 -92.27,-40.46 -23.69,0 -44.9,5.19 -63.65,15.56 -18.75,10.34 -33.39,24.74 -43.91,43.16 -10.53,18.43 -15.79,39.3 -15.79,62.66 0,23.36 5.26,44.25 15.79,62.66 10.52,18.42 25.16,32.81 43.91,43.18 18.75,10.36 39.96,15.53 63.65,15.53 36.51,0 67.27,-13.64 92.27,-40.95l41.43 39.48c-16.11,18.74 -35.93,33.06 -59.45,42.92 -23.51,9.87 -49.42,14.8 -77.71,14.8z"/>
  <path class="fil1" d="M3951.97 1260.45c-35.2,0 -66.94,-7.64 -95.22,-22.94 -28.29,-15.29 -50.5,-36.51 -66.61,-63.65 -16.13,-27.14 -24.19,-57.48 -24.19,-91.03 0,-33.55 8.06,-63.9 24.19,-91.03 16.11,-27.15 38.32,-48.35 66.61,-63.65 28.28,-15.3 60.02,-22.95 95.22,-22.95 35.19,0 66.93,7.65 95.22,22.95 28.29,15.3 50.49,36.43 66.61,63.4 16.12,26.98 24.17,57.4 24.17,91.28 0,33.88 -8.05,64.31 -24.17,91.27 -16.12,26.98 -38.32,48.12 -66.61,63.41 -28.29,15.3 -60.03,22.94 -95.22,22.94zm0 -56.25c23.03,0 43.75,-5.17 62.16,-15.54 18.43,-10.36 32.89,-24.83 43.42,-43.42 10.53,-18.59 15.79,-39.39 15.79,-62.41 0,-23.03 -5.26,-43.83 -15.79,-62.42 -10.53,-18.58 -24.99,-33.06 -43.42,-43.41 -18.41,-10.36 -39.13,-15.55 -62.16,-15.55 -23.03,0 -43.75,5.19 -62.18,15.55 -18.41,10.35 -32.89,24.83 -43.4,43.41 -10.53,18.59 -15.8,39.39 -15.8,62.42 0,23.02 5.27,43.82 15.8,62.41 10.51,18.59 24.99,33.06 43.4,43.42 18.43,10.37 39.15,15.54 62.18,15.54z"/>
  <path class="fil1" d="M3951.97 2095.87c-35.2,0 -66.94,-7.64 -95.22,-22.94 -28.29,-15.29 -50.5,-36.51 -66.61,-63.65 -16.13,-27.14 -24.19,-57.48 -24.19,-91.03 0,-33.54 8.06,-63.89 24.19,-91.03 16.11,-27.14 38.32,-48.35 66.61,-63.65 28.28,-15.29 60.02,-22.95 95.22,-22.95 35.19,0 66.93,7.66 95.22,22.95 28.29,15.3 50.49,36.43 66.61,63.4 16.12,26.98 24.17,57.41 24.17,91.28 0,33.88 -8.05,64.31 -24.17,91.28 -16.12,26.98 -38.32,48.11 -66.61,63.4 -28.29,15.3 -60.03,22.94 -95.22,22.94zm0 -56.25c23.03,0 43.75,-5.17 62.16,-15.54 18.43,-10.36 32.89,-24.83 43.42,-43.42 10.53,-18.59 15.79,-39.39 15.79,-62.41 0,-23.03 -5.26,-43.83 -15.79,-62.42 -10.53,-18.58 -24.99,-33.06 -43.42,-43.41 -18.41,-10.36 -39.13,-15.55 -62.16,-15.55 -23.03,0 -43.75,5.19 -62.18,15.55 -18.41,10.35 -32.89,24.83 -43.4,43.41 -10.53,18.59 -15.8,39.39 -15.8,62.42 0,23.02 5.27,43.82 15.8,62.41 10.51,18.59 24.99,33.06 43.4,43.42 18.43,10.37 39.15,15.54 62.18,15.54z"/>
  <polygon class="fil1" points="2504.69,485.89 2504.69,831.28 2440.56,831.28 2440.56,683.25 2261.94,683.25 2261.94,831.28 2197.81,831.28 2197.81,485.89 2261.94,485.89 2261.94,628.49 2440.56,628.49 2440.56,485.89 "/>
  <polygon class="fil1" points="1737,1367 1665.54,1367 1665.54,1437.64 1622.35,1437.64 1622.35,1367 1550.91,1367 1550.91,1326.63 1622.35,1326.63 1622.35,1255.99 1665.54,1255.99 1665.54,1326.63 1737,1326.63 "/>
  <polygon class="fil1" points="4163.05,1731.3 4274.06,1731.3 4274.06,1773.29 4163.05,1773.29 "/>
  <polygon class="fil1" points="1764.48,1487.82 2033.62,1487.82 2033.62,1513.24 1764.48,1513.24 "/>
  <polygon class="fil1" points="2622.8,1487.82 2891.94,1487.82 2891.94,1513.24 2622.8,1513.24 "/>
  <rect class="fil2" x="1053.96" y="1919.59" width="2646.02" height="2599.31" rx="164.37" ry="74.33"/>
  <polygon class="fil1" points="3426.09,1308.33 3659.17,1173.77 3671.79,1195.72 3438.7,1330.28 "/>
  <polygon class="fil1" points="3457.75,1363.17 3690.83,1228.61 3703.45,1250.56 3470.36,1385.12 "/>
  <polygon class="fil1" points="3470.36,1670.79 3703.45,1805.35 3690.83,1827.3 3457.75,1692.74 "/>
  <polygon class="fil1" points="2343.49,943.28 2343.49,1212.43 2318.06,1212.43 2318.06,943.28 "/>
  <path class="fil1" d="M3127.24 2610.35l0 39.46 -185.15 0 0 -31.21 99.75 -94.74c11.24,-10.75 18.84,-20.15 22.78,-28.16 3.95,-8.01 5.93,-15.97 5.93,-23.87 0,-11.72 -3.96,-20.68 -11.84,-26.9 -7.9,-6.22 -19.51,-9.33 -34.81,-9.33 -25.6,0 -45.22,8.73 -58.85,26.19l-32.65 -25.11c9.8,-13.16 23.03,-23.38 39.64,-30.68 16.64,-7.3 35.24,-10.95 55.81,-10.95 27.26,0 49.03,6.46 65.3,19.38 16.26,12.92 24.4,30.5 24.4,52.75 0,13.63 -2.87,26.42 -8.62,38.39 -5.73,11.96 -16.73,25.59 -33.01,40.9l-67.09 63.88 118.41 0z"/>
  <path class="fil1" d="M2357.66 2519.16c-34.87,0 -66.36,-7.64 -94.49,-22.94 -28.12,-15.29 -50.16,-36.43 -66.11,-63.41 -15.95,-26.97 -23.93,-57.39 -23.93,-91.28 0,-33.87 8.06,-64.3 24.18,-91.28 16.11,-26.96 38.23,-48.1 66.36,-63.39 28.12,-15.3 59.62,-22.95 94.48,-22.95 28.29,0 54.12,4.93 77.47,14.81 23.35,9.87 43.09,24.17 59.2,42.93l-41.44 38.97c-24.99,-26.97 -55.75,-40.46 -92.27,-40.46 -23.68,0 -44.89,5.19 -63.65,15.55 -18.74,10.35 -33.38,24.74 -43.9,43.17 -10.53,18.42 -15.79,39.3 -15.79,62.65 0,23.36 5.26,44.25 15.79,62.66 10.52,18.43 25.16,32.82 43.9,43.18 18.76,10.36 39.97,15.54 63.65,15.54 36.52,0 67.28,-13.64 92.27,-40.96l41.44 39.48c-16.11,18.74 -35.93,33.06 -59.45,42.93 -23.51,9.86 -49.42,14.8 -77.71,14.8z"/>
  <polygon id="1" class="fil1" points="2863.38,2168.84 2863.38,2514.22 2799.25,2514.22 2799.25,2366.2 2620.63,2366.2 2620.63,2514.22 2556.5,2514.22 2556.5,2168.84 2620.63,2168.84 2620.63,2311.44 2799.25,2311.44 2799.25,2168.84 "/>
  <path class="fil1" d="M2357.66 3360.01c-34.87,0 -66.36,-7.64 -94.49,-22.94 -28.12,-15.29 -50.16,-36.43 -66.11,-63.41 -15.95,-26.96 -23.93,-57.39 -23.93,-91.28 0,-33.87 8.06,-64.29 24.18,-91.27 16.11,-26.97 38.23,-48.1 66.36,-63.4 28.12,-15.3 59.62,-22.95 94.48,-22.95 28.29,0 54.12,4.93 77.47,14.81 23.35,9.87 43.09,24.17 59.2,42.93l-41.44 38.97c-24.99,-26.97 -55.75,-40.46 -92.27,-40.46 -23.68,0 -44.89,5.19 -63.65,15.55 -18.74,10.35 -33.38,24.74 -43.9,43.17 -10.53,18.42 -15.79,39.3 -15.79,62.65 0,23.36 5.26,44.25 15.79,62.66 10.52,18.43 25.16,32.82 43.9,43.18 18.76,10.36 39.97,15.54 63.65,15.54 36.52,0 67.28,-13.64 92.27,-40.95l41.44 39.47c-16.11,18.75 -35.93,33.06 -59.45,42.93 -23.51,9.87 -49.42,14.8 -77.71,14.8z"/>
  <polygon id="1" class="fil1" points="2863.38,3009.69 2863.38,3355.08 2799.25,3355.08 2799.25,3207.05 2620.63,3207.05 2620.63,3355.08 2556.5,3355.08 2556.5,3009.69 2620.63,3009.69 2620.63,3152.29 2799.25,3152.29 2799.25,3009.69 "/>
  <polygon class="fil1" points="2343.49,1785.02 2343.49,2054.17 2318.06,2054.17 2318.06,1785.02 "/>
  <polygon class="fil1" points="2343.49,2625.87 2343.49,2895.02 2318.06,2895.02 2318.06,2625.87 "/>
  <path class="fil1" d="M3446.06 4083.54c23.21,2.88 40.91,10.76 53.11,23.68 12.2,12.91 18.3,29.06 18.3,48.44 0,14.6 -3.71,27.87 -11.13,39.83 -7.41,11.97 -18.6,21.48 -33.55,28.54 -14.94,7.05 -33.19,10.58 -54.71,10.58 -17.94,0 -35.24,-2.57 -51.85,-7.72 -16.63,-5.14 -30.81,-12.26 -42.53,-21.35l20.1 -36.24c9.09,7.66 20.15,13.7 33.18,18.12 13.05,4.43 26.5,6.64 40.37,6.64 16.51,0 29.49,-3.41 38.94,-10.22 9.44,-6.82 14.17,-16.09 14.17,-27.81 0,-11.72 -4.49,-20.88 -13.45,-27.45 -8.98,-6.59 -22.67,-9.87 -41.09,-9.87l-22.97 0 0 -31.94 57.05 -67.82 -114.1 0 0 -39.11 171.17 0 0 31.21 -61.01 72.49z"/>
  <path class="fil1" d="M2751.48 4100.36c-34.86,0 -66.36,-7.64 -94.48,-22.93 -28.13,-15.3 -50.17,-36.44 -66.12,-63.41 -15.95,-26.97 -23.94,-57.4 -23.94,-91.28 0,-33.89 8.06,-64.31 24.18,-91.28 16.13,-26.98 38.24,-48.11 66.36,-63.41 28.13,-15.3 59.62,-22.94 94.5,-22.94 28.29,0 54.1,4.94 77.46,14.8 23.35,9.87 43.09,24.17 59.21,42.93l-41.45 38.98c-25,-26.98 -55.76,-40.46 -92.26,-40.46 -23.69,0 -44.91,5.18 -63.65,15.54 -18.75,10.36 -33.39,24.76 -43.92,43.18 -10.52,18.41 -15.79,39.3 -15.79,62.66 0,23.36 5.27,44.25 15.79,62.66 10.53,18.42 25.17,32.81 43.92,43.18 18.74,10.36 39.96,15.53 63.65,15.53 36.5,0 67.26,-13.64 92.26,-40.95l41.45 39.48c-16.12,18.74 -35.93,33.06 -59.46,42.92 -23.52,9.87 -49.42,14.8 -77.71,14.8z"/>
  <polygon id="1" class="fil1" points="3257.22,3750.05 3257.22,4095.43 3193.08,4095.43 3193.08,3947.4 3014.47,3947.4 3014.47,4095.43 2950.33,4095.43 2950.33,3750.05 3014.47,3750.05 3014.47,3892.64 3193.08,3892.64 3193.08,3750.05 "/>
  <path class="fil1" d="M1735.23 4083.54c23.21,2.88 40.9,10.76 53.11,23.68 12.19,12.91 18.3,29.06 18.3,48.44 0,14.6 -3.72,27.87 -11.13,39.83 -7.41,11.97 -18.6,21.48 -33.55,28.54 -14.94,7.05 -33.19,10.58 -54.71,10.58 -17.94,0 -35.24,-2.57 -51.85,-7.72 -16.64,-5.14 -30.81,-12.26 -42.54,-21.35l20.11 -36.24c9.09,7.66 20.15,13.7 33.18,18.12 13.05,4.43 26.5,6.64 40.37,6.64 16.5,0 29.49,-3.41 38.93,-10.22 9.45,-6.82 14.18,-16.09 14.18,-27.81 0,-11.72 -4.49,-20.88 -13.45,-27.45 -8.98,-6.59 -22.67,-9.87 -41.1,-9.87l-22.96 0 0 -31.94 57.05 -67.82 -114.1 0 0 -39.11 171.17 0 0 31.21 -61.01 72.49z"/>
  <polygon class="fil1" points="1542.45,3750.05 1542.45,4095.43 1478.3,4095.43 1478.3,3947.4 1299.7,3947.4 1299.7,4095.43 1235.55,4095.43 1235.55,3750.05 1299.7,3750.05 1299.7,3892.64 1478.3,3892.64 1478.3,3750.05 "/>
  <path class="fil1" d="M2024.49 4100.36c-34.86,0 -66.36,-7.64 -94.48,-22.93 -28.13,-15.3 -50.17,-36.44 -66.12,-63.41 -15.96,-26.97 -23.94,-57.4 -23.94,-91.28 0,-33.89 8.06,-64.31 24.18,-91.28 16.13,-26.98 38.24,-48.11 66.36,-63.41 28.13,-15.3 59.62,-22.94 94.5,-22.94 28.29,0 54.1,4.94 77.46,14.8 23.35,9.87 43.09,24.17 59.21,42.93l-41.45 38.98c-25,-26.98 -55.76,-40.46 -92.26,-40.46 -23.69,0 -44.91,5.18 -63.65,15.54 -18.75,10.36 -33.39,24.76 -43.92,43.18 -10.52,18.41 -15.79,39.3 -15.79,62.66 0,23.36 5.27,44.25 15.79,62.66 10.53,18.42 25.17,32.81 43.92,43.18 18.74,10.36 39.96,15.53 63.65,15.53 36.5,0 67.26,-13.64 92.26,-40.95l41.45 39.48c-16.12,18.74 -35.93,33.06 -59.46,42.92 -23.52,9.87 -49.42,14.8 -77.71,14.8z"/>
  <g id="_2458941143360">
   <polygon class="fil1" points="2493.63,3429.25 2628.19,3662.34 2606.24,3674.95 2471.68,3441.87 "/>
   <polygon class="fil1" points="2186.01,3441.87 2051.45,3674.95 2029.5,3662.34 2164.06,3429.25 "/>
  </g>
 </g>
</svg>
