<?xml version="1.0" encoding="UTF-8"?>
<!DOCTYPE svg PUBLIC "-//W3C//DTD SVG 1.1//EN" "http://www.w3.org/Graphics/SVG/1.1/DTD/svg11.dtd">
<!-- Creator: CorelDRAW 2018 (64 Bit) -->
<svg xmlns="http://www.w3.org/2000/svg" xml:space="preserve" width="450px" height="700px" version="1.1" style="shape-rendering:geometricPrecision; text-rendering:geometricPrecision; image-rendering:optimizeQuality; fill-rule:evenodd; clip-rule:evenodd"
viewBox="0 0 69.61 108.28"
 xmlns:xlink="http://www.w3.org/1999/xlink">
 <defs>
  <style type="text/css">
   <![CDATA[
    .fil0 {fill:none}
    .fil1 {fill:#DAEBDE}
    .fil2 {fill:black;fill-rule:nonzero}
   ]]>
  </style>
 </defs>
 <g id="Camada_x0020_1">
  <metadata id="CorelCorpID_0Corel-Layer"/>
  <rect class="fil0" width="69.61" height="108.28"/>
  <rect class="fil1" x="24.08" y="27.58" width="26.11" height="50.55" rx="2.32" ry="2.07"/>
  <polygon class="fil2" points="12.51,19.08 12.51,24.04 11.59,24.04 11.59,21.92 9.02,21.92 9.02,24.04 8.1,24.04 8.1,19.08 9.02,19.08 9.02,21.13 11.59,21.13 11.59,19.08 "/>
  <path class="fil2" d="M15.11 23.87c0.33,0.04 0.59,0.16 0.76,0.34 0.18,0.19 0.26,0.42 0.26,0.7 0,0.21 -0.05,0.4 -0.16,0.57 -0.1,0.17 -0.26,0.31 -0.48,0.41 -0.21,0.1 -0.47,0.15 -0.78,0.15 -0.26,0 -0.51,-0.03 -0.75,-0.11 -0.24,-0.07 -0.44,-0.17 -0.61,-0.3l0.29 -0.52c0.13,0.11 0.29,0.19 0.48,0.26 0.18,0.06 0.38,0.09 0.58,0.09 0.23,0 0.42,-0.05 0.56,-0.15 0.13,-0.09 0.2,-0.23 0.2,-0.4 0,-0.16 -0.07,-0.3 -0.19,-0.39 -0.13,-0.09 -0.33,-0.14 -0.59,-0.14l-0.33 0 0 -0.46 0.81 -0.98 -1.63 0 0 -0.56 2.45 0 0 0.45 -0.87 1.04z"/>
  <path class="fil2" d="M44.94 37.51l0 0.57 -2.66 0 0 -0.45 1.43 -1.36c0.16,-0.16 0.27,-0.29 0.33,-0.41 0.05,-0.11 0.08,-0.23 0.08,-0.34 0,-0.17 -0.05,-0.3 -0.17,-0.39 -0.11,-0.09 -0.28,-0.13 -0.5,-0.13 -0.37,0 -0.65,0.12 -0.84,0.38l-0.47 -0.37c0.14,-0.18 0.33,-0.33 0.57,-0.44 0.24,-0.1 0.5,-0.15 0.8,-0.15 0.39,0 0.7,0.09 0.94,0.27 0.23,0.19 0.35,0.44 0.35,0.76 0,0.2 -0.04,0.38 -0.13,0.55 -0.08,0.18 -0.24,0.37 -0.47,0.59l-0.96 0.92 1.7 0z"/>
  <path class="fil2" d="M44.94 49.59l0 0.57 -2.66 0 0 -0.45 1.43 -1.36c0.16,-0.15 0.27,-0.29 0.33,-0.4 0.05,-0.12 0.08,-0.23 0.08,-0.35 0,-0.17 -0.05,-0.3 -0.17,-0.38 -0.11,-0.09 -0.28,-0.14 -0.5,-0.14 -0.37,0 -0.65,0.13 -0.84,0.38l-0.47 -0.36c0.14,-0.19 0.33,-0.34 0.57,-0.44 0.24,-0.11 0.5,-0.16 0.8,-0.16 0.39,0 0.7,0.09 0.94,0.28 0.23,0.18 0.35,0.44 0.35,0.76 0,0.19 -0.04,0.38 -0.13,0.55 -0.08,0.17 -0.24,0.36 -0.47,0.58l-0.96 0.92 1.7 0z"/>
  <path class="fil2" d="M43.86 72.21c0.33,0.04 0.59,0.16 0.76,0.34 0.18,0.19 0.27,0.42 0.27,0.7 0,0.21 -0.06,0.4 -0.16,0.57 -0.11,0.17 -0.27,0.31 -0.49,0.41 -0.21,0.1 -0.47,0.15 -0.78,0.15 -0.26,0 -0.51,-0.03 -0.75,-0.11 -0.24,-0.07 -0.44,-0.18 -0.61,-0.31l0.29 -0.52c0.13,0.11 0.29,0.2 0.48,0.26 0.18,0.07 0.38,0.1 0.58,0.1 0.23,0 0.42,-0.05 0.56,-0.15 0.13,-0.1 0.2,-0.23 0.2,-0.4 0,-0.17 -0.06,-0.3 -0.19,-0.39 -0.13,-0.1 -0.33,-0.14 -0.59,-0.14l-0.33 0 0 -0.46 0.82 -0.98 -1.64 0 0 -0.56 2.46 0 0 0.45 -0.88 1.04z"/>
  <polygon class="fil2" points="21.47,19.08 21.47,24.04 20.71,24.04 17.97,20.68 17.97,24.04 17.06,24.04 17.06,19.08 17.82,19.08 20.56,22.44 20.56,19.08 "/>
  <path class="fil2" d="M33.88 24.11c-0.5,0 -0.96,-0.11 -1.36,-0.33 -0.4,-0.21 -0.72,-0.52 -0.95,-0.91 -0.23,-0.38 -0.34,-0.82 -0.34,-1.31 0,-0.48 0.11,-0.92 0.34,-1.31 0.24,-0.39 0.55,-0.69 0.96,-0.91 0.4,-0.22 0.85,-0.33 1.36,-0.33 0.4,0 0.77,0.07 1.11,0.21 0.33,0.14 0.62,0.35 0.85,0.62l-0.6 0.56c-0.36,-0.39 -0.8,-0.58 -1.32,-0.58 -0.34,0 -0.65,0.07 -0.92,0.22 -0.27,0.15 -0.48,0.36 -0.63,0.62 -0.15,0.27 -0.22,0.57 -0.22,0.9 0,0.34 0.07,0.64 0.22,0.9 0.15,0.27 0.36,0.47 0.63,0.62 0.27,0.15 0.58,0.23 0.92,0.23 0.52,0 0.96,-0.2 1.32,-0.59l0.6 0.57c-0.23,0.26 -0.52,0.47 -0.86,0.61 -0.33,0.14 -0.71,0.21 -1.11,0.21z"/>
  <path class="fil2" d="M46.21 24.11c-0.5,0 -0.95,-0.11 -1.36,-0.33 -0.4,-0.21 -0.72,-0.52 -0.95,-0.91 -0.22,-0.38 -0.34,-0.82 -0.34,-1.31 0,-0.48 0.12,-0.92 0.35,-1.31 0.23,-0.39 0.55,-0.69 0.95,-0.91 0.41,-0.22 0.86,-0.33 1.36,-0.33 0.41,0 0.78,0.07 1.11,0.21 0.34,0.14 0.62,0.35 0.85,0.62l-0.59 0.56c-0.36,-0.39 -0.8,-0.58 -1.33,-0.58 -0.34,0 -0.64,0.07 -0.91,0.22 -0.27,0.15 -0.48,0.36 -0.63,0.62 -0.16,0.27 -0.23,0.57 -0.23,0.9 0,0.34 0.07,0.64 0.23,0.9 0.15,0.27 0.36,0.47 0.63,0.62 0.27,0.15 0.57,0.23 0.91,0.23 0.53,0 0.97,-0.2 1.33,-0.59l0.59 0.57c-0.23,0.26 -0.51,0.47 -0.85,0.61 -0.34,0.14 -0.71,0.21 -1.12,0.21z"/>
  <path class="fil2" d="M56.79 18.11c-0.51,0 -0.96,-0.11 -1.37,-0.33 -0.41,-0.22 -0.73,-0.52 -0.96,-0.91 -0.23,-0.39 -0.35,-0.83 -0.35,-1.31 0,-0.48 0.12,-0.92 0.35,-1.31 0.23,-0.39 0.55,-0.69 0.96,-0.91 0.41,-0.22 0.86,-0.33 1.37,-0.33 0.5,0 0.96,0.11 1.37,0.33 0.4,0.22 0.72,0.52 0.95,0.91 0.24,0.39 0.35,0.82 0.35,1.31 0,0.49 -0.11,0.92 -0.35,1.31 -0.23,0.39 -0.55,0.69 -0.95,0.91 -0.41,0.22 -0.87,0.33 -1.37,0.33zm0 -0.81c0.33,0 0.63,-0.07 0.89,-0.22 0.27,-0.15 0.47,-0.36 0.63,-0.62 0.15,-0.27 0.22,-0.57 0.22,-0.9 0,-0.33 -0.07,-0.63 -0.22,-0.9 -0.16,-0.26 -0.36,-0.47 -0.63,-0.62 -0.26,-0.15 -0.56,-0.22 -0.89,-0.22 -0.33,0 -0.63,0.07 -0.9,0.22 -0.26,0.15 -0.47,0.36 -0.62,0.62 -0.15,0.27 -0.23,0.57 -0.23,0.9 0,0.33 0.08,0.63 0.23,0.9 0.15,0.26 0.36,0.47 0.62,0.62 0.27,0.15 0.57,0.22 0.9,0.22z"/>
  <path class="fil2" d="M56.79 30.12c-0.51,0 -0.96,-0.11 -1.37,-0.33 -0.41,-0.22 -0.73,-0.53 -0.96,-0.92 -0.23,-0.39 -0.35,-0.82 -0.35,-1.31 0,-0.48 0.12,-0.91 0.35,-1.3 0.23,-0.39 0.55,-0.7 0.96,-0.92 0.41,-0.22 0.86,-0.33 1.37,-0.33 0.5,0 0.96,0.11 1.37,0.33 0.4,0.22 0.72,0.53 0.95,0.91 0.24,0.39 0.35,0.83 0.35,1.31 0,0.49 -0.11,0.93 -0.35,1.32 -0.23,0.38 -0.55,0.69 -0.95,0.91 -0.41,0.22 -0.87,0.33 -1.37,0.33zm0 -0.81c0.33,0 0.63,-0.08 0.89,-0.22 0.27,-0.15 0.47,-0.36 0.63,-0.63 0.15,-0.27 0.22,-0.56 0.22,-0.9 0,-0.33 -0.07,-0.63 -0.22,-0.89 -0.16,-0.27 -0.36,-0.48 -0.63,-0.63 -0.26,-0.15 -0.56,-0.22 -0.89,-0.22 -0.33,0 -0.63,0.07 -0.9,0.22 -0.26,0.15 -0.47,0.36 -0.62,0.63 -0.15,0.26 -0.23,0.56 -0.23,0.89 0,0.34 0.08,0.63 0.23,0.9 0.15,0.27 0.36,0.48 0.62,0.63 0.27,0.14 0.57,0.22 0.9,0.22z"/>
  <path class="fil2" d="M33.88 36.2c-0.5,0 -0.96,-0.11 -1.36,-0.33 -0.4,-0.22 -0.72,-0.52 -0.95,-0.91 -0.23,-0.39 -0.34,-0.83 -0.34,-1.31 0,-0.49 0.11,-0.93 0.34,-1.31 0.24,-0.39 0.55,-0.7 0.96,-0.92 0.4,-0.22 0.85,-0.33 1.36,-0.33 0.4,0 0.77,0.08 1.11,0.22 0.33,0.14 0.62,0.34 0.85,0.61l-0.6 0.56c-0.36,-0.38 -0.8,-0.58 -1.32,-0.58 -0.34,0 -0.65,0.08 -0.92,0.23 -0.27,0.15 -0.48,0.35 -0.63,0.62 -0.15,0.26 -0.22,0.56 -0.22,0.9 0,0.33 0.07,0.63 0.22,0.9 0.15,0.26 0.36,0.47 0.63,0.62 0.27,0.15 0.58,0.22 0.92,0.22 0.52,0 0.96,-0.19 1.32,-0.59l0.6 0.57c-0.23,0.27 -0.52,0.48 -0.86,0.62 -0.33,0.14 -0.71,0.21 -1.11,0.21z"/>
  <polygon id="1" class="fil2" points="41.15,31.17 41.15,36.13 40.22,36.13 40.22,34 37.66,34 37.66,36.13 36.74,36.13 36.74,31.17 37.66,31.17 37.66,33.21 40.22,33.21 40.22,31.17 "/>
  <path class="fil2" d="M33.12 60.37c-0.38,0 -0.75,-0.05 -1.11,-0.16 -0.36,-0.11 -0.64,-0.26 -0.85,-0.44l0.32 -0.71c0.21,0.16 0.45,0.29 0.75,0.39 0.3,0.1 0.59,0.15 0.89,0.15 0.37,0 0.64,-0.05 0.83,-0.17 0.18,-0.12 0.27,-0.28 0.27,-0.47 0,-0.14 -0.05,-0.26 -0.15,-0.35 -0.11,-0.09 -0.23,-0.17 -0.39,-0.22 -0.16,-0.05 -0.37,-0.11 -0.64,-0.18 -0.38,-0.09 -0.68,-0.17 -0.92,-0.26 -0.23,-0.09 -0.43,-0.24 -0.6,-0.43 -0.17,-0.19 -0.25,-0.45 -0.25,-0.77 0,-0.28 0.07,-0.53 0.22,-0.75 0.15,-0.23 0.38,-0.4 0.68,-0.54 0.3,-0.13 0.66,-0.19 1.1,-0.19 0.3,0 0.6,0.03 0.89,0.11 0.29,0.07 0.55,0.18 0.76,0.32l-0.29 0.72c-0.22,-0.13 -0.44,-0.22 -0.68,-0.29 -0.24,-0.07 -0.47,-0.1 -0.69,-0.1 -0.36,0 -0.63,0.06 -0.81,0.19 -0.18,0.12 -0.27,0.28 -0.27,0.48 0,0.15 0.05,0.26 0.16,0.35 0.1,0.09 0.23,0.16 0.38,0.21 0.16,0.06 0.37,0.12 0.64,0.18 0.37,0.09 0.67,0.18 0.91,0.27 0.23,0.09 0.44,0.23 0.6,0.42 0.17,0.19 0.26,0.44 0.26,0.77 0,0.27 -0.08,0.52 -0.23,0.74 -0.15,0.22 -0.37,0.4 -0.67,0.53 -0.31,0.13 -0.68,0.2 -1.11,0.2z"/>
  <path class="fil2" d="M33.88 48.28c-0.5,0 -0.96,-0.11 -1.36,-0.33 -0.4,-0.22 -0.72,-0.52 -0.95,-0.91 -0.23,-0.39 -0.34,-0.82 -0.34,-1.31 0,-0.49 0.11,-0.92 0.34,-1.31 0.24,-0.39 0.55,-0.69 0.96,-0.91 0.4,-0.22 0.85,-0.33 1.36,-0.33 0.4,0 0.77,0.07 1.11,0.21 0.33,0.14 0.62,0.35 0.85,0.62l-0.6 0.56c-0.36,-0.39 -0.8,-0.58 -1.32,-0.58 -0.34,0 -0.65,0.07 -0.92,0.22 -0.27,0.15 -0.48,0.35 -0.63,0.62 -0.15,0.26 -0.22,0.56 -0.22,0.9 0,0.34 0.07,0.64 0.22,0.9 0.15,0.27 0.36,0.47 0.63,0.62 0.27,0.15 0.58,0.22 0.92,0.22 0.52,0 0.96,-0.19 1.32,-0.58l0.6 0.56c-0.23,0.27 -0.52,0.48 -0.86,0.62 -0.33,0.14 -0.71,0.21 -1.11,0.21z"/>
  <polygon id="1" class="fil2" points="41.15,43.25 41.15,48.21 40.22,48.21 40.22,46.08 37.66,46.08 37.66,48.21 36.74,48.21 36.74,43.25 37.66,43.25 37.66,45.3 40.22,45.3 40.22,43.25 "/>
  <polygon class="fil2" points="35.99,6.98 35.99,11.95 35.07,11.95 35.07,9.82 32.5,9.82 32.5,11.95 31.58,11.95 31.58,6.98 32.5,6.98 32.5,9.03 35.07,9.03 35.07,6.98 "/>
  <path class="fil2" d="M33.88 72.45c-0.5,0 -0.96,-0.11 -1.36,-0.33 -0.4,-0.22 -0.72,-0.52 -0.95,-0.91 -0.23,-0.39 -0.34,-0.82 -0.34,-1.31 0,-0.49 0.11,-0.92 0.34,-1.31 0.24,-0.39 0.55,-0.69 0.96,-0.91 0.4,-0.22 0.85,-0.33 1.36,-0.33 0.4,0 0.77,0.07 1.11,0.21 0.33,0.14 0.62,0.35 0.85,0.62l-0.6 0.56c-0.36,-0.39 -0.8,-0.58 -1.32,-0.58 -0.34,0 -0.65,0.07 -0.92,0.22 -0.27,0.15 -0.48,0.36 -0.63,0.62 -0.15,0.26 -0.22,0.56 -0.22,0.9 0,0.34 0.07,0.64 0.22,0.9 0.15,0.27 0.36,0.47 0.63,0.62 0.27,0.15 0.58,0.22 0.92,0.22 0.52,0 0.96,-0.19 1.32,-0.58l0.6 0.56c-0.23,0.27 -0.52,0.48 -0.86,0.62 -0.33,0.14 -0.71,0.21 -1.11,0.21z"/>
  <polygon id="1" class="fil2" points="41.15,67.42 41.15,72.38 40.22,72.38 40.22,70.26 37.66,70.26 37.66,72.38 36.74,72.38 36.74,67.42 37.66,67.42 37.66,69.47 40.22,69.47 40.22,67.42 "/>
  <polygon class="fil2" points="24.96,19.64 23.93,19.64 23.93,20.66 23.31,20.66 23.31,19.64 22.29,19.64 22.29,19.06 23.31,19.06 23.31,18.05 23.93,18.05 23.93,19.06 24.96,19.06 "/>
  <polygon class="fil2" points="59.82,24.88 61.42,24.88 61.42,25.48 59.82,25.48 "/>
  <polygon class="fil2" points="33.67,25.65 33.67,29.52 33.31,29.52 33.31,25.65 "/>
  <polygon class="fil2" points="25.35,21.38 29.22,21.38 29.22,21.74 25.35,21.74 "/>
  <polygon class="fil2" points="37.69,21.38 41.56,21.38 41.56,21.74 37.69,21.74 "/>
  <polygon class="fil2" points="49.23,18.8 52.58,16.87 52.76,17.18 49.41,19.12 "/>
  <polygon class="fil2" points="49.69,19.59 53.04,17.65 53.22,17.97 49.87,19.9 "/>
  <polygon class="fil2" points="49.87,24.01 53.22,25.94 53.04,26.26 49.69,24.32 "/>
  <polygon class="fil2" points="33.67,49.82 33.67,53.69 33.31,53.69 33.31,49.82 "/>
  <polygon class="fil2" points="33.67,13.55 33.67,17.42 33.31,17.42 33.31,13.55 "/>
  <polygon class="fil2" points="33.67,37.73 33.67,41.6 33.31,41.6 33.31,37.73 "/>
  <polygon class="fil2" points="33.67,61.9 33.67,65.77 33.31,65.77 33.31,61.9 "/>
 </g>
</svg>
