<?xml version="1.0" encoding="UTF-8"?>
<!DOCTYPE svg PUBLIC "-//W3C//DTD SVG 1.1//EN" "http://www.w3.org/Graphics/SVG/1.1/DTD/svg11.dtd">
<!-- Creator: CorelDRAW 2018 (64 Bit) -->
<svg xmlns="http://www.w3.org/2000/svg" xml:space="preserve" width="450px" height="700px" version="1.1" style="shape-rendering:geometricPrecision; text-rendering:geometricPrecision; image-rendering:optimizeQuality; fill-rule:evenodd; clip-rule:evenodd"
viewBox="0 0 197.48 307.2"
 xmlns:xlink="http://www.w3.org/1999/xlink">
 <defs>
  <style type="text/css">
   <![CDATA[
    .fil0 {fill:none}
    .fil1 {fill:#F6ECD8}
    .fil2 {fill:black;fill-rule:nonzero}
   ]]>
  </style>
 </defs>
 <g id="Camada_x0020_1">
  <metadata id="CorelCorpID_0Corel-Layer"/>
  <rect class="fil0" width="197.48" height="307.2"/>
  <rect class="fil1" x="38.8" y="78.25" width="99.29" height="103.19" rx="6.58" ry="3.15"/>
  <polygon class="fil2" points="35.49,54.13 35.49,68.21 32.87,68.21 32.87,62.18 25.59,62.18 25.59,68.21 22.98,68.21 22.98,54.13 25.59,54.13 25.59,59.94 32.87,59.94 32.87,54.13 "/>
  <path class="fil2" d="M42.86 67.73c0.95,0.11 1.67,0.43 2.17,0.96 0.5,0.53 0.74,1.19 0.74,1.98 0,0.59 -0.15,1.13 -0.45,1.62 -0.3,0.49 -0.76,0.88 -1.37,1.16 -0.61,0.29 -1.35,0.43 -2.23,0.43 -0.73,0 -1.43,-0.1 -2.11,-0.31 -0.68,-0.21 -1.26,-0.5 -1.73,-0.87l0.81 -1.48c0.38,0.31 0.83,0.56 1.36,0.74 0.53,0.18 1.08,0.27 1.64,0.27 0.68,0 1.21,-0.14 1.59,-0.42 0.39,-0.27 0.58,-0.65 0.58,-1.13 0,-0.48 -0.18,-0.85 -0.55,-1.12 -0.37,-0.27 -0.92,-0.4 -1.68,-0.4l-0.93 0 0 -1.3 2.32 -2.77 -4.65 0 0 -1.59 6.98 0 0 1.27 -2.49 2.96z"/>
  <path class="fil2" d="M127.49 106.41l0 1.61 -7.55 0 0 -1.27 4.06 -3.86c0.46,-0.44 0.77,-0.82 0.93,-1.15 0.16,-0.33 0.24,-0.65 0.24,-0.97 0,-0.48 -0.16,-0.85 -0.48,-1.1 -0.32,-0.25 -0.79,-0.38 -1.42,-0.38 -1.04,0 -1.84,0.35 -2.4,1.07l-1.33 -1.03c0.4,-0.53 0.94,-0.95 1.62,-1.25 0.68,-0.3 1.43,-0.44 2.27,-0.44 1.12,0 2,0.26 2.67,0.79 0.66,0.52 0.99,1.24 0.99,2.15 0,0.55 -0.12,1.07 -0.35,1.56 -0.23,0.49 -0.68,1.05 -1.35,1.67l-2.73 2.6 4.83 0z"/>
  <polygon class="fil2" points="60.91,54.13 60.91,68.21 58.76,68.21 51,58.68 51,68.21 48.4,68.21 48.4,54.13 50.55,54.13 58.32,63.66 58.32,54.13 "/>
  <path class="fil2" d="M96.11 68.41c-1.42,0 -2.7,-0.31 -3.85,-0.93 -1.15,-0.63 -2.04,-1.49 -2.69,-2.59 -0.65,-1.1 -0.98,-2.34 -0.98,-3.72 0,-1.38 0.33,-2.62 0.99,-3.72 0.65,-1.1 1.55,-1.96 2.7,-2.59 1.15,-0.62 2.43,-0.93 3.85,-0.93 1.16,0 2.21,0.2 3.16,0.6 0.95,0.41 1.76,0.99 2.41,1.75l-1.68 1.59c-1.02,-1.1 -2.28,-1.65 -3.77,-1.65 -0.96,0 -1.83,0.21 -2.59,0.64 -0.77,0.42 -1.36,1.01 -1.79,1.76 -0.43,0.75 -0.64,1.6 -0.64,2.55 0,0.95 0.21,1.8 0.64,2.55 0.43,0.76 1.02,1.34 1.79,1.77 0.76,0.42 1.63,0.63 2.59,0.63 1.49,0 2.75,-0.56 3.77,-1.67l1.68 1.61c-0.65,0.76 -1.46,1.35 -2.42,1.75 -0.96,0.4 -2.01,0.6 -3.17,0.6z"/>
  <path class="fil2" d="M131.1 68.41c-1.42,0 -2.7,-0.31 -3.85,-0.93 -1.14,-0.63 -2.04,-1.49 -2.69,-2.59 -0.65,-1.1 -0.98,-2.34 -0.98,-3.72 0,-1.38 0.33,-2.62 0.99,-3.72 0.65,-1.1 1.55,-1.96 2.7,-2.59 1.15,-0.62 2.43,-0.93 3.85,-0.93 1.16,0 2.21,0.2 3.16,0.6 0.95,0.41 1.76,0.99 2.42,1.75l-1.69 1.59c-1.02,-1.1 -2.28,-1.65 -3.77,-1.65 -0.96,0 -1.83,0.21 -2.59,0.64 -0.76,0.42 -1.36,1.01 -1.79,1.76 -0.43,0.75 -0.64,1.6 -0.64,2.55 0,0.95 0.21,1.8 0.64,2.55 0.43,0.76 1.03,1.34 1.79,1.77 0.76,0.42 1.63,0.63 2.59,0.63 1.49,0 2.75,-0.56 3.77,-1.67l1.69 1.61c-0.66,0.76 -1.47,1.35 -2.43,1.75 -0.96,0.4 -2.01,0.6 -3.17,0.6z"/>
  <path class="fil2" d="M161.11 51.38c-1.44,0 -2.73,-0.31 -3.89,-0.93 -1.15,-0.63 -2.05,-1.49 -2.71,-2.6 -0.66,-1.1 -0.99,-2.34 -0.99,-3.71 0,-1.37 0.33,-2.6 0.99,-3.71 0.66,-1.1 1.56,-1.97 2.71,-2.59 1.16,-0.63 2.45,-0.94 3.89,-0.94 1.43,0 2.73,0.31 3.88,0.94 1.15,0.62 2.06,1.48 2.71,2.58 0.66,1.1 0.99,2.34 0.99,3.72 0,1.38 -0.33,2.62 -0.99,3.72 -0.65,1.1 -1.56,1.96 -2.71,2.59 -1.15,0.62 -2.45,0.93 -3.88,0.93zm0 -2.29c0.93,0 1.78,-0.21 2.53,-0.63 0.75,-0.43 1.34,-1.02 1.77,-1.77 0.43,-0.76 0.64,-1.61 0.64,-2.55 0,-0.94 -0.21,-1.78 -0.64,-2.54 -0.43,-0.76 -1.02,-1.35 -1.77,-1.77 -0.75,-0.42 -1.6,-0.64 -2.53,-0.64 -0.94,0 -1.79,0.22 -2.54,0.64 -0.75,0.42 -1.34,1.01 -1.77,1.77 -0.43,0.76 -0.64,1.6 -0.64,2.54 0,0.94 0.21,1.79 0.64,2.55 0.43,0.75 1.02,1.34 1.77,1.77 0.75,0.42 1.6,0.63 2.54,0.63z"/>
  <path class="fil2" d="M161.11 85.44c-1.44,0 -2.73,-0.31 -3.89,-0.93 -1.15,-0.63 -2.05,-1.49 -2.71,-2.6 -0.66,-1.11 -0.99,-2.34 -0.99,-3.71 0,-1.37 0.33,-2.61 0.99,-3.71 0.66,-1.11 1.56,-1.97 2.71,-2.6 1.16,-0.62 2.45,-0.93 3.89,-0.93 1.43,0 2.73,0.31 3.88,0.93 1.15,0.63 2.06,1.49 2.71,2.59 0.66,1.1 0.99,2.34 0.99,3.72 0,1.38 -0.33,2.62 -0.99,3.72 -0.65,1.1 -1.56,1.96 -2.71,2.59 -1.15,0.62 -2.45,0.93 -3.88,0.93zm0 -2.29c0.93,0 1.78,-0.21 2.53,-0.64 0.75,-0.42 1.34,-1.01 1.77,-1.77 0.43,-0.75 0.64,-1.6 0.64,-2.54 0,-0.94 -0.21,-1.79 -0.64,-2.55 -0.43,-0.75 -1.02,-1.34 -1.77,-1.77 -0.75,-0.42 -1.6,-0.63 -2.53,-0.63 -0.94,0 -1.79,0.21 -2.54,0.63 -0.75,0.43 -1.34,1.02 -1.77,1.77 -0.43,0.76 -0.64,1.61 -0.64,2.55 0,0.94 0.21,1.79 0.64,2.54 0.43,0.76 1.02,1.35 1.77,1.77 0.75,0.43 1.6,0.64 2.54,0.64z"/>
  <path class="fil2" d="M96.11 102.7c-1.42,0 -2.7,-0.32 -3.85,-0.94 -1.15,-0.62 -2.04,-1.48 -2.69,-2.58 -0.65,-1.1 -0.98,-2.34 -0.98,-3.73 0,-1.38 0.33,-2.62 0.99,-3.72 0.65,-1.1 1.55,-1.96 2.7,-2.58 1.15,-0.62 2.43,-0.94 3.85,-0.94 1.16,0 2.21,0.2 3.16,0.61 0.95,0.4 1.76,0.98 2.41,1.75l-1.68 1.59c-1.02,-1.1 -2.28,-1.65 -3.77,-1.65 -0.96,0 -1.83,0.21 -2.59,0.63 -0.77,0.42 -1.36,1.01 -1.79,1.76 -0.43,0.75 -0.64,1.6 -0.64,2.55 0,0.96 0.21,1.81 0.64,2.56 0.43,0.75 1.02,1.34 1.79,1.76 0.76,0.42 1.63,0.63 2.59,0.63 1.49,0 2.75,-0.55 3.77,-1.67l1.68 1.61c-0.65,0.77 -1.46,1.35 -2.42,1.75 -0.96,0.4 -2.01,0.61 -3.17,0.61z"/>
  <polygon id="1" class="fil2" points="116.73,88.41 116.73,102.49 114.12,102.49 114.12,96.46 106.83,96.46 106.83,102.49 104.22,102.49 104.22,88.41 106.83,88.41 106.83,94.23 114.12,94.23 114.12,88.41 "/>
  <polygon class="fil2" points="102.11,19.81 102.11,33.89 99.49,33.89 99.49,27.85 92.21,27.85 92.21,33.89 89.6,33.89 89.6,19.81 92.21,19.81 92.21,25.62 99.49,25.62 99.49,19.81 "/>
  <polygon class="fil2" points="70.81,55.73 67.9,55.73 67.9,58.61 66.14,58.61 66.14,55.73 63.22,55.73 63.22,54.08 66.14,54.08 66.14,51.2 67.9,51.2 67.9,54.08 70.81,54.08 "/>
  <polygon class="fil2" points="169.71,70.58 174.24,70.58 174.24,72.29 169.71,72.29 "/>
  <polygon class="fil2" points="95.54,72.77 95.54,83.74 94.5,83.74 94.5,72.77 "/>
  <polygon class="fil2" points="71.93,60.65 82.9,60.65 82.9,61.69 71.93,61.69 "/>
  <polygon class="fil2" points="106.92,60.65 117.89,60.65 117.89,61.69 106.92,61.69 "/>
  <polygon class="fil2" points="139.67,53.34 149.17,47.85 149.68,48.74 140.18,54.23 "/>
  <polygon class="fil2" points="140.96,55.57 150.46,50.09 150.97,50.98 141.47,56.47 "/>
  <polygon class="fil2" points="141.47,68.11 150.97,73.6 150.46,74.49 140.96,69.01 "/>
  <path class="fil2" d="M96.11 136.97c-1.42,0 -2.7,-0.31 -3.85,-0.93 -1.15,-0.62 -2.04,-1.49 -2.69,-2.59 -0.65,-1.1 -0.98,-2.34 -0.98,-3.72 0,-1.38 0.33,-2.62 0.99,-3.72 0.65,-1.1 1.55,-1.96 2.7,-2.58 1.15,-0.63 2.43,-0.94 3.85,-0.94 1.16,0 2.21,0.2 3.16,0.61 0.95,0.4 1.76,0.98 2.41,1.75l-1.68 1.58c-1.02,-1.1 -2.28,-1.65 -3.77,-1.65 -0.96,0 -1.83,0.22 -2.59,0.64 -0.77,0.42 -1.36,1.01 -1.79,1.76 -0.43,0.75 -0.64,1.6 -0.64,2.55 0,0.96 0.21,1.81 0.64,2.56 0.43,0.75 1.02,1.33 1.79,1.76 0.76,0.42 1.63,0.63 2.59,0.63 1.49,0 2.75,-0.56 3.77,-1.67l1.68 1.61c-0.65,0.76 -1.46,1.35 -2.42,1.75 -0.96,0.4 -2.01,0.6 -3.17,0.6z"/>
  <path class="fil2" d="M112.31 167.15c-1.44,0 -2.73,-0.31 -3.89,-0.94 -1.15,-0.62 -2.05,-1.49 -2.71,-2.59 -0.66,-1.11 -0.99,-2.35 -0.99,-3.71 0,-1.37 0.33,-2.61 0.99,-3.71 0.66,-1.11 1.56,-1.98 2.71,-2.6 1.16,-0.62 2.45,-0.93 3.89,-0.93 1.43,0 2.73,0.31 3.88,0.93 1.15,0.62 2.06,1.49 2.71,2.59 0.66,1.1 0.99,2.34 0.99,3.72 0,1.38 -0.33,2.62 -0.99,3.72 -0.65,1.1 -1.56,1.96 -2.71,2.58 -1.15,0.63 -2.45,0.94 -3.88,0.94zm0 -2.3c0.93,0 1.78,-0.21 2.53,-0.63 0.75,-0.42 1.34,-1.01 1.77,-1.77 0.43,-0.76 0.64,-1.6 0.64,-2.54 0,-0.94 -0.21,-1.79 -0.64,-2.55 -0.43,-0.76 -1.02,-1.35 -1.77,-1.77 -0.75,-0.42 -1.6,-0.63 -2.53,-0.63 -0.94,0 -1.79,0.21 -2.54,0.63 -0.75,0.42 -1.34,1.01 -1.77,1.77 -0.43,0.76 -0.64,1.61 -0.64,2.55 0,0.94 0.21,1.78 0.64,2.54 0.43,0.76 1.02,1.35 1.77,1.77 0.75,0.42 1.6,0.63 2.54,0.63z"/>
  <polygon class="fil2" points="102.85,138.5 108.34,148 107.44,148.51 101.96,139.01 "/>
  <polygon class="fil2" points="100.62,139.79 106.1,149.29 105.21,149.81 99.72,140.3 "/>
  <polygon class="fil2" points="88.08,140.3 82.59,149.81 81.7,149.29 87.18,139.79 "/>
  <polygon class="fil2" points="95.54,107.05 95.54,118.02 94.5,118.02 94.5,107.05 "/>
  <polygon class="fil2" points="95.54,38.45 95.54,49.43 94.5,49.43 94.5,38.45 "/>
  <path class="fil2" d="M70.71 170.74l0 1.61 -7.54 0 0 -1.27 4.06 -3.86c0.46,-0.44 0.77,-0.82 0.93,-1.15 0.16,-0.33 0.24,-0.65 0.24,-0.97 0,-0.48 -0.16,-0.85 -0.48,-1.1 -0.32,-0.25 -0.8,-0.38 -1.42,-0.38 -1.04,0 -1.84,0.36 -2.4,1.07l-1.33 -1.03c0.4,-0.53 0.94,-0.95 1.62,-1.25 0.67,-0.29 1.43,-0.44 2.27,-0.44 1.11,0 2,0.26 2.66,0.79 0.67,0.52 1,1.24 1,2.15 0,0.55 -0.12,1.08 -0.35,1.56 -0.24,0.49 -0.69,1.05 -1.35,1.67l-2.73 2.6 4.82 0z"/>
  <polygon class="fil2" points="85.72,152.75 85.72,166.83 83.57,166.83 75.81,157.29 75.81,166.83 73.21,166.83 73.21,152.75 75.36,152.75 83.13,162.28 83.13,152.75 "/>
  <polygon class="fil2" points="59.67,152.75 59.67,166.83 57.05,166.83 57.05,160.79 49.77,160.79 49.77,166.83 47.15,166.83 47.15,152.75 49.77,152.75 49.77,158.56 57.05,158.56 57.05,152.75 "/>
 </g>
</svg>
