<?xml version="1.0" encoding="UTF-8"?>
<!DOCTYPE svg PUBLIC "-//W3C//DTD SVG 1.1//EN" "http://www.w3.org/Graphics/SVG/1.1/DTD/svg11.dtd">
<!-- Creator: CorelDRAW 2018 (64 Bit) -->
<svg xmlns="http://www.w3.org/2000/svg" xml:space="preserve" width="450px" height="700px" version="1.1" style="shape-rendering:geometricPrecision; text-rendering:geometricPrecision; image-rendering:optimizeQuality; fill-rule:evenodd; clip-rule:evenodd"
viewBox="0 0 4844.32 7535.61"
 xmlns:xlink="http://www.w3.org/1999/xlink">
 <defs>
  <style type="text/css">
   <![CDATA[
    .fil0 {fill:none}
    .fil1 {fill:#DAEBDE}
    .fil2 {fill:black;fill-rule:nonzero}
   ]]>
  </style>
 </defs>
 <g id="Camada_x0020_1">
  <metadata id="CorelCorpID_0Corel-Layer"/>
  <rect class="fil0" y="-0.01" width="4844.32" height="7535.61"/>
  <rect class="fil1" x="282.95" y="1919.59" width="3209.92" height="1721.77" rx="190.05" ry="46.93"/>
  <polygon class="fil2" points="870.5,1327.84 870.5,1673.22 806.36,1673.22 806.36,1525.2 627.75,1525.2 627.75,1673.22 563.61,1673.22 563.61,1327.84 627.75,1327.84 627.75,1470.43 806.36,1470.43 806.36,1327.84 "/>
  <path class="fil2" d="M1126.45 1769.34l0 39.47 -185.15 0 0 -31.21 99.74 -94.74c11.26,-10.77 18.85,-20.15 22.8,-28.16 3.94,-8.03 5.91,-15.97 5.91,-23.87 0,-11.72 -3.94,-20.7 -11.83,-26.92 -7.9,-6.21 -19.49,-9.33 -34.82,-9.33 -25.59,0 -45.21,8.74 -58.84,26.21l-32.65 -25.13c9.8,-13.16 23.03,-23.38 39.64,-30.68 16.63,-7.3 35.24,-10.95 55.81,-10.95 27.27,0 49.04,6.46 65.3,19.38 16.28,12.92 24.4,30.5 24.4,52.75 0,13.63 -2.86,26.44 -8.61,38.4 -5.74,11.95 -16.74,25.6 -33,40.91l-67.11 63.87 118.41 0z"/>
  <polygon class="fil2" points="1494.2,1327.84 1494.2,1673.22 1441.41,1673.22 1250.95,1439.35 1250.95,1673.22 1187.3,1673.22 1187.3,1327.84 1240.09,1327.84 1430.55,1561.71 1430.55,1327.84 "/>
  <path class="fil2" d="M2357.68 1678.15c-34.86,0 -66.36,-7.64 -94.48,-22.93 -28.13,-15.3 -50.17,-36.44 -66.12,-63.41 -15.96,-26.97 -23.94,-57.4 -23.94,-91.28 0,-33.88 8.06,-64.31 24.18,-91.28 16.13,-26.98 38.24,-48.11 66.36,-63.41 28.13,-15.29 59.62,-22.94 94.5,-22.94 28.29,0 54.1,4.94 77.46,14.8 23.35,9.87 43.09,24.18 59.21,42.93l-41.45 38.98c-25,-26.98 -55.76,-40.46 -92.26,-40.46 -23.69,0 -44.91,5.18 -63.65,15.54 -18.75,10.36 -33.39,24.76 -43.92,43.18 -10.52,18.41 -15.79,39.3 -15.79,62.66 0,23.36 5.27,44.25 15.79,62.66 10.53,18.42 25.17,32.81 43.92,43.18 18.74,10.36 39.96,15.53 63.65,15.53 36.5,0 67.26,-13.64 92.26,-40.95l41.45 39.48c-16.12,18.74 -35.93,33.06 -59.46,42.92 -23.52,9.87 -49.42,14.8 -77.71,14.8z"/>
  <path class="fil2" d="M3216 1678.15c-34.86,0 -66.36,-7.64 -94.48,-22.93 -28.13,-15.3 -50.17,-36.44 -66.12,-63.41 -15.95,-26.97 -23.94,-57.4 -23.94,-91.28 0,-33.88 8.06,-64.31 24.18,-91.28 16.13,-26.98 38.24,-48.11 66.36,-63.41 28.13,-15.29 59.62,-22.94 94.5,-22.94 28.29,0 54.1,4.94 77.46,14.8 23.35,9.87 43.09,24.18 59.21,42.93l-41.45 38.98c-25,-26.98 -55.76,-40.46 -92.26,-40.46 -23.69,0 -44.91,5.18 -63.65,15.54 -18.75,10.36 -33.39,24.76 -43.92,43.18 -10.52,18.41 -15.79,39.3 -15.79,62.66 0,23.36 5.27,44.25 15.79,62.66 10.53,18.42 25.17,32.81 43.92,43.18 18.74,10.36 39.96,15.53 63.65,15.53 36.5,0 67.26,-13.64 92.26,-40.95l41.45 39.48c-16.12,18.74 -35.93,33.06 -59.46,42.92 -23.52,9.87 -49.42,14.8 -77.71,14.8z"/>
  <path class="fil2" d="M3951.98 1260.45c-35.19,0 -66.93,-7.64 -95.22,-22.94 -28.29,-15.29 -50.49,-36.51 -66.61,-63.65 -16.12,-27.14 -24.18,-57.48 -24.18,-91.03 0,-33.56 8.06,-63.9 24.18,-91.04 16.12,-27.14 38.32,-48.36 66.61,-63.65 28.29,-15.3 60.03,-22.94 95.22,-22.94 35.2,0 66.95,7.64 95.24,22.94 28.29,15.29 50.49,36.43 66.61,63.41 16.11,26.96 24.17,57.39 24.17,91.28 0,33.88 -8.06,64.31 -24.17,91.27 -16.12,26.97 -38.32,48.12 -66.61,63.41 -28.29,15.3 -60.04,22.94 -95.24,22.94zm0 -56.25c23.03,0 43.75,-5.17 62.18,-15.54 18.42,-10.36 32.89,-24.83 43.42,-43.42 10.53,-18.59 15.79,-39.39 15.79,-62.41 0,-23.03 -5.26,-43.83 -15.79,-62.42 -10.53,-18.59 -25,-33.06 -43.42,-43.42 -18.43,-10.36 -39.15,-15.54 -62.18,-15.54 -23.02,0 -43.74,5.18 -62.16,15.54 -18.42,10.36 -32.89,24.83 -43.42,43.42 -10.53,18.59 -15.79,39.39 -15.79,62.42 0,23.02 5.26,43.82 15.79,62.41 10.53,18.59 25,33.06 43.42,43.42 18.42,10.37 39.14,15.54 62.16,15.54z"/>
  <path class="fil2" d="M3951.98 2095.87c-35.19,0 -66.93,-7.64 -95.22,-22.94 -28.29,-15.29 -50.49,-36.51 -66.61,-63.65 -16.12,-27.14 -24.18,-57.48 -24.18,-91.03 0,-33.56 8.06,-63.89 24.18,-91.04 16.12,-27.13 38.32,-48.35 66.61,-63.65 28.29,-15.3 60.03,-22.94 95.22,-22.94 35.2,0 66.95,7.64 95.24,22.94 28.29,15.3 50.49,36.43 66.61,63.41 16.11,26.97 24.17,57.39 24.17,91.28 0,33.88 -8.06,64.31 -24.17,91.28 -16.12,26.96 -38.32,48.11 -66.61,63.4 -28.29,15.3 -60.04,22.94 -95.24,22.94zm0 -56.25c23.03,0 43.75,-5.17 62.18,-15.54 18.42,-10.36 32.89,-24.83 43.42,-43.42 10.53,-18.59 15.79,-39.39 15.79,-62.41 0,-23.03 -5.26,-43.83 -15.79,-62.42 -10.53,-18.59 -25,-33.06 -43.42,-43.42 -18.43,-10.36 -39.15,-15.54 -62.18,-15.54 -23.02,0 -43.74,5.18 -62.16,15.54 -18.42,10.36 -32.89,24.83 -43.42,43.42 -10.53,18.59 -15.79,39.39 -15.79,62.42 0,23.02 5.26,43.82 15.79,62.41 10.53,18.59 25,33.06 43.42,43.42 18.42,10.37 39.14,15.54 62.16,15.54z"/>
  <path class="fil2" d="M2623.08 3351.27l0 39.47 -185.16 0 0 -31.21 99.75 -94.74c11.25,-10.77 18.84,-20.15 22.8,-28.16 3.94,-8.03 5.91,-15.97 5.91,-23.87 0,-11.72 -3.94,-20.7 -11.84,-26.92 -7.89,-6.21 -19.49,-9.33 -34.81,-9.33 -25.59,0 -45.21,8.74 -58.84,26.21l-32.65 -25.13c9.8,-13.16 23.02,-23.38 39.64,-30.68 16.63,-7.3 35.23,-10.95 55.8,-10.95 27.28,0 49.05,6.46 65.31,19.38 16.27,12.92 24.4,30.5 24.4,52.75 0,13.63 -2.86,26.44 -8.61,38.4 -5.75,11.95 -16.75,25.6 -33.01,40.91l-67.11 63.87 118.42 0z"/>
  <path class="fil2" d="M1853.5 3260.08c-34.86,0 -66.35,-7.64 -94.48,-22.93 -28.12,-15.3 -50.17,-36.44 -66.12,-63.41 -15.95,-26.97 -23.94,-57.4 -23.94,-91.28 0,-33.89 8.06,-64.31 24.19,-91.28 16.12,-26.98 38.23,-48.11 66.35,-63.41 28.13,-15.29 59.62,-22.94 94.5,-22.94 28.29,0 54.1,4.94 77.46,14.8 23.35,9.87 43.09,24.18 59.21,42.93l-41.45 38.98c-25,-26.98 -55.75,-40.46 -92.26,-40.46 -23.69,0 -44.91,5.18 -63.65,15.54 -18.75,10.36 -33.39,24.76 -43.91,43.18 -10.53,18.41 -15.8,39.3 -15.8,62.66 0,23.36 5.27,44.25 15.8,62.66 10.52,18.42 25.16,32.81 43.91,43.18 18.74,10.36 39.96,15.53 63.65,15.53 36.51,0 67.26,-13.64 92.26,-40.95l41.45 39.48c-16.12,18.74 -35.93,33.06 -59.45,42.92 -23.53,9.87 -49.43,14.8 -77.72,14.8z"/>
  <polygon id="1" class="fil2" points="2359.25,2909.77 2359.25,3255.15 2295.1,3255.15 2295.1,3107.13 2116.5,3107.13 2116.5,3255.15 2052.35,3255.15 2052.35,2909.77 2116.5,2909.77 2116.5,3052.36 2295.1,3052.36 2295.1,2909.77 "/>
  <polygon class="fil2" points="2504.71,485.89 2504.71,831.28 2440.57,831.28 2440.57,683.25 2261.96,683.25 2261.96,831.28 2197.82,831.28 2197.82,485.89 2261.96,485.89 2261.96,628.49 2440.57,628.49 2440.57,485.89 "/>
  <polygon class="fil2" points="1737.02,1367 1665.57,1367 1665.57,1437.64 1622.38,1437.64 1622.38,1367 1550.92,1367 1550.92,1326.63 1622.38,1326.63 1622.38,1255.99 1665.57,1255.99 1665.57,1326.63 1737.02,1326.63 "/>
  <polygon class="fil2" points="4163.06,1731.29 4274.08,1731.29 4274.08,1773.27 4163.06,1773.27 "/>
  <polygon class="fil2" points="2343.5,1785.02 2343.5,2054.17 2318.07,2054.17 2318.07,1785.02 "/>
  <polygon class="fil2" points="1346.03,1785.02 1346.03,2054.17 1320.6,2054.17 1320.6,1785.02 "/>
  <polygon class="fil2" points="1764.49,1487.82 2033.63,1487.82 2033.63,1513.24 1764.49,1513.24 "/>
  <polygon class="fil2" points="2622.81,1487.82 2891.95,1487.82 2891.95,1513.24 2622.81,1513.24 "/>
  <polygon class="fil2" points="3426.1,1308.33 3659.19,1173.77 3671.8,1195.72 3438.71,1330.28 "/>
  <polygon class="fil2" points="3457.76,1363.17 3690.85,1228.61 3703.46,1250.56 3470.37,1385.12 "/>
  <polygon class="fil2" points="3470.37,1670.79 3703.46,1805.35 3690.85,1827.3 3457.76,1692.74 "/>
  <polygon class="fil2" points="2343.5,943.28 2343.5,1212.43 2318.07,1212.43 2318.07,943.28 "/>
  <path class="fil2" d="M3127.25 2610.35l0 39.46 -185.15 0 0 -31.21 99.75 -94.74c11.25,-10.77 18.84,-20.15 22.8,-28.16 3.94,-8.02 5.91,-15.97 5.91,-23.87 0,-11.72 -3.94,-20.7 -11.84,-26.91 -7.89,-6.22 -19.49,-9.34 -34.81,-9.34 -25.6,0 -45.22,8.74 -58.85,26.21l-32.65 -25.12c9.81,-13.16 23.03,-23.39 39.65,-30.69 16.63,-7.29 35.23,-10.94 55.8,-10.94 27.28,0 49.04,6.46 65.31,19.37 16.27,12.92 24.39,30.51 24.39,52.76 0,13.63 -2.86,26.43 -8.6,38.4 -5.75,11.95 -16.75,25.59 -33.01,40.9l-67.11 63.88 118.41 0z"/>
  <polygon class="fil2" points="870.5,2168.93 870.5,2514.31 806.36,2514.31 806.36,2366.29 627.75,2366.29 627.75,2514.31 563.61,2514.31 563.61,2168.93 627.75,2168.93 627.75,2311.53 806.36,2311.53 806.36,2168.93 "/>
  <path class="fil2" d="M1126.45 2610.44l0 39.46 -185.15 0 0 -31.21 99.74 -94.74c11.26,-10.77 18.85,-20.15 22.8,-28.16 3.94,-8.02 5.91,-15.97 5.91,-23.87 0,-11.72 -3.94,-20.7 -11.83,-26.91 -7.9,-6.22 -19.49,-9.34 -34.82,-9.34 -25.59,0 -45.21,8.74 -58.84,26.21l-32.65 -25.13c9.8,-13.16 23.03,-23.38 39.64,-30.68 16.63,-7.29 35.24,-10.94 55.81,-10.94 27.27,0 49.04,6.46 65.3,19.37 16.28,12.92 24.4,30.51 24.4,52.76 0,13.63 -2.86,26.43 -8.61,38.4 -5.74,11.95 -16.74,25.59 -33,40.9l-67.11 63.88 118.41 0z"/>
  <path class="fil2" d="M1347.16 2519.25c-34.86,0 -66.35,-7.64 -94.48,-22.94 -28.12,-15.3 -50.17,-36.44 -66.12,-63.41 -15.95,-26.97 -23.94,-57.39 -23.94,-91.28 0,-33.88 8.06,-64.31 24.19,-91.28 16.12,-26.98 38.23,-48.11 66.35,-63.41 28.13,-15.29 59.62,-22.93 94.5,-22.93 28.29,0 54.1,4.93 77.46,14.8 23.36,9.86 43.09,24.17 59.21,42.92l-41.45 38.99c-25,-26.98 -55.75,-40.46 -92.26,-40.46 -23.68,0 -44.91,5.17 -63.65,15.53 -18.75,10.37 -33.39,24.76 -43.91,43.18 -10.53,18.42 -15.8,39.31 -15.8,62.66 0,23.36 5.27,44.25 15.8,62.66 10.52,18.42 25.16,32.82 43.91,43.18 18.74,10.36 39.97,15.54 63.65,15.54 36.51,0 67.26,-13.65 92.26,-40.96l41.45 39.48c-16.12,18.74 -35.93,33.06 -59.45,42.93 -23.53,9.86 -49.43,14.8 -77.72,14.8z"/>
  <path class="fil2" d="M2304.38 2164.66c-34.86,0 -66.36,7.64 -94.48,22.94 -28.13,15.29 -50.17,36.44 -66.12,63.4 -15.96,26.97 -23.94,57.4 -23.94,91.28 0,33.89 8.06,64.31 24.18,91.28 16.12,26.98 38.24,48.12 66.36,63.41 28.13,15.3 59.62,22.94 94.5,22.94 28.29,0 54.1,-4.93 77.45,-14.8 23.36,-9.87 43.1,-24.17 59.22,-42.93l-41.45 -38.98c-25,26.98 -55.76,40.46 -92.26,40.46 -23.69,0 -44.91,-5.18 -63.65,-15.54 -18.75,-10.36 -33.39,-24.75 -43.92,-43.18 -10.53,-18.41 -15.79,-39.3 -15.79,-62.66 0,-23.35 5.26,-44.24 15.79,-62.65 10.53,-18.43 25.17,-32.82 43.92,-43.18 18.74,-10.37 39.96,-15.54 63.65,-15.54 36.5,0 67.26,13.64 92.26,40.95l41.45 -39.48c-16.12,-18.74 -35.93,-33.05 -59.46,-42.92 -23.52,-9.87 -49.42,-14.8 -77.71,-14.8z"/>
  <polygon id="1" class="fil2" points="2810.12,2514.98 2810.12,2169.59 2745.98,2169.59 2745.98,2317.62 2567.37,2317.62 2567.37,2169.59 2503.23,2169.59 2503.23,2514.98 2567.37,2514.98 2567.37,2372.38 2745.98,2372.38 2745.98,2514.98 "/>
  <g id="_2458884541216">
   <polygon class="fil2" points="2011.38,2835.77 2145.94,2602.68 2124,2590.07 1989.44,2823.15 "/>
   <polygon class="fil2" points="1703.76,2823.15 1569.2,2590.07 1547.26,2602.68 1681.82,2835.77 "/>
  </g>
 </g>
</svg>
