<?xml version="1.0" encoding="UTF-8"?>
<!DOCTYPE svg PUBLIC "-//W3C//DTD SVG 1.1//EN" "http://www.w3.org/Graphics/SVG/1.1/DTD/svg11.dtd">
<!-- Creator: CorelDRAW 2018 (64 Bit) -->
<svg xmlns="http://www.w3.org/2000/svg" xml:space="preserve" width="450px" height="383px" version="1.1" style="shape-rendering:geometricPrecision; text-rendering:geometricPrecision; image-rendering:optimizeQuality; fill-rule:evenodd; clip-rule:evenodd"
viewBox="0 0 450 382.75"
 xmlns:xlink="http://www.w3.org/1999/xlink">
 <defs>
  <style type="text/css">
   <![CDATA[
    .fil0 {fill:none}
    .fil1 {fill:#DAEBDE}
    .fil2 {fill:black;fill-rule:nonzero}
   ]]>
  </style>
 </defs>
 <g id="Camada_x0020_1">
  <metadata id="CorelCorpID_0Corel-Layer"/>
  <rect class="fil0" width="450" height="382.75"/>
  <rect class="fil1" x="26.28" y="178.32" width="298.18" height="159.94" rx="17.65" ry="4.36"/>
  <polygon class="fil2" points="80.86,123.35 80.86,155.43 74.9,155.43 74.9,141.68 58.31,141.68 58.31,155.43 52.35,155.43 52.35,123.35 58.31,123.35 58.31,136.59 74.9,136.59 74.9,123.35 "/>
  <path class="fil2" d="M104.64 164.36l0 3.66 -17.2 0 0 -2.89 9.27 -8.81c1.04,-1 1.75,-1.87 2.11,-2.61 0.37,-0.75 0.55,-1.48 0.55,-2.22 0,-1.09 -0.36,-1.92 -1.1,-2.5 -0.73,-0.58 -1.81,-0.87 -3.23,-0.87 -2.38,0 -4.2,0.82 -5.47,2.44l-3.03 -2.34c0.91,-1.22 2.14,-2.17 3.68,-2.85 1.55,-0.67 3.27,-1.01 5.19,-1.01 2.53,0 4.55,0.6 6.06,1.8 1.51,1.2 2.27,2.83 2.27,4.9 0,1.26 -0.27,2.45 -0.8,3.57 -0.53,1.11 -1.56,2.37 -3.07,3.79l-6.23 5.94 11 0z"/>
  <polygon class="fil2" points="138.8,123.35 138.8,155.43 133.9,155.43 116.2,133.7 116.2,155.43 110.29,155.43 110.29,123.35 115.2,123.35 132.89,145.07 132.89,123.35 "/>
  <path class="fil2" d="M219.01 155.89c-3.24,0 -6.16,-0.71 -8.78,-2.13 -2.61,-1.42 -4.66,-3.39 -6.14,-5.89 -1.48,-2.51 -2.22,-5.33 -2.22,-8.48 0,-3.15 0.75,-5.98 2.24,-8.48 1.5,-2.51 3.56,-4.47 6.17,-5.89 2.61,-1.42 5.54,-2.13 8.78,-2.13 2.62,0 5.02,0.46 7.19,1.37 2.17,0.92 4,2.25 5.5,3.99l-3.85 3.62c-2.32,-2.51 -5.18,-3.76 -8.57,-3.76 -2.2,0 -4.17,0.48 -5.91,1.45 -1.74,0.96 -3.1,2.3 -4.08,4.01 -0.98,1.71 -1.47,3.65 -1.47,5.82 0,2.17 0.49,4.11 1.47,5.82 0.98,1.71 2.34,3.05 4.08,4.01 1.74,0.96 3.71,1.44 5.91,1.44 3.39,0 6.25,-1.26 8.57,-3.8l3.85 3.67c-1.5,1.74 -3.34,3.07 -5.52,3.98 -2.19,0.92 -4.59,1.38 -7.22,1.38z"/>
  <path class="fil2" d="M298.74 155.89c-3.24,0 -6.16,-0.71 -8.77,-2.13 -2.62,-1.42 -4.67,-3.39 -6.15,-5.89 -1.48,-2.51 -2.22,-5.33 -2.22,-8.48 0,-3.15 0.75,-5.98 2.25,-8.48 1.49,-2.51 3.55,-4.47 6.16,-5.89 2.61,-1.42 5.54,-2.13 8.78,-2.13 2.63,0 5.02,0.46 7.19,1.37 2.17,0.92 4.01,2.25 5.5,3.99l-3.85 3.62c-2.32,-2.51 -5.18,-3.76 -8.57,-3.76 -2.2,0 -4.17,0.48 -5.91,1.45 -1.74,0.96 -3.1,2.3 -4.08,4.01 -0.98,1.71 -1.47,3.65 -1.47,5.82 0,2.17 0.49,4.11 1.47,5.82 0.98,1.71 2.34,3.05 4.08,4.01 1.74,0.96 3.71,1.44 5.91,1.44 3.39,0 6.25,-1.26 8.57,-3.8l3.85 3.67c-1.49,1.74 -3.33,3.07 -5.52,3.98 -2.18,0.92 -4.59,1.38 -7.22,1.38z"/>
  <path class="fil2" d="M367.11 117.09c-3.27,0 -6.22,-0.71 -8.85,-2.13 -2.62,-1.43 -4.69,-3.4 -6.18,-5.92 -1.5,-2.52 -2.25,-5.34 -2.25,-8.45 0,-3.12 0.75,-5.94 2.25,-8.46 1.49,-2.52 3.56,-4.49 6.18,-5.91 2.63,-1.42 5.58,-2.13 8.85,-2.13 3.27,0 6.22,0.71 8.85,2.13 2.62,1.42 4.69,3.38 6.18,5.89 1.5,2.5 2.25,5.33 2.25,8.48 0,3.14 -0.75,5.97 -2.25,8.48 -1.49,2.5 -3.56,4.46 -6.18,5.89 -2.63,1.42 -5.58,2.13 -8.85,2.13zm0 -5.23c2.14,0 4.06,-0.48 5.77,-1.44 1.72,-0.96 3.06,-2.31 4.04,-4.04 0.98,-1.72 1.47,-3.65 1.47,-5.79 0,-2.14 -0.49,-4.08 -1.47,-5.8 -0.98,-1.73 -2.32,-3.07 -4.04,-4.04 -1.71,-0.96 -3.63,-1.44 -5.77,-1.44 -2.14,0 -4.06,0.48 -5.78,1.44 -1.71,0.97 -3.05,2.31 -4.03,4.04 -0.98,1.72 -1.47,3.66 -1.47,5.8 0,2.14 0.49,4.07 1.47,5.79 0.98,1.73 2.32,3.08 4.03,4.04 1.72,0.96 3.64,1.44 5.78,1.44z"/>
  <path class="fil2" d="M367.11 194.69c-3.27,0 -6.22,-0.71 -8.85,-2.13 -2.62,-1.42 -4.69,-3.39 -6.18,-5.91 -1.5,-2.52 -2.25,-5.34 -2.25,-8.46 0,-3.12 0.75,-5.93 2.25,-8.46 1.49,-2.52 3.56,-4.49 6.18,-5.91 2.63,-1.42 5.58,-2.13 8.85,-2.13 3.27,0 6.22,0.71 8.85,2.13 2.62,1.42 4.69,3.39 6.18,5.89 1.5,2.51 2.25,5.33 2.25,8.48 0,3.15 -0.75,5.97 -2.25,8.48 -1.49,2.5 -3.56,4.47 -6.18,5.89 -2.63,1.42 -5.58,2.13 -8.85,2.13zm0 -5.22c2.14,0 4.06,-0.49 5.77,-1.45 1.72,-0.96 3.06,-2.3 4.04,-4.03 0.98,-1.73 1.47,-3.66 1.47,-5.8 0,-2.14 -0.49,-4.07 -1.47,-5.8 -0.98,-1.72 -2.32,-3.07 -4.04,-4.03 -1.71,-0.96 -3.63,-1.44 -5.77,-1.44 -2.14,0 -4.06,0.48 -5.78,1.44 -1.71,0.96 -3.05,2.31 -4.03,4.03 -0.98,1.73 -1.47,3.66 -1.47,5.8 0,2.14 0.49,4.07 1.47,5.8 0.98,1.73 2.32,3.07 4.03,4.03 1.72,0.96 3.64,1.45 5.78,1.45z"/>
  <path class="fil2" d="M243.66 311.31l0 3.66 -17.2 0 0 -2.9 9.27 -8.8c1.05,-1 1.75,-1.87 2.12,-2.61 0.36,-0.75 0.55,-1.49 0.55,-2.22 0,-1.09 -0.37,-1.92 -1.1,-2.5 -0.74,-0.58 -1.81,-0.87 -3.24,-0.87 -2.37,0 -4.2,0.82 -5.46,2.44l-3.04 -2.34c0.92,-1.22 2.14,-2.17 3.69,-2.85 1.54,-0.67 3.27,-1.01 5.18,-1.01 2.53,0 4.56,0.6 6.07,1.8 1.51,1.2 2.26,2.83 2.26,4.9 0,1.26 -0.26,2.45 -0.8,3.56 -0.53,1.11 -1.55,2.38 -3.06,3.8l-6.24 5.94 11 0z"/>
  <path class="fil2" d="M172.18 302.84c-3.24,0 -6.17,-0.71 -8.78,-2.13 -2.61,-1.42 -4.66,-3.39 -6.14,-5.89 -1.48,-2.51 -2.23,-5.34 -2.23,-8.48 0,-3.15 0.75,-5.98 2.25,-8.48 1.5,-2.51 3.55,-4.47 6.16,-5.89 2.62,-1.42 5.54,-2.13 8.78,-2.13 2.63,0 5.03,0.46 7.2,1.37 2.17,0.92 4,2.25 5.5,3.99l-3.85 3.62c-2.32,-2.51 -5.18,-3.76 -8.57,-3.76 -2.2,0 -4.17,0.48 -5.91,1.45 -1.75,0.96 -3.11,2.3 -4.08,4.01 -0.98,1.71 -1.47,3.65 -1.47,5.82 0,2.17 0.49,4.11 1.47,5.82 0.97,1.71 2.33,3.05 4.08,4.01 1.74,0.96 3.71,1.44 5.91,1.44 3.39,0 6.25,-1.27 8.57,-3.8l3.85 3.66c-1.5,1.75 -3.34,3.08 -5.52,3.99 -2.19,0.92 -4.6,1.38 -7.22,1.38z"/>
  <polygon id="1" class="fil2" points="219.16,270.3 219.16,302.38 213.2,302.38 213.2,288.63 196.61,288.63 196.61,302.38 190.65,302.38 190.65,270.3 196.61,270.3 196.61,283.54 213.2,283.54 213.2,270.3 "/>
  <polygon class="fil2" points="232.67,45.14 232.67,77.22 226.71,77.22 226.71,63.47 210.12,63.47 210.12,77.22 204.16,77.22 204.16,45.14 210.12,45.14 210.12,58.38 226.71,58.38 226.71,45.14 "/>
  <polygon class="fil2" points="161.36,126.98 154.72,126.98 154.72,133.55 150.71,133.55 150.71,126.98 144.07,126.98 144.07,123.23 150.71,123.23 150.71,116.67 154.72,116.67 154.72,123.23 161.36,123.23 "/>
  <polygon class="fil2" points="386.72,160.82 397.03,160.82 397.03,164.72 386.72,164.72 "/>
  <polygon class="fil2" points="217.69,165.81 217.69,190.82 215.33,190.82 215.33,165.81 "/>
  <polygon class="fil2" points="125.04,165.81 125.04,190.82 122.67,190.82 122.67,165.81 "/>
  <polygon class="fil2" points="163.91,138.21 188.91,138.21 188.91,140.57 163.91,140.57 "/>
  <polygon class="fil2" points="243.64,138.21 268.64,138.21 268.64,140.57 243.64,140.57 "/>
  <polygon class="fil2" points="318.26,121.53 339.91,109.03 341.08,111.07 319.43,123.57 "/>
  <polygon class="fil2" points="321.2,126.63 342.85,114.13 344.02,116.17 322.37,128.67 "/>
  <polygon class="fil2" points="322.37,155.2 344.02,167.7 342.85,169.74 321.2,157.24 "/>
  <polygon class="fil2" points="217.69,87.62 217.69,112.63 215.33,112.63 215.33,87.62 "/>
  <path class="fil2" d="M290.5 242.48l0 3.67 -17.2 0 0 -2.9 9.26 -8.8c1.05,-1 1.75,-1.87 2.12,-2.62 0.37,-0.74 0.55,-1.48 0.55,-2.22 0,-1.08 -0.36,-1.92 -1.1,-2.5 -0.73,-0.57 -1.81,-0.86 -3.23,-0.86 -2.38,0 -4.2,0.81 -5.47,2.43l-3.03 -2.33c0.91,-1.22 2.14,-2.17 3.68,-2.85 1.55,-0.68 3.27,-1.02 5.19,-1.02 2.53,0 4.55,0.6 6.06,1.8 1.51,1.2 2.27,2.83 2.27,4.9 0,1.27 -0.27,2.46 -0.8,3.57 -0.54,1.11 -1.56,2.38 -3.07,3.8l-6.23 5.93 11 0z"/>
  <polygon class="fil2" points="80.86,201.48 80.86,233.56 74.9,233.56 74.9,219.81 58.31,219.81 58.31,233.56 52.35,233.56 52.35,201.48 58.31,201.48 58.31,214.72 74.9,214.72 74.9,201.48 "/>
  <path class="fil2" d="M104.64 242.49l0 3.67 -17.2 0 0 -2.9 9.27 -8.8c1.04,-1 1.75,-1.88 2.11,-2.62 0.37,-0.75 0.55,-1.48 0.55,-2.22 0,-1.09 -0.36,-1.92 -1.1,-2.5 -0.73,-0.58 -1.81,-0.86 -3.23,-0.86 -2.38,0 -4.2,0.81 -5.47,2.43l-3.03 -2.33c0.91,-1.23 2.14,-2.18 3.68,-2.85 1.55,-0.68 3.27,-1.02 5.19,-1.02 2.53,0 4.55,0.6 6.06,1.8 1.51,1.2 2.27,2.83 2.27,4.9 0,1.27 -0.27,2.45 -0.8,3.57 -0.53,1.11 -1.56,2.37 -3.07,3.8l-6.23 5.93 11 0z"/>
  <path class="fil2" d="M125.14 234.02c-3.24,0 -6.16,-0.71 -8.78,-2.13 -2.61,-1.42 -4.66,-3.39 -6.14,-5.89 -1.48,-2.51 -2.22,-5.33 -2.22,-8.48 0,-3.15 0.75,-5.98 2.25,-8.48 1.49,-2.51 3.55,-4.47 6.16,-5.89 2.61,-1.42 5.54,-2.13 8.78,-2.13 2.63,0 5.02,0.46 7.19,1.37 2.17,0.92 4.01,2.25 5.5,3.99l-3.85 3.62c-2.32,-2.5 -5.18,-3.76 -8.57,-3.76 -2.2,0 -4.17,0.48 -5.91,1.45 -1.74,0.96 -3.1,2.3 -4.08,4.01 -0.98,1.71 -1.47,3.65 -1.47,5.82 0,2.17 0.49,4.11 1.47,5.82 0.98,1.71 2.34,3.05 4.08,4.01 1.74,0.96 3.71,1.44 5.91,1.44 3.39,0 6.25,-1.26 8.57,-3.8l3.85 3.67c-1.49,1.74 -3.33,3.07 -5.52,3.98 -2.18,0.92 -4.59,1.38 -7.22,1.38z"/>
  <path class="fil2" d="M214.06 201.08c-3.24,0 -6.16,0.71 -8.78,2.13 -2.61,1.42 -4.66,3.39 -6.14,5.89 -1.48,2.51 -2.22,5.33 -2.22,8.48 0,3.15 0.75,5.97 2.24,8.48 1.5,2.51 3.55,4.47 6.17,5.89 2.61,1.42 5.54,2.13 8.78,2.13 2.62,0 5.02,-0.46 7.19,-1.37 2.17,-0.92 4,-2.25 5.5,-3.99l-3.85 -3.62c-2.32,2.5 -5.18,3.76 -8.57,3.76 -2.2,0 -4.17,-0.49 -5.91,-1.45 -1.74,-0.96 -3.1,-2.3 -4.08,-4.01 -0.98,-1.71 -1.47,-3.65 -1.47,-5.82 0,-2.17 0.49,-4.11 1.47,-5.82 0.98,-1.71 2.34,-3.05 4.08,-4.01 1.74,-0.96 3.71,-1.44 5.91,-1.44 3.39,0 6.25,1.26 8.57,3.8l3.85 -3.67c-1.5,-1.74 -3.34,-3.07 -5.52,-3.98 -2.19,-0.92 -4.59,-1.38 -7.22,-1.38z"/>
  <polygon id="1" class="fil2" points="261.04,233.62 261.04,201.54 255.08,201.54 255.08,215.29 238.49,215.29 238.49,201.54 232.53,201.54 232.53,233.62 238.49,233.62 238.49,220.38 255.08,220.38 255.08,233.62 "/>
  <g id="_2423237345632">
   <polygon class="fil2" points="186.84,263.42 199.34,241.77 197.3,240.6 184.8,262.25 "/>
   <polygon class="fil2" points="158.27,262.25 145.77,240.6 143.73,241.77 156.23,263.42 "/>
  </g>
 </g>
</svg>
