<?xml version="1.0" encoding="UTF-8"?>
<!DOCTYPE svg PUBLIC "-//W3C//DTD SVG 1.1//EN" "http://www.w3.org/Graphics/SVG/1.1/DTD/svg11.dtd">
<!-- Creator: CorelDRAW 2018 (64 Bit) -->
<svg xmlns="http://www.w3.org/2000/svg" xml:space="preserve" width="165px" height="257px" version="1.1" style="shape-rendering:geometricPrecision; text-rendering:geometricPrecision; image-rendering:optimizeQuality; fill-rule:evenodd; clip-rule:evenodd"
viewBox="0 0 165 256.67"
 xmlns:xlink="http://www.w3.org/1999/xlink">
 <defs>
  <style type="text/css">
   <![CDATA[
    .fil0 {fill:none}
    .fil1 {fill:#DAEBF6}
    .fil2 {fill:black;fill-rule:nonzero}
    .fil3 {fill:black;fill-rule:nonzero}
   ]]>
  </style>
 </defs>
 <g id="Camada_x0020_1">
  <metadata id="CorelCorpID_0Corel-Layer"/>
  <rect class="fil0" width="165" height="256.67"/>
  <path class="fil1" d="M145.05 87.15l0.02 0.02c0.99,1.04 1.59,2.42 1.59,3.89l0 18.21 0 36.41 0 88.94c0,3.02 -2.48,5.5 -5.5,5.5l-77.92 0c-3.02,0 -5.5,-2.48 -5.5,-5.5l0 -88.45 0 -36.9 0 -38.39c0,-3.02 2.72,-5.5 6.04,-5.5l44.91 0c1.01,0 1.96,0.23 2.79,0.63l33.57 21.14z"/>
  <polygon class="fil2" points="25.55,45.23 25.55,56.99 23.36,56.99 23.36,51.95 17.28,51.95 17.28,56.99 15.09,56.99 15.09,45.23 17.28,45.23 17.28,50.08 23.36,50.08 23.36,45.23 "/>
  <path class="fil2" d="M31.71 56.59c0.79,0.09 1.39,0.36 1.81,0.8 0.41,0.44 0.62,0.99 0.62,1.65 0,0.5 -0.12,0.95 -0.38,1.36 -0.25,0.41 -0.63,0.73 -1.14,0.97 -0.51,0.24 -1.13,0.36 -1.86,0.36 -0.61,0 -1.2,-0.09 -1.77,-0.26 -0.56,-0.18 -1.05,-0.42 -1.45,-0.73l0.69 -1.23c0.31,0.26 0.68,0.46 1.13,0.61 0.44,0.15 0.9,0.23 1.37,0.23 0.56,0 1.01,-0.12 1.33,-0.35 0.32,-0.23 0.48,-0.55 0.48,-0.95 0,-0.39 -0.15,-0.71 -0.46,-0.93 -0.3,-0.22 -0.77,-0.34 -1.4,-0.34l-0.78 0 0 -1.08 1.95 -2.31 -3.89 0 0 -1.34 5.83 0 0 1.07 -2.08 2.47z"/>
  <path class="fil2" d="M102.41 88.91l0 1.34 -6.3 0 0 -1.06 3.39 -3.23c0.39,-0.36 0.65,-0.68 0.78,-0.96 0.14,-0.27 0.2,-0.54 0.2,-0.81 0,-0.4 -0.13,-0.7 -0.4,-0.91 -0.27,-0.22 -0.66,-0.32 -1.19,-0.32 -0.87,0 -1.54,0.29 -2,0.89l-1.11 -0.86c0.33,-0.44 0.78,-0.79 1.35,-1.04 0.56,-0.25 1.2,-0.37 1.9,-0.37 0.93,0 1.67,0.22 2.22,0.66 0.56,0.44 0.83,1.04 0.83,1.79 0,0.47 -0.09,0.9 -0.29,1.31 -0.2,0.41 -0.57,0.87 -1.12,1.39l-2.29 2.18 4.03 0z"/>
  <path class="fil2" d="M102.52 232.13l0 1.34 -6.3 0 0 -1.06 3.39 -3.23c0.39,-0.37 0.65,-0.68 0.78,-0.96 0.14,-0.27 0.2,-0.54 0.2,-0.81 0,-0.4 -0.13,-0.71 -0.4,-0.92 -0.27,-0.21 -0.66,-0.32 -1.19,-0.32 -0.87,0 -1.54,0.3 -2,0.9l-1.11 -0.86c0.33,-0.45 0.78,-0.79 1.35,-1.04 0.56,-0.25 1.2,-0.38 1.9,-0.38 0.93,0 1.67,0.22 2.22,0.66 0.56,0.44 0.83,1.04 0.83,1.8 0,0.46 -0.09,0.9 -0.29,1.31 -0.2,0.41 -0.57,0.87 -1.12,1.39l-2.29 2.18 4.03 0z"/>
  <path class="fil2" d="M102.41 146.2l0 1.35 -6.3 0 0 -1.07 3.39 -3.22c0.39,-0.37 0.65,-0.69 0.78,-0.96 0.14,-0.28 0.2,-0.55 0.2,-0.82 0,-0.4 -0.13,-0.7 -0.4,-0.91 -0.27,-0.21 -0.66,-0.32 -1.19,-0.32 -0.87,0 -1.54,0.3 -2,0.89l-1.11 -0.85c0.33,-0.45 0.78,-0.8 1.35,-1.05 0.56,-0.25 1.2,-0.37 1.9,-0.37 0.93,0 1.67,0.22 2.22,0.66 0.56,0.44 0.83,1.04 0.83,1.79 0,0.47 -0.09,0.91 -0.29,1.31 -0.2,0.41 -0.57,0.87 -1.12,1.4l-2.29 2.17 4.03 0z"/>
  <path class="fil2" d="M102.41 117.55l0 1.34 -6.3 0 0 -1.06 3.39 -3.23c0.39,-0.36 0.65,-0.68 0.78,-0.96 0.14,-0.27 0.2,-0.54 0.2,-0.81 0,-0.4 -0.13,-0.7 -0.4,-0.91 -0.27,-0.22 -0.66,-0.32 -1.19,-0.32 -0.87,0 -1.54,0.29 -2,0.89l-1.11 -0.86c0.33,-0.44 0.78,-0.79 1.35,-1.04 0.56,-0.25 1.2,-0.37 1.9,-0.37 0.93,0 1.67,0.22 2.22,0.66 0.56,0.44 0.83,1.04 0.83,1.79 0,0.47 -0.09,0.9 -0.29,1.31 -0.2,0.41 -0.57,0.87 -1.12,1.39l-2.29 2.18 4.03 0z"/>
  <polygon class="fil2" points="46.79,45.23 46.79,56.99 44.99,56.99 38.51,49.02 38.51,56.99 36.34,56.99 36.34,45.23 38.14,45.23 44.62,53.19 44.62,45.23 "/>
  <path class="fil2" d="M76.2 57.16c-1.19,0 -2.26,-0.26 -3.22,-0.78 -0.95,-0.52 -1.71,-1.24 -2.25,-2.16 -0.54,-0.92 -0.81,-1.96 -0.81,-3.11 0,-1.16 0.27,-2.19 0.82,-3.11 0.55,-0.92 1.3,-1.64 2.26,-2.16 0.96,-0.52 2.03,-0.78 3.22,-0.78 0.96,0 1.84,0.17 2.64,0.5 0.79,0.34 1.46,0.83 2.01,1.46l-1.41 1.33c-0.85,-0.92 -1.9,-1.38 -3.14,-1.38 -0.81,0 -1.53,0.18 -2.17,0.53 -0.64,0.36 -1.14,0.85 -1.49,1.47 -0.36,0.63 -0.54,1.34 -0.54,2.14 0,0.79 0.18,1.51 0.54,2.13 0.35,0.63 0.85,1.12 1.49,1.47 0.64,0.36 1.36,0.53 2.17,0.53 1.24,0 2.29,-0.46 3.14,-1.39l1.41 1.34c-0.55,0.64 -1.22,1.13 -2.02,1.46 -0.8,0.34 -1.69,0.51 -2.65,0.51z"/>
  <path class="fil2" d="M105.44 57.16c-1.19,0 -2.26,-0.26 -3.22,-0.78 -0.96,-0.52 -1.71,-1.24 -2.25,-2.16 -0.55,-0.92 -0.82,-1.96 -0.82,-3.11 0,-1.16 0.28,-2.19 0.82,-3.11 0.55,-0.92 1.31,-1.64 2.26,-2.16 0.96,-0.52 2.04,-0.78 3.22,-0.78 0.97,0 1.85,0.17 2.64,0.5 0.8,0.34 1.47,0.83 2.02,1.46l-1.41 1.33c-0.85,-0.92 -1.9,-1.38 -3.15,-1.38 -0.8,0 -1.53,0.18 -2.16,0.53 -0.64,0.36 -1.14,0.85 -1.5,1.47 -0.36,0.63 -0.54,1.34 -0.54,2.14 0,0.79 0.18,1.51 0.54,2.13 0.36,0.63 0.86,1.12 1.5,1.47 0.63,0.36 1.36,0.53 2.16,0.53 1.25,0 2.3,-0.46 3.15,-1.39l1.41 1.34c-0.55,0.64 -1.23,1.13 -2.03,1.46 -0.8,0.34 -1.68,0.51 -2.64,0.51z"/>
  <path class="fil2" d="M130.5 42.93c-1.19,0 -2.28,-0.26 -3.24,-0.78 -0.96,-0.52 -1.72,-1.24 -2.27,-2.17 -0.55,-0.92 -0.82,-1.96 -0.82,-3.1 0,-1.14 0.27,-2.17 0.82,-3.1 0.55,-0.92 1.31,-1.65 2.27,-2.17 0.96,-0.52 2.05,-0.78 3.24,-0.78 1.2,0 2.28,0.26 3.25,0.78 0.96,0.52 1.72,1.24 2.27,2.16 0.55,0.92 0.82,1.96 0.82,3.11 0,1.16 -0.27,2.19 -0.82,3.11 -0.55,0.92 -1.31,1.64 -2.27,2.16 -0.97,0.52 -2.05,0.78 -3.25,0.78zm0 -1.91c0.79,0 1.49,-0.18 2.12,-0.53 0.63,-0.36 1.12,-0.85 1.48,-1.48 0.36,-0.64 0.54,-1.34 0.54,-2.13 0,-0.78 -0.18,-1.49 -0.54,-2.12 -0.36,-0.64 -0.85,-1.13 -1.48,-1.48 -0.63,-0.36 -1.33,-0.53 -2.12,-0.53 -0.78,0 -1.49,0.17 -2.11,0.53 -0.63,0.35 -1.12,0.84 -1.48,1.48 -0.36,0.63 -0.54,1.34 -0.54,2.12 0,0.79 0.18,1.49 0.54,2.13 0.36,0.63 0.85,1.12 1.48,1.48 0.62,0.35 1.33,0.53 2.11,0.53z"/>
  <path class="fil2" d="M130.5 71.39c-1.19,0 -2.28,-0.26 -3.24,-0.78 -0.96,-0.53 -1.72,-1.25 -2.27,-2.17 -0.55,-0.93 -0.82,-1.96 -0.82,-3.1 0,-1.15 0.27,-2.18 0.82,-3.1 0.55,-0.93 1.31,-1.65 2.27,-2.17 0.96,-0.52 2.05,-0.78 3.24,-0.78 1.2,0 2.28,0.26 3.25,0.78 0.96,0.52 1.72,1.24 2.27,2.16 0.55,0.92 0.82,1.95 0.82,3.11 0,1.15 -0.27,2.19 -0.82,3.11 -0.55,0.91 -1.31,1.63 -2.27,2.16 -0.97,0.52 -2.05,0.78 -3.25,0.78zm0 -1.92c0.79,0 1.49,-0.18 2.12,-0.53 0.63,-0.35 1.12,-0.84 1.48,-1.48 0.36,-0.63 0.54,-1.34 0.54,-2.12 0,-0.79 -0.18,-1.5 -0.54,-2.13 -0.36,-0.63 -0.85,-1.13 -1.48,-1.48 -0.63,-0.35 -1.33,-0.53 -2.12,-0.53 -0.78,0 -1.49,0.18 -2.11,0.53 -0.63,0.35 -1.12,0.85 -1.48,1.48 -0.36,0.63 -0.54,1.34 -0.54,2.13 0,0.78 0.18,1.49 0.54,2.12 0.36,0.64 0.85,1.13 1.48,1.48 0.62,0.35 1.33,0.53 2.11,0.53z"/>
  <path class="fil2" d="M76.2 85.8c-1.19,0 -2.26,-0.26 -3.22,-0.78 -0.95,-0.52 -1.71,-1.24 -2.25,-2.16 -0.54,-0.92 -0.81,-1.95 -0.81,-3.11 0,-1.15 0.27,-2.19 0.82,-3.11 0.55,-0.91 1.3,-1.63 2.26,-2.15 0.96,-0.53 2.03,-0.79 3.22,-0.79 0.96,0 1.84,0.17 2.64,0.51 0.79,0.33 1.46,0.82 2.01,1.46l-1.41 1.33c-0.85,-0.92 -1.9,-1.38 -3.14,-1.38 -0.81,0 -1.53,0.18 -2.17,0.53 -0.64,0.35 -1.14,0.84 -1.49,1.47 -0.36,0.63 -0.54,1.34 -0.54,2.13 0,0.8 0.18,1.51 0.54,2.14 0.35,0.63 0.85,1.12 1.49,1.47 0.64,0.35 1.36,0.53 2.17,0.53 1.24,0 2.29,-0.47 3.14,-1.4l1.41 1.35c-0.55,0.64 -1.22,1.12 -2.02,1.46 -0.8,0.34 -1.69,0.5 -2.65,0.5z"/>
  <polygon id="1" class="fil2" points="93.43,73.87 93.43,85.64 91.24,85.64 91.24,80.59 85.16,80.59 85.16,85.64 82.97,85.64 82.97,73.87 85.16,73.87 85.16,78.73 91.24,78.73 91.24,73.87 "/>
  <polygon class="fil2" points="81.21,159.8 81.21,171.57 79.41,171.57 72.92,163.6 72.92,171.57 70.76,171.57 70.76,159.8 72.55,159.8 79.04,167.77 79.04,159.8 "/>
  <polygon class="fil2" points="81.21,217.09 81.21,228.85 79.41,228.85 72.92,220.89 72.92,228.85 70.76,228.85 70.76,217.09 72.55,217.09 79.04,225.06 79.04,217.09 "/>
  <polygon class="fil2" points="93.29,159.8 93.29,171.57 91.11,171.57 91.11,166.53 85.02,166.53 85.02,171.57 82.84,171.57 82.84,159.8 85.02,159.8 85.02,164.66 91.11,164.66 91.11,159.8 "/>
  <polygon class="fil2" points="93.29,217.09 93.29,228.85 91.11,228.85 91.11,223.81 85.02,223.81 85.02,228.85 82.84,228.85 82.84,217.09 85.02,217.09 85.02,221.95 91.11,221.95 91.11,217.09 "/>
  <path class="fil2" d="M76.2 143.1c-1.19,0 -2.26,-0.26 -3.22,-0.79 -0.95,-0.52 -1.71,-1.24 -2.25,-2.16 -0.54,-0.91 -0.81,-1.95 -0.81,-3.1 0,-1.16 0.27,-2.19 0.82,-3.11 0.55,-0.92 1.3,-1.64 2.26,-2.16 0.96,-0.52 2.03,-0.78 3.22,-0.78 0.96,0 1.84,0.16 2.64,0.5 0.79,0.34 1.46,0.82 2.01,1.46l-1.41 1.33c-0.85,-0.92 -1.9,-1.38 -3.14,-1.38 -0.81,0 -1.53,0.18 -2.17,0.53 -0.64,0.35 -1.14,0.84 -1.49,1.47 -0.36,0.63 -0.54,1.34 -0.54,2.14 0,0.79 0.18,1.5 0.54,2.13 0.35,0.63 0.85,1.12 1.49,1.47 0.64,0.35 1.36,0.53 2.17,0.53 1.24,0 2.29,-0.46 3.14,-1.4l1.41 1.35c-0.55,0.64 -1.22,1.13 -2.02,1.46 -0.8,0.34 -1.69,0.51 -2.65,0.51z"/>
  <polygon id="1" class="fil2" points="93.43,131.16 93.43,142.93 91.24,142.93 91.24,137.89 85.16,137.89 85.16,142.93 82.97,142.93 82.97,131.16 85.16,131.16 85.16,136.02 91.24,136.02 91.24,131.16 "/>
  <path class="fil2" d="M76.2 114.44c-1.19,0 -2.26,-0.26 -3.22,-0.78 -0.95,-0.52 -1.71,-1.24 -2.25,-2.16 -0.54,-0.92 -0.81,-1.95 -0.81,-3.11 0,-1.15 0.27,-2.19 0.82,-3.11 0.55,-0.91 1.3,-1.63 2.26,-2.16 0.96,-0.52 2.03,-0.78 3.22,-0.78 0.96,0 1.84,0.17 2.64,0.51 0.79,0.33 1.46,0.82 2.01,1.46l-1.41 1.33c-0.85,-0.92 -1.9,-1.38 -3.14,-1.38 -0.81,0 -1.53,0.18 -2.17,0.53 -0.64,0.35 -1.14,0.84 -1.49,1.47 -0.36,0.63 -0.54,1.34 -0.54,2.13 0,0.8 0.18,1.51 0.54,2.14 0.35,0.63 0.85,1.12 1.49,1.47 0.64,0.35 1.36,0.53 2.17,0.53 1.24,0 2.29,-0.47 3.14,-1.4l1.41 1.35c-0.55,0.64 -1.22,1.12 -2.02,1.46 -0.8,0.34 -1.69,0.5 -2.65,0.5z"/>
  <polygon id="1" class="fil2" points="93.43,102.51 93.43,114.28 91.24,114.28 91.24,109.23 85.16,109.23 85.16,114.28 82.97,114.28 82.97,102.51 85.16,102.51 85.16,107.37 91.24,107.37 91.24,102.51 "/>
  <polygon class="fil2" points="81.21,16.55 81.21,28.31 79.02,28.31 79.02,23.27 72.94,23.27 72.94,28.31 70.76,28.31 70.76,16.55 72.94,16.55 72.94,21.41 79.02,21.41 79.02,16.55 "/>
  <path class="fil2" d="M76.2 200.38c-1.19,0 -2.26,-0.26 -3.22,-0.79 -0.95,-0.52 -1.71,-1.24 -2.25,-2.15 -0.54,-0.92 -0.81,-1.96 -0.81,-3.11 0,-1.16 0.27,-2.19 0.82,-3.11 0.55,-0.92 1.3,-1.64 2.26,-2.16 0.96,-0.52 2.03,-0.78 3.22,-0.78 0.96,0 1.84,0.16 2.64,0.5 0.79,0.34 1.46,0.82 2.01,1.46l-1.41 1.33c-0.85,-0.92 -1.9,-1.38 -3.14,-1.38 -0.81,0 -1.53,0.18 -2.17,0.53 -0.64,0.35 -1.14,0.84 -1.49,1.47 -0.36,0.63 -0.54,1.34 -0.54,2.14 0,0.79 0.18,1.5 0.54,2.13 0.35,0.63 0.85,1.12 1.49,1.47 0.64,0.35 1.36,0.53 2.17,0.53 1.24,0 2.29,-0.46 3.14,-1.39l1.41 1.34c-0.55,0.64 -1.22,1.13 -2.02,1.46 -0.8,0.34 -1.69,0.51 -2.65,0.51z"/>
  <polygon class="fil2" points="55.06,46.56 52.63,46.56 52.63,48.97 51.16,48.97 51.16,46.56 48.72,46.56 48.72,45.19 51.16,45.19 51.16,42.78 52.63,42.78 52.63,45.19 55.06,45.19 "/>
  <polygon class="fil2" points="137.69,58.97 141.48,58.97 141.48,60.4 137.69,60.4 "/>
  <path class="fil2" d="M137.72 203.48l0 1.35 -6.31 0 0 -1.07 3.4 -3.22c0.38,-0.37 0.64,-0.69 0.77,-0.96 0.14,-0.28 0.21,-0.55 0.21,-0.81 0,-0.4 -0.14,-0.71 -0.41,-0.92 -0.27,-0.21 -0.66,-0.32 -1.18,-0.32 -0.88,0 -1.54,0.3 -2.01,0.89l-1.11 -0.85c0.33,-0.45 0.78,-0.8 1.35,-1.05 0.57,-0.25 1.2,-0.37 1.9,-0.37 0.93,0 1.67,0.22 2.23,0.66 0.55,0.44 0.83,1.04 0.83,1.8 0,0.46 -0.1,0.9 -0.3,1.3 -0.19,0.41 -0.57,0.88 -1.12,1.4l-2.29 2.17 4.04 0z"/>
  <polygon class="fil2" points="116.4,188.45 116.4,200.21 114.6,200.21 108.12,192.24 108.12,200.21 105.95,200.21 105.95,188.45 107.75,188.45 114.23,196.41 114.23,188.45 "/>
  <polygon class="fil2" points="128.49,188.45 128.49,200.21 126.3,200.21 126.3,195.17 120.22,195.17 120.22,200.21 118.03,200.21 118.03,188.45 120.22,188.45 120.22,193.3 126.3,193.3 126.3,188.45 "/>
  <polygon class="fil2" points="104.22,189.83 101.79,189.83 101.79,192.24 100.31,192.24 100.31,189.83 97.88,189.83 97.88,188.46 100.31,188.46 100.31,186.05 101.79,186.05 101.79,188.46 104.22,188.46 "/>
  <polygon class="fil2" points="75.72,60.8 75.72,69.97 74.85,69.97 74.85,60.8 "/>
  <polygon class="fil2" points="56,50.68 65.16,50.68 65.16,51.54 56,51.54 "/>
  <polygon class="fil2" points="85.23,50.68 94.4,50.68 94.4,51.54 85.23,51.54 "/>
  <polygon class="fil2" points="112.59,44.56 120.53,39.98 120.96,40.73 113.02,45.31 "/>
  <polygon class="fil2" points="113.67,46.43 121.61,41.85 122.04,42.59 114.1,47.18 "/>
  <polygon class="fil2" points="114.1,56.91 122.04,61.49 121.61,62.24 113.67,57.66 "/>
  <polygon class="fil2" points="75.72,146.73 75.72,155.9 74.85,155.9 74.85,146.73 "/>
  <polygon class="fil2" points="75.72,204.02 75.72,213.18 74.85,213.18 74.85,204.02 "/>
  <path class="fil3" d="M85.23 192.82l9.17 0 0 0.86 -9.17 0 0 -0.86zm0 2.15l9.17 0 0 0.87 -9.17 0 0 -0.87z"/>
  <polygon class="fil2" points="75.72,118.09 75.72,127.26 74.85,127.26 74.85,118.09 "/>
  <polygon class="fil2" points="75.72,32.13 75.72,41.3 74.85,41.3 74.85,32.13 "/>
  <polygon class="fil2" points="75.72,89.44 75.72,98.61 74.85,98.61 74.85,89.44 "/>
  <polygon class="fil2" points="75.72,175.37 75.72,184.54 74.85,184.54 74.85,175.37 "/>
 </g>
</svg>
