<?xml version="1.0" encoding="UTF-8"?>
<!DOCTYPE svg PUBLIC "-//W3C//DTD SVG 1.1//EN" "http://www.w3.org/Graphics/SVG/1.1/DTD/svg11.dtd">
<!-- Creator: CorelDRAW 2018 (64 Bit) -->
<svg xmlns="http://www.w3.org/2000/svg" xml:space="preserve" width="450px" height="700px" version="1.1" style="shape-rendering:geometricPrecision; text-rendering:geometricPrecision; image-rendering:optimizeQuality; fill-rule:evenodd; clip-rule:evenodd"
viewBox="0 0 4844.32 7535.61"
 xmlns:xlink="http://www.w3.org/1999/xlink">
 <defs>
  <style type="text/css">
   <![CDATA[
    .fil0 {fill:none}
    .fil1 {fill:#DAEBF6}
    .fil2 {fill:black;fill-rule:nonzero}
   ]]>
  </style>
 </defs>
 <g id="Camada_x0020_1">
  <metadata id="CorelCorpID_0Corel-Layer"/>
  <rect class="fil0" x="-0.01" y="-0.01" width="4844.32" height="7535.61"/>
  <rect class="fil1" x="1676.13" y="1919.59" width="1816.72" height="4255.03" rx="161.48" ry="174.09"/>
  <polygon class="fil2" points="870.48,1327.84 870.48,1673.22 806.33,1673.22 806.33,1525.2 627.73,1525.2 627.73,1673.22 563.58,1673.22 563.58,1327.84 627.73,1327.84 627.73,1470.43 806.33,1470.43 806.33,1327.84 "/>
  <path class="fil2" d="M1051.43 1661.33c23.21,2.88 40.91,10.76 53.11,23.68 12.2,12.92 18.3,29.06 18.3,48.44 0,14.6 -3.71,27.87 -11.13,39.84 -7.41,11.96 -18.6,21.47 -33.55,28.53 -14.94,7.05 -33.19,10.58 -54.71,10.58 -17.94,0 -35.24,-2.57 -51.85,-7.72 -16.63,-5.14 -30.81,-12.26 -42.53,-21.35l20.1 -36.24c9.09,7.66 20.15,13.7 33.18,18.12 13.05,4.43 26.5,6.64 40.37,6.64 16.51,0 29.49,-3.41 38.94,-10.22 9.44,-6.82 14.17,-16.09 14.17,-27.81 0,-11.72 -4.49,-20.88 -13.45,-27.45 -8.98,-6.59 -22.67,-9.87 -41.09,-9.87l-22.97 0 0 -31.94 57.05 -67.82 -114.1 0 0 -39.11 171.17 0 0 31.22 -61.01 72.48z"/>
  <path class="fil2" d="M3127.23 2610.35l0 39.46 -185.15 0 0 -31.21 99.74 -94.74c11.26,-10.77 18.85,-20.15 22.8,-28.16 3.94,-8.02 5.91,-15.97 5.91,-23.87 0,-11.72 -3.94,-20.7 -11.83,-26.91 -7.9,-6.22 -19.5,-9.34 -34.82,-9.34 -25.59,0 -45.21,8.74 -58.84,26.21l-32.65 -25.12c9.8,-13.16 23.02,-23.39 39.64,-30.69 16.63,-7.29 35.23,-10.94 55.81,-10.94 27.27,0 49.04,6.46 65.3,19.37 16.27,12.92 24.4,30.51 24.4,52.76 0,13.63 -2.86,26.43 -8.61,38.4 -5.75,11.95 -16.74,25.59 -33.01,40.9l-67.1 63.88 118.41 0z"/>
  <path class="fil2" d="M3055.47 5866.25c23.2,2.87 40.9,10.76 53.11,23.67 12.19,12.92 18.29,29.07 18.29,48.45 0,14.59 -3.71,27.87 -11.12,39.83 -7.42,11.97 -18.61,21.48 -33.56,28.53 -14.94,7.06 -33.18,10.58 -54.71,10.58 -17.94,0 -35.23,-2.57 -51.85,-7.71 -16.63,-5.14 -30.81,-12.26 -42.53,-21.35l20.1 -36.24c9.09,7.65 20.15,13.69 33.19,18.12 13.04,4.42 26.49,6.64 40.37,6.64 16.5,0 29.48,-3.41 38.93,-10.23 9.45,-6.81 14.18,-16.08 14.18,-27.8 0,-11.73 -4.49,-20.88 -13.46,-27.45 -8.97,-6.59 -22.67,-9.87 -41.09,-9.87l-22.96 0 0 -31.94 57.05 -67.82 -114.1 0 0 -39.11 171.16 0 0 31.21 -61 72.49z"/>
  <path class="fil2" d="M3127.23 4292.41l0 39.46 -185.15 0 0 -31.21 99.74 -94.74c11.26,-10.77 18.85,-20.15 22.8,-28.16 3.94,-8.03 5.91,-15.97 5.91,-23.87 0,-11.72 -3.94,-20.7 -11.83,-26.91 -7.9,-6.22 -19.5,-9.34 -34.82,-9.34 -25.59,0 -45.21,8.74 -58.84,26.21l-32.65 -25.13c9.8,-13.16 23.02,-23.38 39.64,-30.68 16.63,-7.3 35.23,-10.94 55.81,-10.94 27.27,0 49.04,6.45 65.3,19.37 16.27,12.92 24.4,30.51 24.4,52.76 0,13.63 -2.86,26.43 -8.61,38.39 -5.75,11.96 -16.74,25.6 -33.01,40.91l-67.1 63.88 118.41 0z"/>
  <path class="fil2" d="M3127.23 3451.2l0 39.47 -185.15 0 0 -31.22 99.74 -94.74c11.26,-10.77 18.85,-20.15 22.8,-28.16 3.94,-8.02 5.91,-15.97 5.91,-23.86 0,-11.73 -3.94,-20.7 -11.83,-26.92 -7.9,-6.22 -19.5,-9.33 -34.82,-9.33 -25.59,0 -45.21,8.73 -58.84,26.2l-32.65 -25.12c9.8,-13.16 23.02,-23.39 39.64,-30.68 16.63,-7.3 35.23,-10.95 55.81,-10.95 27.27,0 49.04,6.46 65.3,19.38 16.27,12.91 24.4,30.5 24.4,52.75 0,13.63 -2.86,26.43 -8.61,38.4 -5.75,11.95 -16.74,25.59 -33.01,40.9l-67.1 63.88 118.41 0z"/>
  <path class="fil2" d="M3127.23 5133.26l0 39.46 -185.15 0 0 -31.21 99.74 -94.74c11.26,-10.77 18.85,-20.15 22.8,-28.16 3.94,-8.02 5.91,-15.97 5.91,-23.87 0,-11.72 -3.94,-20.7 -11.83,-26.91 -7.9,-6.22 -19.5,-9.34 -34.82,-9.34 -25.59,0 -45.21,8.74 -58.84,26.21l-32.65 -25.13c9.8,-13.16 23.02,-23.38 39.64,-30.68 16.63,-7.29 35.23,-10.94 55.81,-10.94 27.27,0 49.04,6.46 65.3,19.37 16.27,12.92 24.4,30.51 24.4,52.76 0,13.63 -2.86,26.43 -8.61,38.4 -5.75,11.95 -16.74,25.59 -33.01,40.9l-67.1 63.88 118.41 0z"/>
  <polygon class="fil2" points="1494.17,1327.84 1494.17,1673.22 1441.38,1673.22 1250.93,1439.35 1250.93,1673.22 1187.28,1673.22 1187.28,1327.84 1240.07,1327.84 1430.52,1561.71 1430.52,1327.84 "/>
  <path class="fil2" d="M2357.66 1678.15c-34.87,0 -66.36,-7.64 -94.49,-22.93 -28.12,-15.3 -50.17,-36.44 -66.11,-63.41 -15.96,-26.97 -23.95,-57.4 -23.95,-91.28 0,-33.88 8.07,-64.31 24.19,-91.28 16.12,-26.98 38.23,-48.11 66.36,-63.41 28.12,-15.29 59.62,-22.94 94.49,-22.94 28.29,0 54.1,4.94 77.46,14.8 23.36,9.87 43.09,24.18 59.21,42.93l-41.45 38.98c-24.99,-26.98 -55.75,-40.46 -92.26,-40.46 -23.68,0 -44.9,5.18 -63.65,15.54 -18.75,10.36 -33.38,24.76 -43.91,43.18 -10.53,18.41 -15.79,39.3 -15.79,62.66 0,23.36 5.26,44.25 15.79,62.66 10.53,18.42 25.16,32.81 43.91,43.18 18.75,10.36 39.97,15.53 63.65,15.53 36.51,0 67.27,-13.64 92.26,-40.95l41.45 39.48c-16.12,18.74 -35.93,33.06 -59.45,42.92 -23.52,9.87 -49.42,14.8 -77.71,14.8z"/>
  <path class="fil2" d="M3215.98 1678.15c-34.87,0 -66.36,-7.64 -94.49,-22.93 -28.12,-15.3 -50.17,-36.44 -66.11,-63.41 -15.96,-26.97 -23.94,-57.4 -23.94,-91.28 0,-33.88 8.06,-64.31 24.18,-91.28 16.12,-26.98 38.23,-48.11 66.36,-63.41 28.12,-15.29 59.62,-22.94 94.49,-22.94 28.29,0 54.1,4.94 77.46,14.8 23.36,9.87 43.09,24.18 59.21,42.93l-41.45 38.98c-24.99,-26.98 -55.75,-40.46 -92.25,-40.46 -23.69,0 -44.91,5.18 -63.65,15.54 -18.76,10.36 -33.39,24.76 -43.92,43.18 -10.53,18.41 -15.79,39.3 -15.79,62.66 0,23.36 5.26,44.25 15.79,62.66 10.53,18.42 25.16,32.81 43.92,43.18 18.74,10.36 39.96,15.53 63.65,15.53 36.5,0 67.26,-13.64 92.25,-40.95l41.45 39.48c-16.12,18.74 -35.93,33.06 -59.45,42.92 -23.52,9.87 -49.42,14.8 -77.71,14.8z"/>
  <path class="fil2" d="M3951.96 1260.45c-35.2,0 -66.93,-7.64 -95.22,-22.94 -28.29,-15.29 -50.49,-36.51 -66.62,-63.65 -16.12,-27.14 -24.18,-57.48 -24.18,-91.03 0,-33.56 8.06,-63.9 24.18,-91.04 16.13,-27.14 38.33,-48.36 66.62,-63.65 28.29,-15.3 60.02,-22.94 95.22,-22.94 35.19,0 66.94,7.64 95.23,22.94 28.29,15.29 50.49,36.43 66.61,63.41 16.11,26.96 24.17,57.39 24.17,91.28 0,33.88 -8.06,64.31 -24.17,91.27 -16.12,26.97 -38.32,48.12 -66.61,63.41 -28.29,15.3 -60.04,22.94 -95.23,22.94zm0 -56.25c23.02,0 43.75,-5.17 62.17,-15.54 18.43,-10.36 32.89,-24.83 43.42,-43.42 10.53,-18.59 15.79,-39.39 15.79,-62.41 0,-23.03 -5.26,-43.83 -15.79,-62.42 -10.53,-18.59 -24.99,-33.06 -43.42,-43.42 -18.42,-10.36 -39.15,-15.54 -62.17,-15.54 -23.03,0 -43.74,5.18 -62.17,15.54 -18.42,10.36 -32.89,24.83 -43.42,43.42 -10.52,18.59 -15.79,39.39 -15.79,62.42 0,23.02 5.27,43.82 15.79,62.41 10.53,18.59 25,33.06 43.42,43.42 18.43,10.37 39.14,15.54 62.17,15.54z"/>
  <path class="fil2" d="M3951.96 2095.87c-35.2,0 -66.93,-7.64 -95.22,-22.94 -28.29,-15.29 -50.49,-36.51 -66.62,-63.65 -16.12,-27.14 -24.18,-57.48 -24.18,-91.03 0,-33.56 8.06,-63.89 24.18,-91.04 16.13,-27.13 38.33,-48.35 66.62,-63.65 28.29,-15.3 60.02,-22.94 95.22,-22.94 35.19,0 66.94,7.64 95.23,22.94 28.29,15.3 50.49,36.43 66.61,63.41 16.11,26.97 24.17,57.39 24.17,91.28 0,33.88 -8.06,64.31 -24.17,91.28 -16.12,26.96 -38.32,48.11 -66.61,63.4 -28.29,15.3 -60.04,22.94 -95.23,22.94zm0 -56.25c23.02,0 43.75,-5.17 62.17,-15.54 18.43,-10.36 32.89,-24.83 43.42,-43.42 10.53,-18.59 15.79,-39.39 15.79,-62.41 0,-23.03 -5.26,-43.83 -15.79,-62.42 -10.53,-18.59 -24.99,-33.06 -43.42,-43.42 -18.42,-10.36 -39.15,-15.54 -62.17,-15.54 -23.03,0 -43.74,5.18 -62.17,15.54 -18.42,10.36 -32.89,24.83 -43.42,43.42 -10.52,18.59 -15.79,39.39 -15.79,62.42 0,23.02 5.27,43.82 15.79,62.41 10.53,18.59 25,33.06 43.42,43.42 18.43,10.37 39.14,15.54 62.17,15.54z"/>
  <path class="fil2" d="M2357.66 2519.16c-34.87,0 -66.36,-7.64 -94.49,-22.94 -28.12,-15.29 -50.17,-36.44 -66.11,-63.41 -15.96,-26.97 -23.95,-57.39 -23.95,-91.28 0,-33.88 8.07,-64.31 24.19,-91.28 16.12,-26.98 38.23,-48.11 66.36,-63.4 28.12,-15.3 59.62,-22.94 94.49,-22.94 28.29,0 54.1,4.93 77.46,14.8 23.36,9.87 43.09,24.17 59.21,42.92l-41.45 38.99c-24.99,-26.98 -55.75,-40.46 -92.26,-40.46 -23.68,0 -44.9,5.17 -63.65,15.54 -18.75,10.36 -33.38,24.75 -43.91,43.18 -10.53,18.41 -15.79,39.3 -15.79,62.65 0,23.36 5.26,44.25 15.79,62.66 10.53,18.43 25.16,32.82 43.91,43.18 18.75,10.36 39.97,15.54 63.65,15.54 36.51,0 67.27,-13.64 92.26,-40.96l41.45 39.48c-16.12,18.74 -35.93,33.06 -59.45,42.93 -23.52,9.86 -49.42,14.8 -77.71,14.8z"/>
  <polygon id="1" class="fil2" points="2863.4,2168.84 2863.4,2514.22 2799.25,2514.22 2799.25,2366.2 2620.65,2366.2 2620.65,2514.22 2556.5,2514.22 2556.5,2168.84 2620.65,2168.84 2620.65,2311.44 2799.25,2311.44 2799.25,2168.84 "/>
  <polygon class="fil2" points="2504.69,5532.75 2504.69,5878.14 2451.9,5878.14 2261.44,5644.26 2261.44,5878.14 2197.79,5878.14 2197.79,5532.75 2250.58,5532.75 2441.04,5766.63 2441.04,5532.75 "/>
  <polygon class="fil2" points="2859.46,5532.75 2859.46,5878.14 2795.31,5878.14 2795.31,5730.11 2616.71,5730.11 2616.71,5878.14 2552.56,5878.14 2552.56,5532.75 2616.71,5532.75 2616.71,5675.35 2795.31,5675.35 2795.31,5532.75 "/>
  <path class="fil2" d="M2357.66 4201.22c-34.87,0 -66.36,-7.65 -94.49,-22.94 -28.12,-15.3 -50.17,-36.44 -66.11,-63.41 -15.96,-26.97 -23.95,-57.39 -23.95,-91.28 0,-33.88 8.07,-64.31 24.19,-91.28 16.12,-26.98 38.23,-48.11 66.36,-63.41 28.12,-15.29 59.62,-22.93 94.49,-22.93 28.29,0 54.1,4.93 77.46,14.8 23.36,9.86 43.09,24.17 59.21,42.92l-41.45 38.98c-24.99,-26.98 -55.75,-40.45 -92.26,-40.45 -23.68,0 -44.9,5.17 -63.65,15.53 -18.75,10.37 -33.38,24.76 -43.91,43.18 -10.53,18.41 -15.79,39.3 -15.79,62.66 0,23.36 5.26,44.25 15.79,62.66 10.53,18.42 25.16,32.82 43.91,43.18 18.75,10.36 39.97,15.54 63.65,15.54 36.51,0 67.27,-13.65 92.26,-40.96l41.45 39.48c-16.12,18.74 -35.93,33.06 -59.45,42.93 -23.52,9.86 -49.42,14.8 -77.71,14.8z"/>
  <polygon id="1" class="fil2" points="2863.4,3850.9 2863.4,4196.28 2799.25,4196.28 2799.25,4048.26 2620.65,4048.26 2620.65,4196.28 2556.5,4196.28 2556.5,3850.9 2620.65,3850.9 2620.65,3993.5 2799.25,3993.5 2799.25,3850.9 "/>
  <path class="fil2" d="M2357.66 3360.01c-34.87,0 -66.36,-7.64 -94.49,-22.94 -28.12,-15.29 -50.17,-36.44 -66.11,-63.41 -15.96,-26.96 -23.95,-57.39 -23.95,-91.28 0,-33.88 8.07,-64.31 24.19,-91.27 16.12,-26.99 38.23,-48.12 66.36,-63.41 28.12,-15.3 59.62,-22.94 94.49,-22.94 28.29,0 54.1,4.93 77.46,14.8 23.36,9.87 43.09,24.17 59.21,42.92l-41.45 38.99c-24.99,-26.98 -55.75,-40.46 -92.26,-40.46 -23.68,0 -44.9,5.17 -63.65,15.54 -18.75,10.36 -33.38,24.75 -43.91,43.18 -10.53,18.41 -15.79,39.3 -15.79,62.65 0,23.36 5.26,44.25 15.79,62.66 10.53,18.43 25.16,32.82 43.91,43.18 18.75,10.36 39.97,15.54 63.65,15.54 36.51,0 67.27,-13.64 92.26,-40.95l41.45 39.47c-16.12,18.75 -35.93,33.06 -59.45,42.93 -23.52,9.87 -49.42,14.8 -77.71,14.8z"/>
  <polygon id="1" class="fil2" points="2863.4,3009.69 2863.4,3355.08 2799.25,3355.08 2799.25,3207.05 2620.65,3207.05 2620.65,3355.08 2556.5,3355.08 2556.5,3009.69 2620.65,3009.69 2620.65,3152.29 2799.25,3152.29 2799.25,3009.69 "/>
  <polygon class="fil2" points="2504.69,485.89 2504.69,831.28 2440.54,831.28 2440.54,683.25 2261.94,683.25 2261.94,831.28 2197.79,831.28 2197.79,485.89 2261.94,485.89 2261.94,628.49 2440.54,628.49 2440.54,485.89 "/>
  <path class="fil2" d="M2357.66 5042.07c-34.87,0 -66.36,-7.64 -94.49,-22.94 -28.12,-15.3 -50.17,-36.44 -66.11,-63.41 -15.96,-26.97 -23.95,-57.39 -23.95,-91.28 0,-33.88 8.07,-64.31 24.19,-91.28 16.12,-26.98 38.23,-48.11 66.36,-63.4 28.12,-15.3 59.62,-22.94 94.49,-22.94 28.29,0 54.1,4.93 77.46,14.8 23.36,9.86 43.09,24.17 59.21,42.92l-41.45 38.99c-24.99,-26.98 -55.75,-40.46 -92.26,-40.46 -23.68,0 -44.9,5.17 -63.65,15.54 -18.75,10.36 -33.38,24.75 -43.91,43.17 -10.53,18.42 -15.79,39.31 -15.79,62.66 0,23.36 5.26,44.25 15.79,62.66 10.53,18.42 25.16,32.82 43.91,43.18 18.75,10.36 39.97,15.54 63.65,15.54 36.51,0 67.27,-13.65 92.26,-40.96l41.45 39.48c-16.12,18.74 -35.93,33.06 -59.45,42.93 -23.52,9.86 -49.42,14.8 -77.71,14.8z"/>
  <polygon id="1" class="fil2" points="2863.4,4691.75 2863.4,5037.13 2799.25,5037.13 2799.25,4889.11 2620.65,4889.11 2620.65,5037.13 2556.5,5037.13 2556.5,4691.75 2620.65,4691.75 2620.65,4834.35 2799.25,4834.35 2799.25,4691.75 "/>
  <polygon class="fil2" points="1737,1367 1665.54,1367 1665.54,1437.64 1622.35,1437.64 1622.35,1367 1550.89,1367 1550.89,1326.63 1622.35,1326.63 1622.35,1255.99 1665.54,1255.99 1665.54,1326.63 1737,1326.63 "/>
  <polygon class="fil2" points="4163.03,1731.29 4274.06,1731.29 4274.06,1773.27 4163.03,1773.27 "/>
  <polygon class="fil2" points="2146.99,5573.42 2075.53,5573.42 2075.53,5644.06 2032.34,5644.06 2032.34,5573.42 1960.88,5573.42 1960.88,5533.05 2032.34,5533.05 2032.34,5462.4 2075.53,5462.4 2075.53,5533.05 2146.99,5533.05 "/>
  <polygon class="fil2" points="2343.48,1785.02 2343.48,2054.17 2318.05,2054.17 2318.05,1785.02 "/>
  <polygon class="fil2" points="1764.46,1487.82 2033.61,1487.82 2033.61,1513.24 1764.46,1513.24 "/>
  <polygon class="fil2" points="2622.78,1487.82 2891.93,1487.82 2891.93,1513.24 2622.78,1513.24 "/>
  <polygon class="fil2" points="3426.08,1308.33 3659.16,1173.77 3671.77,1195.72 3438.69,1330.28 "/>
  <polygon class="fil2" points="3457.73,1363.17 3690.82,1228.61 3703.43,1250.56 3470.35,1385.12 "/>
  <polygon class="fil2" points="3470.35,1670.79 3703.43,1805.35 3690.82,1827.3 3457.73,1692.74 "/>
  <polygon class="fil2" points="2343.48,5148.93 2343.48,5418.08 2318.05,5418.08 2318.05,5148.93 "/>
  <polygon class="fil2" points="2343.48,3467.08 2343.48,3736.23 2318.05,3736.23 2318.05,3467.08 "/>
  <polygon class="fil2" points="2343.48,943.28 2343.48,1212.43 2318.05,1212.43 2318.05,943.28 "/>
  <polygon class="fil2" points="2343.48,2625.87 2343.48,2895.02 2318.05,2895.02 2318.05,2625.87 "/>
  <polygon class="fil2" points="2343.48,4307.93 2343.48,4577.08 2318.05,4577.08 2318.05,4307.93 "/>
 </g>
</svg>
