<?xml version="1.0" encoding="UTF-8"?>
<!DOCTYPE svg PUBLIC "-//W3C//DTD SVG 1.1//EN" "http://www.w3.org/Graphics/SVG/1.1/DTD/svg11.dtd">
<!-- Creator: CorelDRAW 2018 (64 Bit) -->
<svg xmlns="http://www.w3.org/2000/svg" xml:space="preserve" width="450px" height="700px" version="1.1" style="shape-rendering:geometricPrecision; text-rendering:geometricPrecision; image-rendering:optimizeQuality; fill-rule:evenodd; clip-rule:evenodd"
viewBox="0 0 105.17 163.6"
 xmlns:xlink="http://www.w3.org/1999/xlink">
 <defs>
  <style type="text/css">
   <![CDATA[
    .fil0 {fill:none}
    .fil1 {fill:#F6ECD8}
    .fil2 {fill:black;fill-rule:nonzero}
   ]]>
  </style>
 </defs>
 <g id="Camada_x0020_1">
  <metadata id="CorelCorpID_0Corel-Layer"/>
  <rect class="fil0" width="105.17" height="163.6"/>
  <rect class="fil1" x="22.87" y="42.91" width="57.45" height="35.04" rx="5.75" ry="1.61"/>
  <polygon class="fil2" points="18.9,28.83 18.9,36.33 17.51,36.33 17.51,33.11 13.63,33.11 13.63,36.33 12.24,36.33 12.24,28.83 13.63,28.83 13.63,31.92 17.51,31.92 17.51,28.83 "/>
  <path class="fil2" d="M22.83 36.07c0.5,0.06 0.89,0.23 1.15,0.51 0.27,0.28 0.4,0.63 0.4,1.05 0,0.32 -0.08,0.61 -0.24,0.87 -0.16,0.26 -0.41,0.47 -0.73,0.62 -0.33,0.15 -0.72,0.23 -1.19,0.23 -0.39,0 -0.77,-0.06 -1.13,-0.17 -0.36,-0.11 -0.66,-0.27 -0.92,-0.46l0.44 -0.79c0.19,0.17 0.43,0.3 0.72,0.39 0.28,0.1 0.57,0.15 0.87,0.15 0.36,0 0.64,-0.08 0.85,-0.22 0.2,-0.15 0.31,-0.35 0.31,-0.61 0,-0.25 -0.1,-0.45 -0.29,-0.59 -0.2,-0.15 -0.5,-0.22 -0.9,-0.22l-0.5 0 0 -0.69 1.24 -1.47 -2.47 0 0 -0.85 3.71 0 0 0.67 -1.32 1.58z"/>
  <polygon class="fil2" points="32.44,28.83 32.44,36.33 31.29,36.33 27.16,31.25 27.16,36.33 25.78,36.33 25.78,28.83 26.92,28.83 31.06,33.91 31.06,28.83 "/>
  <path class="fil2" d="M51.19 36.43c-0.76,0 -1.44,-0.16 -2.06,-0.49 -0.61,-0.34 -1.08,-0.8 -1.43,-1.38 -0.35,-0.59 -0.52,-1.25 -0.52,-1.98 0,-0.74 0.17,-1.4 0.52,-1.98 0.35,-0.59 0.83,-1.05 1.45,-1.38 0.61,-0.33 1.29,-0.5 2.05,-0.5 0.61,0 1.17,0.11 1.68,0.32 0.51,0.22 0.93,0.53 1.28,0.93l-0.9 0.85c-0.54,-0.59 -1.21,-0.88 -2,-0.88 -0.51,0 -0.97,0.11 -1.38,0.34 -0.41,0.22 -0.73,0.54 -0.95,0.94 -0.23,0.4 -0.35,0.85 -0.35,1.36 0,0.5 0.12,0.96 0.35,1.36 0.22,0.4 0.54,0.71 0.95,0.94 0.41,0.22 0.87,0.33 1.38,0.33 0.79,0 1.46,-0.29 2,-0.89l0.9 0.86c-0.35,0.41 -0.78,0.72 -1.29,0.93 -0.51,0.22 -1.07,0.32 -1.68,0.32z"/>
  <path class="fil2" d="M69.82 36.43c-0.76,0 -1.44,-0.16 -2.05,-0.49 -0.61,-0.34 -1.09,-0.8 -1.44,-1.38 -0.34,-0.59 -0.52,-1.25 -0.52,-1.98 0,-0.74 0.18,-1.4 0.53,-1.98 0.35,-0.59 0.83,-1.05 1.44,-1.38 0.61,-0.33 1.29,-0.5 2.05,-0.5 0.62,0 1.18,0.11 1.68,0.32 0.51,0.22 0.94,0.53 1.29,0.93l-0.9 0.85c-0.54,-0.59 -1.21,-0.88 -2,-0.88 -0.52,0 -0.98,0.11 -1.39,0.34 -0.4,0.22 -0.72,0.54 -0.95,0.94 -0.23,0.4 -0.34,0.85 -0.34,1.36 0,0.5 0.11,0.96 0.34,1.36 0.23,0.4 0.55,0.71 0.95,0.94 0.41,0.22 0.87,0.33 1.39,0.33 0.79,0 1.46,-0.29 2,-0.89l0.9 0.86c-0.35,0.41 -0.78,0.72 -1.29,0.93 -0.51,0.22 -1.07,0.32 -1.69,0.32z"/>
  <path class="fil2" d="M85.8 27.37c-0.76,0 -1.45,-0.17 -2.07,-0.5 -0.61,-0.34 -1.09,-0.8 -1.44,-1.38 -0.35,-0.59 -0.53,-1.25 -0.53,-1.98 0,-0.73 0.18,-1.39 0.53,-1.98 0.35,-0.59 0.83,-1.05 1.44,-1.38 0.62,-0.33 1.31,-0.5 2.07,-0.5 0.76,0 1.45,0.17 2.07,0.5 0.61,0.33 1.09,0.79 1.44,1.38 0.35,0.58 0.53,1.24 0.53,1.98 0,0.73 -0.18,1.39 -0.53,1.98 -0.35,0.59 -0.83,1.04 -1.44,1.38 -0.62,0.33 -1.31,0.5 -2.07,0.5zm0 -1.23c0.5,0 0.95,-0.11 1.35,-0.33 0.4,-0.23 0.71,-0.54 0.94,-0.95 0.23,-0.4 0.34,-0.85 0.34,-1.35 0,-0.5 -0.11,-0.95 -0.34,-1.36 -0.23,-0.4 -0.54,-0.71 -0.94,-0.94 -0.4,-0.22 -0.85,-0.34 -1.35,-0.34 -0.5,0 -0.95,0.12 -1.35,0.34 -0.4,0.23 -0.71,0.54 -0.94,0.94 -0.23,0.41 -0.35,0.86 -0.35,1.36 0,0.5 0.12,0.95 0.35,1.35 0.23,0.41 0.54,0.72 0.94,0.95 0.4,0.22 0.85,0.33 1.35,0.33z"/>
  <path class="fil2" d="M85.8 45.5c-0.76,0 -1.45,-0.16 -2.07,-0.5 -0.61,-0.33 -1.09,-0.79 -1.44,-1.38 -0.35,-0.59 -0.53,-1.25 -0.53,-1.97 0,-0.73 0.18,-1.39 0.53,-1.98 0.35,-0.59 0.83,-1.05 1.44,-1.38 0.62,-0.33 1.31,-0.5 2.07,-0.5 0.76,0 1.45,0.17 2.07,0.5 0.61,0.33 1.09,0.79 1.44,1.37 0.35,0.59 0.53,1.25 0.53,1.99 0,0.73 -0.18,1.39 -0.53,1.98 -0.35,0.58 -0.83,1.04 -1.44,1.37 -0.62,0.34 -1.31,0.5 -2.07,0.5zm0 -1.22c0.5,0 0.95,-0.11 1.35,-0.34 0.4,-0.22 0.71,-0.54 0.94,-0.94 0.23,-0.4 0.34,-0.85 0.34,-1.35 0,-0.5 -0.11,-0.96 -0.34,-1.36 -0.23,-0.4 -0.54,-0.72 -0.94,-0.94 -0.4,-0.23 -0.85,-0.34 -1.35,-0.34 -0.5,0 -0.95,0.11 -1.35,0.34 -0.4,0.22 -0.71,0.54 -0.94,0.94 -0.23,0.4 -0.35,0.86 -0.35,1.36 0,0.5 0.12,0.95 0.35,1.35 0.23,0.4 0.54,0.72 0.94,0.94 0.4,0.23 0.85,0.34 1.35,0.34z"/>
  <polygon class="fil2" points="54.38,10.55 54.38,18.05 52.99,18.05 52.99,14.83 49.11,14.83 49.11,18.05 47.72,18.05 47.72,10.55 49.11,10.55 49.11,13.64 52.99,13.64 52.99,10.55 "/>
  <polygon class="fil2" points="37.71,29.68 36.16,29.68 36.16,31.21 35.22,31.21 35.22,29.68 33.67,29.68 33.67,28.8 35.22,28.8 35.22,27.27 36.16,27.27 36.16,28.8 37.71,28.8 "/>
  <polygon class="fil2" points="90.38,37.59 92.79,37.59 92.79,38.5 90.38,38.5 "/>
  <polygon class="fil2" points="38.31,32.3 44.15,32.3 44.15,32.85 38.31,32.85 "/>
  <polygon class="fil2" points="56.94,32.3 62.79,32.3 62.79,32.85 56.94,32.85 "/>
  <polygon class="fil2" points="74.38,28.4 79.44,25.48 79.72,25.96 74.66,28.88 "/>
  <polygon class="fil2" points="75.07,29.6 80.13,26.67 80.4,27.15 75.34,30.07 "/>
  <polygon class="fil2" points="75.34,36.27 80.4,39.2 80.13,39.67 75.07,36.75 "/>
  <path class="fil2" d="M74.86 70.4c0.5,0.06 0.89,0.23 1.15,0.51 0.27,0.28 0.4,0.63 0.4,1.05 0,0.32 -0.08,0.61 -0.24,0.87 -0.16,0.26 -0.41,0.46 -0.73,0.62 -0.33,0.15 -0.72,0.23 -1.19,0.23 -0.39,0 -0.76,-0.06 -1.13,-0.17 -0.36,-0.11 -0.66,-0.27 -0.92,-0.46l0.44 -0.79c0.19,0.16 0.44,0.3 0.72,0.39 0.28,0.1 0.57,0.15 0.87,0.15 0.36,0 0.64,-0.08 0.85,-0.23 0.2,-0.14 0.31,-0.35 0.31,-0.6 0,-0.25 -0.1,-0.45 -0.29,-0.6 -0.2,-0.14 -0.5,-0.21 -0.9,-0.21l-0.5 0 0 -0.69 1.24 -1.48 -2.47 0 0 -0.84 3.71 0 0 0.67 -1.32 1.58z"/>
  <path class="fil2" d="M59.78 70.76c-0.76,0 -1.44,-0.16 -2.05,-0.5 -0.61,-0.33 -1.09,-0.79 -1.44,-1.37 -0.35,-0.59 -0.52,-1.25 -0.52,-1.98 0,-0.74 0.18,-1.4 0.53,-1.99 0.35,-0.58 0.83,-1.04 1.44,-1.37 0.61,-0.33 1.29,-0.5 2.05,-0.5 0.61,0 1.17,0.11 1.68,0.32 0.51,0.21 0.94,0.53 1.29,0.93l-0.9 0.85c-0.55,-0.59 -1.21,-0.88 -2.01,-0.88 -0.51,0 -0.97,0.11 -1.38,0.34 -0.41,0.22 -0.72,0.54 -0.95,0.94 -0.23,0.39 -0.34,0.85 -0.34,1.36 0,0.5 0.11,0.96 0.34,1.36 0.23,0.4 0.54,0.71 0.95,0.93 0.41,0.23 0.87,0.34 1.38,0.34 0.8,0 1.46,-0.3 2.01,-0.89l0.9 0.86c-0.35,0.41 -0.78,0.72 -1.29,0.93 -0.52,0.21 -1.08,0.32 -1.69,0.32z"/>
  <polygon id="1" class="fil2" points="70.76,63.16 70.76,70.65 69.37,70.65 69.37,67.44 65.49,67.44 65.49,70.65 64.1,70.65 64.1,63.16 65.49,63.16 65.49,66.25 69.37,66.25 69.37,63.16 "/>
  <path class="fil2" d="M51.19 54.69c-0.76,0 -1.44,-0.16 -2.06,-0.5 -0.61,-0.33 -1.08,-0.79 -1.43,-1.37 -0.35,-0.59 -0.52,-1.25 -0.52,-1.98 0,-0.74 0.17,-1.4 0.52,-1.99 0.35,-0.58 0.83,-1.04 1.45,-1.37 0.61,-0.33 1.29,-0.5 2.05,-0.5 0.61,0 1.17,0.11 1.68,0.32 0.51,0.22 0.93,0.53 1.28,0.93l-0.9 0.85c-0.54,-0.59 -1.21,-0.88 -2,-0.88 -0.51,0 -0.97,0.11 -1.38,0.34 -0.41,0.22 -0.73,0.54 -0.95,0.94 -0.23,0.4 -0.35,0.85 -0.35,1.36 0,0.5 0.12,0.96 0.35,1.36 0.22,0.4 0.54,0.71 0.95,0.93 0.41,0.23 0.87,0.34 1.38,0.34 0.79,0 1.46,-0.3 2,-0.89l0.9 0.86c-0.35,0.41 -0.78,0.72 -1.29,0.93 -0.51,0.22 -1.07,0.32 -1.68,0.32z"/>
  <polygon id="1" class="fil2" points="62.17,47.09 62.17,54.59 60.77,54.59 60.77,51.37 56.9,51.37 56.9,54.59 55.5,54.59 55.5,47.09 56.9,47.09 56.9,50.18 60.77,50.18 60.77,47.09 "/>
  <polygon class="fil2" points="35.87,63.16 35.87,70.65 34.48,70.65 34.48,67.44 30.6,67.44 30.6,70.65 29.21,70.65 29.21,63.16 30.6,63.16 30.6,66.25 34.48,66.25 34.48,63.16 "/>
  <path id="1" class="fil2" d="M41.39 70.76c-0.76,0 -1.45,-0.16 -2.07,-0.5 -0.61,-0.33 -1.09,-0.79 -1.44,-1.38 -0.35,-0.59 -0.53,-1.25 -0.53,-1.97 0,-0.73 0.18,-1.39 0.53,-1.98 0.35,-0.59 0.83,-1.05 1.44,-1.38 0.62,-0.33 1.31,-0.5 2.07,-0.5 0.76,0 1.45,0.17 2.07,0.5 0.61,0.33 1.09,0.79 1.44,1.37 0.35,0.59 0.53,1.25 0.53,1.99 0,0.73 -0.18,1.39 -0.53,1.98 -0.35,0.58 -0.83,1.04 -1.44,1.37 -0.62,0.34 -1.31,0.5 -2.07,0.5zm0 -1.22c0.5,0 0.95,-0.11 1.35,-0.34 0.4,-0.22 0.71,-0.54 0.94,-0.94 0.23,-0.4 0.34,-0.85 0.34,-1.35 0,-0.5 -0.11,-0.96 -0.34,-1.36 -0.23,-0.4 -0.54,-0.72 -0.94,-0.94 -0.4,-0.23 -0.85,-0.34 -1.35,-0.34 -0.5,0 -0.95,0.11 -1.35,0.34 -0.4,0.22 -0.71,0.54 -0.94,0.94 -0.23,0.4 -0.35,0.86 -0.35,1.36 0,0.5 0.12,0.95 0.35,1.35 0.23,0.4 0.54,0.72 0.94,0.94 0.4,0.23 0.85,0.34 1.35,0.34z"/>
  <g id="_2458941172288">
   <polygon class="fil2" points="54.18,56.19 57.1,61.25 56.62,61.53 53.7,56.47 "/>
   <polygon class="fil2" points="47.5,56.47 44.58,61.53 44.1,61.25 47.02,56.19 "/>
  </g>
  <polygon class="fil2" points="50.88,38.75 50.88,44.6 50.33,44.6 50.33,38.75 "/>
  <polygon class="fil2" points="50.88,20.48 50.88,26.32 50.33,26.32 50.33,20.48 "/>
 </g>
</svg>
