<?xml version="1.0" encoding="UTF-8"?>
<!DOCTYPE svg PUBLIC "-//W3C//DTD SVG 1.1//EN" "http://www.w3.org/Graphics/SVG/1.1/DTD/svg11.dtd">
<!-- Creator: CorelDRAW 2018 (64 Bit) -->
<svg xmlns="http://www.w3.org/2000/svg" xml:space="preserve" width="165px" height="139px" version="1.1" style="shape-rendering:geometricPrecision; text-rendering:geometricPrecision; image-rendering:optimizeQuality; fill-rule:evenodd; clip-rule:evenodd"
viewBox="0 0 165 138.61"
 xmlns:xlink="http://www.w3.org/1999/xlink">
 <defs>
  <style type="text/css">
   <![CDATA[
    .fil0 {fill:none}
    .fil1 {fill:#F6ECD8}
    .fil2 {fill:black;fill-rule:nonzero}
   ]]>
  </style>
 </defs>
 <g id="Camada_x0020_1">
  <metadata id="CorelCorpID_0Corel-Layer"/>
  <rect class="fil0" width="165" height="138.61"/>
  <rect class="fil1" x="35.88" y="67.32" width="90.13" height="54.98" rx="9.02" ry="2.53"/>
  <polygon class="fil2" points="29.65,45.23 29.65,56.99 27.46,56.99 27.46,51.95 21.38,51.95 21.38,56.99 19.2,56.99 19.2,45.23 21.38,45.23 21.38,50.08 27.46,50.08 27.46,45.23 "/>
  <path class="fil2" d="M35.81 56.59c0.79,0.09 1.4,0.36 1.81,0.8 0.42,0.44 0.62,0.99 0.62,1.65 0,0.5 -0.12,0.95 -0.37,1.36 -0.26,0.41 -0.64,0.73 -1.15,0.97 -0.51,0.24 -1.13,0.36 -1.86,0.36 -0.61,0 -1.2,-0.09 -1.77,-0.26 -0.56,-0.18 -1.05,-0.42 -1.45,-0.73l0.69 -1.23c0.31,0.26 0.69,0.46 1.13,0.61 0.44,0.15 0.9,0.23 1.37,0.23 0.57,0 1.01,-0.12 1.33,-0.35 0.32,-0.23 0.48,-0.55 0.48,-0.95 0,-0.39 -0.15,-0.71 -0.45,-0.93 -0.31,-0.22 -0.78,-0.34 -1.4,-0.34l-0.79 0 0 -1.08 1.95 -2.31 -3.89 0 0 -1.34 5.83 0 0 1.07 -2.08 2.47z"/>
  <polygon class="fil2" points="50.89,45.23 50.89,56.99 49.09,56.99 42.61,49.02 42.61,56.99 40.44,56.99 40.44,45.23 42.24,45.23 48.72,53.19 48.72,45.23 "/>
  <path class="fil2" d="M80.3 57.16c-1.18,0 -2.26,-0.26 -3.21,-0.78 -0.96,-0.52 -1.71,-1.24 -2.26,-2.16 -0.54,-0.92 -0.81,-1.96 -0.81,-3.11 0,-1.16 0.27,-2.19 0.82,-3.11 0.55,-0.92 1.3,-1.64 2.26,-2.16 0.96,-0.52 2.03,-0.78 3.22,-0.78 0.96,0 1.84,0.17 2.64,0.5 0.79,0.34 1.47,0.83 2.02,1.46l-1.42 1.33c-0.85,-0.92 -1.9,-1.38 -3.14,-1.38 -0.81,0 -1.53,0.18 -2.17,0.53 -0.64,0.36 -1.13,0.85 -1.49,1.47 -0.36,0.63 -0.54,1.34 -0.54,2.14 0,0.79 0.18,1.51 0.54,2.13 0.36,0.63 0.85,1.12 1.49,1.47 0.64,0.36 1.36,0.53 2.17,0.53 1.24,0 2.29,-0.46 3.14,-1.39l1.42 1.34c-0.55,0.64 -1.23,1.13 -2.03,1.46 -0.8,0.34 -1.68,0.51 -2.65,0.51z"/>
  <path class="fil2" d="M109.54 57.16c-1.19,0 -2.26,-0.26 -3.22,-0.78 -0.96,-0.52 -1.71,-1.24 -2.25,-2.16 -0.55,-0.92 -0.82,-1.96 -0.82,-3.11 0,-1.16 0.28,-2.19 0.83,-3.11 0.55,-0.92 1.3,-1.64 2.26,-2.16 0.95,-0.52 2.03,-0.78 3.22,-0.78 0.96,0 1.84,0.17 2.63,0.5 0.8,0.34 1.47,0.83 2.02,1.46l-1.41 1.33c-0.85,-0.92 -1.9,-1.38 -3.14,-1.38 -0.81,0 -1.53,0.18 -2.17,0.53 -0.64,0.36 -1.14,0.85 -1.5,1.47 -0.36,0.63 -0.54,1.34 -0.54,2.14 0,0.79 0.18,1.51 0.54,2.13 0.36,0.63 0.86,1.12 1.5,1.47 0.64,0.36 1.36,0.53 2.17,0.53 1.24,0 2.29,-0.46 3.14,-1.39l1.41 1.34c-0.55,0.64 -1.22,1.13 -2.02,1.46 -0.81,0.34 -1.69,0.51 -2.65,0.51z"/>
  <path class="fil2" d="M134.61 42.93c-1.2,0 -2.28,-0.26 -3.25,-0.78 -0.96,-0.52 -1.72,-1.24 -2.27,-2.17 -0.55,-0.92 -0.82,-1.96 -0.82,-3.1 0,-1.14 0.27,-2.17 0.82,-3.1 0.55,-0.92 1.31,-1.65 2.27,-2.17 0.97,-0.52 2.05,-0.78 3.25,-0.78 1.19,0 2.28,0.26 3.24,0.78 0.96,0.52 1.72,1.24 2.27,2.16 0.55,0.92 0.82,1.96 0.82,3.11 0,1.16 -0.27,2.19 -0.82,3.11 -0.55,0.92 -1.31,1.64 -2.27,2.16 -0.96,0.52 -2.05,0.78 -3.24,0.78zm0 -1.91c0.78,0 1.49,-0.18 2.11,-0.53 0.63,-0.36 1.12,-0.85 1.48,-1.48 0.36,-0.64 0.54,-1.34 0.54,-2.13 0,-0.78 -0.18,-1.49 -0.54,-2.12 -0.36,-0.64 -0.85,-1.13 -1.48,-1.48 -0.62,-0.36 -1.33,-0.53 -2.11,-0.53 -0.79,0 -1.49,0.17 -2.12,0.53 -0.63,0.35 -1.12,0.84 -1.48,1.48 -0.36,0.63 -0.54,1.34 -0.54,2.12 0,0.79 0.18,1.49 0.54,2.13 0.36,0.63 0.85,1.12 1.48,1.48 0.63,0.35 1.33,0.53 2.12,0.53z"/>
  <path class="fil2" d="M134.61 71.39c-1.2,0 -2.28,-0.26 -3.25,-0.78 -0.96,-0.53 -1.72,-1.25 -2.27,-2.17 -0.55,-0.93 -0.82,-1.96 -0.82,-3.1 0,-1.15 0.27,-2.18 0.82,-3.1 0.55,-0.93 1.31,-1.65 2.27,-2.17 0.97,-0.52 2.05,-0.78 3.25,-0.78 1.19,0 2.28,0.26 3.24,0.78 0.96,0.52 1.72,1.24 2.27,2.16 0.55,0.92 0.82,1.95 0.82,3.11 0,1.15 -0.27,2.19 -0.82,3.11 -0.55,0.91 -1.31,1.63 -2.27,2.16 -0.96,0.52 -2.05,0.78 -3.24,0.78zm0 -1.92c0.78,0 1.49,-0.18 2.11,-0.53 0.63,-0.35 1.12,-0.84 1.48,-1.48 0.36,-0.63 0.54,-1.34 0.54,-2.12 0,-0.79 -0.18,-1.5 -0.54,-2.13 -0.36,-0.63 -0.85,-1.13 -1.48,-1.48 -0.62,-0.35 -1.33,-0.53 -2.11,-0.53 -0.79,0 -1.49,0.18 -2.12,0.53 -0.63,0.35 -1.12,0.85 -1.48,1.48 -0.36,0.63 -0.54,1.34 -0.54,2.13 0,0.78 0.18,1.49 0.54,2.12 0.36,0.64 0.85,1.13 1.48,1.48 0.63,0.35 1.33,0.53 2.12,0.53z"/>
  <polygon class="fil2" points="85.31,16.55 85.31,28.31 83.13,28.31 83.13,23.27 77.04,23.27 77.04,28.31 74.86,28.31 74.86,16.55 77.04,16.55 77.04,21.41 83.13,21.41 83.13,16.55 "/>
  <polygon class="fil2" points="59.16,46.56 56.73,46.56 56.73,48.97 55.26,48.97 55.26,46.56 52.82,46.56 52.82,45.19 55.26,45.19 55.26,42.78 56.73,42.78 56.73,45.19 59.16,45.19 "/>
  <polygon class="fil2" points="141.8,58.97 145.58,58.97 145.58,60.4 141.8,60.4 "/>
  <polygon class="fil2" points="60.1,50.68 69.27,50.68 69.27,51.54 60.1,51.54 "/>
  <polygon class="fil2" points="89.33,50.68 98.5,50.68 98.5,51.54 89.33,51.54 "/>
  <polygon class="fil2" points="116.69,44.56 124.63,39.98 125.06,40.73 117.12,45.31 "/>
  <polygon class="fil2" points="117.77,46.43 125.71,41.85 126.14,42.59 118.2,47.18 "/>
  <polygon class="fil2" points="118.2,56.91 126.14,61.49 125.71,62.24 117.77,57.66 "/>
  <path class="fil2" d="M117.44 110.44c0.79,0.1 1.39,0.37 1.81,0.81 0.41,0.44 0.62,0.99 0.62,1.65 0,0.5 -0.12,0.95 -0.38,1.35 -0.25,0.41 -0.63,0.74 -1.14,0.98 -0.51,0.24 -1.13,0.36 -1.86,0.36 -0.61,0 -1.2,-0.09 -1.77,-0.27 -0.57,-0.17 -1.05,-0.41 -1.45,-0.72l0.69 -1.24c0.31,0.26 0.68,0.47 1.13,0.62 0.44,0.15 0.9,0.23 1.37,0.23 0.56,0 1.01,-0.12 1.33,-0.35 0.32,-0.23 0.48,-0.55 0.48,-0.95 0,-0.4 -0.15,-0.71 -0.46,-0.93 -0.3,-0.23 -0.77,-0.34 -1.4,-0.34l-0.78 0 0 -1.09 1.94 -2.31 -3.88 0 0 -1.33 5.83 0 0 1.06 -2.08 2.47z"/>
  <path class="fil2" d="M93.78 111.01c-1.18,0 -2.26,-0.26 -3.22,-0.78 -0.95,-0.52 -1.7,-1.24 -2.25,-2.16 -0.54,-0.91 -0.81,-1.95 -0.81,-3.11 0,-1.15 0.27,-2.19 0.82,-3.1 0.55,-0.92 1.3,-1.64 2.26,-2.16 0.96,-0.53 2.03,-0.79 3.22,-0.79 0.96,0 1.84,0.17 2.64,0.51 0.79,0.33 1.47,0.82 2.01,1.46l-1.41 1.33c-0.85,-0.92 -1.9,-1.38 -3.14,-1.38 -0.81,0 -1.53,0.18 -2.17,0.53 -0.64,0.35 -1.13,0.84 -1.49,1.47 -0.36,0.63 -0.54,1.34 -0.54,2.13 0,0.8 0.18,1.51 0.54,2.14 0.36,0.63 0.85,1.12 1.49,1.47 0.64,0.35 1.36,0.53 2.17,0.53 1.24,0 2.29,-0.47 3.14,-1.4l1.41 1.35c-0.54,0.64 -1.22,1.12 -2.02,1.46 -0.8,0.34 -1.68,0.5 -2.65,0.5z"/>
  <polygon id="1" class="fil2" points="111.01,99.08 111.01,110.85 108.82,110.85 108.82,105.8 102.74,105.8 102.74,110.85 100.56,110.85 100.56,99.08 102.74,99.08 102.74,103.94 108.82,103.94 108.82,99.08 "/>
  <path class="fil2" d="M80.3 85.8c-1.18,0 -2.26,-0.26 -3.21,-0.78 -0.96,-0.52 -1.71,-1.24 -2.26,-2.16 -0.54,-0.92 -0.81,-1.95 -0.81,-3.11 0,-1.15 0.27,-2.19 0.82,-3.11 0.55,-0.91 1.3,-1.63 2.26,-2.15 0.96,-0.53 2.03,-0.79 3.22,-0.79 0.96,0 1.84,0.17 2.64,0.51 0.79,0.33 1.47,0.82 2.02,1.46l-1.42 1.33c-0.85,-0.92 -1.9,-1.38 -3.14,-1.38 -0.81,0 -1.53,0.18 -2.17,0.53 -0.64,0.35 -1.13,0.84 -1.49,1.47 -0.36,0.63 -0.54,1.34 -0.54,2.13 0,0.8 0.18,1.51 0.54,2.14 0.36,0.63 0.85,1.12 1.49,1.47 0.64,0.35 1.36,0.53 2.17,0.53 1.24,0 2.29,-0.47 3.14,-1.4l1.42 1.35c-0.55,0.64 -1.23,1.12 -2.03,1.46 -0.8,0.34 -1.68,0.5 -2.65,0.5z"/>
  <polygon id="1" class="fil2" points="97.53,73.87 97.53,85.64 95.34,85.64 95.34,80.59 89.26,80.59 89.26,85.64 87.08,85.64 87.08,73.87 89.26,73.87 89.26,78.73 95.34,78.73 95.34,73.87 "/>
  <polygon class="fil2" points="56.28,99.08 56.28,110.85 54.09,110.85 54.09,105.8 48.01,105.8 48.01,110.85 45.83,110.85 45.83,99.08 48.01,99.08 48.01,103.94 54.09,103.94 54.09,99.08 "/>
  <path id="1" class="fil2" d="M64.93 111.01c-1.2,0 -2.28,-0.26 -3.24,-0.78 -0.96,-0.52 -1.72,-1.24 -2.27,-2.16 -0.55,-0.93 -0.82,-1.96 -0.82,-3.11 0,-1.14 0.27,-2.17 0.82,-3.1 0.55,-0.92 1.31,-1.64 2.27,-2.16 0.96,-0.53 2.04,-0.79 3.24,-0.79 1.2,0 2.28,0.26 3.25,0.79 0.96,0.52 1.72,1.24 2.27,2.16 0.54,0.91 0.82,1.95 0.82,3.1 0,1.16 -0.28,2.2 -0.82,3.11 -0.55,0.92 -1.31,1.64 -2.27,2.16 -0.97,0.52 -2.05,0.78 -3.25,0.78zm0 -1.91c0.79,0 1.49,-0.18 2.12,-0.53 0.63,-0.35 1.12,-0.85 1.48,-1.48 0.36,-0.63 0.54,-1.34 0.54,-2.13 0,-0.78 -0.18,-1.49 -0.54,-2.12 -0.36,-0.63 -0.85,-1.13 -1.48,-1.48 -0.63,-0.35 -1.33,-0.53 -2.12,-0.53 -0.78,0 -1.49,0.18 -2.11,0.53 -0.63,0.35 -1.12,0.85 -1.48,1.48 -0.36,0.63 -0.54,1.34 -0.54,2.12 0,0.79 0.18,1.5 0.54,2.13 0.36,0.63 0.85,1.13 1.48,1.48 0.62,0.35 1.33,0.53 2.11,0.53z"/>
  <g id="_2423242819072">
   <polygon class="fil2" points="85,88.16 89.58,96.1 88.84,96.52 84.25,88.59 "/>
   <polygon class="fil2" points="74.52,88.59 69.94,96.52 69.19,96.1 73.77,88.16 "/>
  </g>
  <polygon class="fil2" points="79.82,60.8 79.82,69.97 78.95,69.97 78.95,60.8 "/>
  <polygon class="fil2" points="79.82,32.13 79.82,41.3 78.95,41.3 78.95,32.13 "/>
 </g>
</svg>
