<?xml version="1.0" encoding="UTF-8"?>
<!DOCTYPE svg PUBLIC "-//W3C//DTD SVG 1.1//EN" "http://www.w3.org/Graphics/SVG/1.1/DTD/svg11.dtd">
<!-- Creator: CorelDRAW 2018 (64 Bit) -->
<svg xmlns="http://www.w3.org/2000/svg" xml:space="preserve" width="450px" height="700px" version="1.1" style="shape-rendering:geometricPrecision; text-rendering:geometricPrecision; image-rendering:optimizeQuality; fill-rule:evenodd; clip-rule:evenodd"
viewBox="0 0 215.01 334.47"
 xmlns:xlink="http://www.w3.org/1999/xlink">
 <defs>
  <style type="text/css">
   <![CDATA[
    .fil0 {fill:none}
    .fil1 {fill:#DAEBDE}
    .fil3 {fill:black;fill-rule:nonzero}
    .fil2 {fill:black;fill-rule:nonzero}
   ]]>
  </style>
 </defs>
 <g id="Camada_x0020_1">
  <metadata id="CorelCorpID_0Corel-Layer"/>
  <rect class="fil0" width="215.01" height="334.47"/>
  <rect class="fil1" x="77.91" y="85.2" width="87.8" height="121.06" rx="7.8" ry="4.95"/>
  <polygon class="fil2" points="103.93,131.29 116.14,131.29 116.14,132.42 103.93,132.42 "/>
  <polygon class="fil3" points="38.64,58.94 38.64,74.27 35.79,74.27 35.79,67.7 27.86,67.7 27.86,74.27 25.02,74.27 25.02,58.94 27.86,58.94 27.86,65.26 35.79,65.26 35.79,58.94 "/>
  <path class="fil3" d="M46.67 73.74c1.03,0.13 1.81,0.48 2.36,1.05 0.54,0.57 0.81,1.29 0.81,2.15 0,0.65 -0.17,1.24 -0.5,1.77 -0.32,0.53 -0.82,0.95 -1.49,1.26 -0.66,0.32 -1.47,0.47 -2.42,0.47 -0.8,0 -1.57,-0.11 -2.3,-0.34 -0.74,-0.23 -1.37,-0.54 -1.89,-0.95l0.89 -1.61c0.4,0.34 0.89,0.61 1.47,0.81 0.58,0.19 1.18,0.29 1.79,0.29 0.74,0 1.31,-0.15 1.73,-0.45 0.42,-0.3 0.63,-0.71 0.63,-1.23 0,-0.53 -0.2,-0.93 -0.6,-1.22 -0.39,-0.3 -1,-0.44 -1.82,-0.44l-1.02 0 0 -1.42 2.53 -3.01 -5.06 0 0 -1.73 7.6 0 0 1.38 -2.71 3.22z"/>
  <path class="fil3" d="M138.8 115.86l0 1.75 -8.22 0 0 -1.38 4.43 -4.21c0.5,-0.48 0.84,-0.89 1.01,-1.25 0.18,-0.36 0.27,-0.71 0.27,-1.06 0,-0.52 -0.18,-0.92 -0.53,-1.19 -0.35,-0.28 -0.86,-0.42 -1.54,-0.42 -1.14,0 -2.01,0.39 -2.62,1.17l-1.45 -1.12c0.44,-0.58 1.03,-1.04 1.76,-1.36 0.74,-0.33 1.57,-0.49 2.48,-0.49 1.21,0 2.18,0.29 2.9,0.86 0.72,0.58 1.08,1.36 1.08,2.34 0,0.61 -0.12,1.18 -0.38,1.71 -0.25,0.53 -0.74,1.13 -1.46,1.81l-2.98 2.84 5.25 0z"/>
  <polygon class="fil3" points="66.32,58.94 66.32,74.27 63.98,74.27 55.52,63.88 55.52,74.27 52.7,74.27 52.7,58.94 55.04,58.94 63.49,69.32 63.49,58.94 "/>
  <path class="fil3" d="M104.64 74.48c-1.54,0 -2.94,-0.33 -4.19,-1.01 -1.25,-0.68 -2.23,-1.62 -2.93,-2.82 -0.71,-1.2 -1.07,-2.55 -1.07,-4.05 0,-1.5 0.36,-2.85 1.08,-4.05 0.71,-1.2 1.69,-2.14 2.94,-2.82 1.25,-0.67 2.65,-1.01 4.2,-1.01 1.25,0 2.4,0.22 3.43,0.65 1.04,0.44 1.92,1.08 2.63,1.91l-1.84 1.73c-1.11,-1.2 -2.47,-1.8 -4.09,-1.8 -1.05,0 -1.99,0.23 -2.83,0.69 -0.83,0.46 -1.48,1.1 -1.95,1.92 -0.46,0.82 -0.7,1.74 -0.7,2.78 0,1.04 0.24,1.96 0.7,2.78 0.47,0.82 1.12,1.46 1.95,1.92 0.84,0.46 1.78,0.69 2.83,0.69 1.62,0 2.98,-0.61 4.09,-1.82l1.84 1.75c-0.71,0.83 -1.59,1.47 -2.64,1.91 -1.04,0.44 -2.19,0.65 -3.45,0.65z"/>
  <path class="fil3" d="M142.74 74.48c-1.55,0 -2.94,-0.33 -4.19,-1.01 -1.25,-0.68 -2.23,-1.62 -2.94,-2.82 -0.71,-1.2 -1.06,-2.55 -1.06,-4.05 0,-1.5 0.36,-2.85 1.07,-4.05 0.72,-1.2 1.7,-2.14 2.95,-2.82 1.25,-0.67 2.65,-1.01 4.19,-1.01 1.26,0 2.4,0.22 3.44,0.65 1.04,0.44 1.91,1.08 2.63,1.91l-1.84 1.73c-1.11,-1.2 -2.48,-1.8 -4.1,-1.8 -1.05,0 -1.99,0.23 -2.82,0.69 -0.83,0.46 -1.48,1.1 -1.95,1.92 -0.47,0.82 -0.7,1.74 -0.7,2.78 0,1.04 0.23,1.96 0.7,2.78 0.47,0.82 1.12,1.46 1.95,1.92 0.83,0.46 1.77,0.69 2.82,0.69 1.62,0 2.99,-0.61 4.1,-1.82l1.84 1.75c-0.72,0.83 -1.6,1.47 -2.64,1.91 -1.04,0.44 -2.19,0.65 -3.45,0.65z"/>
  <path class="fil3" d="M175.41 55.94c-1.56,0 -2.97,-0.33 -4.23,-1.01 -1.25,-0.68 -2.24,-1.62 -2.96,-2.83 -0.71,-1.2 -1.07,-2.55 -1.07,-4.04 0,-1.49 0.36,-2.83 1.07,-4.04 0.72,-1.2 1.71,-2.15 2.96,-2.82 1.26,-0.68 2.67,-1.02 4.23,-1.02 1.56,0 2.97,0.34 4.22,1.02 1.26,0.67 2.25,1.61 2.96,2.81 0.72,1.2 1.07,2.55 1.07,4.05 0,1.5 -0.35,2.86 -1.07,4.05 -0.71,1.2 -1.7,2.14 -2.96,2.82 -1.25,0.68 -2.66,1.01 -4.22,1.01zm0 -2.49c1.02,0 1.94,-0.23 2.76,-0.69 0.81,-0.46 1.46,-1.1 1.92,-1.93 0.47,-0.82 0.71,-1.75 0.71,-2.77 0,-1.02 -0.24,-1.94 -0.71,-2.77 -0.46,-0.82 -1.11,-1.47 -1.92,-1.93 -0.82,-0.46 -1.74,-0.69 -2.76,-0.69 -1.02,0 -1.94,0.23 -2.76,0.69 -0.82,0.46 -1.46,1.11 -1.93,1.93 -0.47,0.83 -0.7,1.75 -0.7,2.77 0,1.02 0.23,1.95 0.7,2.77 0.47,0.83 1.11,1.47 1.93,1.93 0.82,0.46 1.74,0.69 2.76,0.69z"/>
  <path class="fil3" d="M175.41 93.02c-1.56,0 -2.97,-0.33 -4.23,-1.01 -1.25,-0.68 -2.24,-1.62 -2.96,-2.83 -0.71,-1.2 -1.07,-2.55 -1.07,-4.04 0,-1.49 0.36,-2.83 1.07,-4.04 0.72,-1.2 1.71,-2.15 2.96,-2.82 1.26,-0.68 2.67,-1.02 4.23,-1.02 1.56,0 2.97,0.34 4.22,1.02 1.26,0.67 2.25,1.61 2.96,2.81 0.72,1.2 1.07,2.55 1.07,4.05 0,1.5 -0.35,2.86 -1.07,4.05 -0.71,1.2 -1.7,2.14 -2.96,2.82 -1.25,0.68 -2.66,1.01 -4.22,1.01zm0 -2.49c1.02,0 1.94,-0.23 2.76,-0.69 0.81,-0.46 1.46,-1.1 1.92,-1.93 0.47,-0.82 0.71,-1.75 0.71,-2.77 0,-1.02 -0.24,-1.94 -0.71,-2.77 -0.46,-0.82 -1.11,-1.47 -1.92,-1.93 -0.82,-0.46 -1.74,-0.69 -2.76,-0.69 -1.02,0 -1.94,0.23 -2.76,0.69 -0.82,0.46 -1.46,1.11 -1.93,1.93 -0.47,0.83 -0.7,1.75 -0.7,2.77 0,1.02 0.23,1.95 0.7,2.77 0.47,0.83 1.11,1.47 1.93,1.93 0.82,0.46 1.74,0.69 2.76,0.69z"/>
  <path class="fil3" d="M104.64 111.81c-1.54,0 -2.94,-0.34 -4.19,-1.02 -1.25,-0.67 -2.23,-1.61 -2.93,-2.81 -0.71,-1.2 -1.07,-2.55 -1.07,-4.05 0,-1.51 0.36,-2.86 1.08,-4.05 0.71,-1.2 1.69,-2.14 2.94,-2.82 1.25,-0.68 2.65,-1.02 4.2,-1.02 1.25,0 2.4,0.22 3.43,0.66 1.04,0.44 1.92,1.07 2.63,1.91l-1.84 1.73c-1.11,-1.2 -2.47,-1.8 -4.09,-1.8 -1.05,0 -1.99,0.23 -2.83,0.69 -0.83,0.46 -1.48,1.1 -1.95,1.92 -0.46,0.81 -0.7,1.74 -0.7,2.78 0,1.03 0.24,1.96 0.7,2.78 0.47,0.82 1.12,1.46 1.95,1.92 0.84,0.46 1.78,0.69 2.83,0.69 1.62,0 2.98,-0.61 4.09,-1.82l1.84 1.75c-0.71,0.83 -1.59,1.47 -2.64,1.91 -1.04,0.43 -2.19,0.65 -3.45,0.65z"/>
  <polygon id="1" class="fil3" points="127.09,96.26 127.09,111.59 124.25,111.59 124.25,105.02 116.32,105.02 116.32,111.59 113.47,111.59 113.47,96.26 116.32,96.26 116.32,102.59 124.25,102.59 124.25,96.26 "/>
  <polygon class="fil3" points="111.17,21.57 111.17,36.9 108.32,36.9 108.32,30.33 100.4,30.33 100.4,36.9 97.55,36.9 97.55,21.57 100.4,21.57 100.4,27.9 108.32,27.9 108.32,21.57 "/>
  <polygon class="fil3" points="77.1,60.67 73.93,60.67 73.93,63.81 72.01,63.81 72.01,60.67 68.84,60.67 68.84,58.88 72.01,58.88 72.01,55.75 73.93,55.75 73.93,58.88 77.1,58.88 "/>
  <polygon class="fil3" points="184.78,76.84 189.7,76.84 189.7,78.71 184.78,78.71 "/>
  <polygon class="fil3" points="104.02,79.23 104.02,91.17 102.89,91.17 102.89,79.23 "/>
  <polygon class="fil3" points="78.32,66.04 90.26,66.04 90.26,67.16 78.32,67.16 "/>
  <polygon class="fil3" points="116.41,66.04 128.36,66.04 128.36,67.16 116.41,67.16 "/>
  <polygon class="fil3" points="152.07,58.07 162.41,52.1 162.97,53.07 152.63,59.04 "/>
  <polygon class="fil3" points="153.47,60.5 163.82,54.53 164.38,55.51 154.03,61.48 "/>
  <polygon class="fil3" points="154.03,74.16 164.38,80.13 163.82,81.1 153.47,75.13 "/>
  <polygon class="fil3" points="104.02,116.55 104.02,128.49 102.89,128.49 102.89,116.55 "/>
  <polygon class="fil3" points="104.02,41.87 104.02,53.81 102.89,53.81 102.89,41.87 "/>
  <polygon class="fil3" points="104.02,116.55 104.02,128.49 102.89,128.49 102.89,116.55 "/>
  <polygon class="fil3" points="120.17,190.83 128.29,176.75 127.64,175.63 118.87,190.82 "/>
  <polygon class="fil3" points="104.5,190.53 96.38,176.46 97.03,175.33 105.8,190.53 "/>
  <polygon class="fil2" points="120.16,131.29 103.91,131.29 103.27,132.42 120.81,132.42 "/>
  <polygon class="fil2" points="120.16,158.69 103.91,158.69 103.27,157.56 120.81,157.56 "/>
  <path class="fil2" d="M102.73 193.12c-3.13,-5.41 -6.24,-10.82 -9.37,-16.23l9.53 -16.5 19.06 0 9.53 16.51 -9.53 16.5c-6.35,-0.01 -12.71,0 -19.06,0l-0.16 -0.28zm-3.63 -8.53l4.44 7.69 17.76 0 8.88 -15.39 -8.88 -15.38 -17.76 0 -8.88 15.39 4.44 7.69z"/>
  <polygon class="fil3" points="141.67,137.33 141.67,152.66 139.33,152.66 130.87,142.28 130.87,152.66 128.05,152.66 128.05,137.33 130.39,137.33 138.85,147.71 138.85,137.33 "/>
  <polygon class="fil3" points="157.42,137.33 157.42,152.66 154.57,152.66 154.57,146.09 146.64,146.09 146.64,152.66 143.8,152.66 143.8,137.33 146.64,137.33 146.64,143.66 154.57,143.66 154.57,137.33 "/>
  <polygon class="fil2" points="102.89,161.5 102.89,128.49 104.02,128.49 104.02,161.5 "/>
  <polygon class="fil2" points="121.3,161.5 103.93,161.5 103.93,160.37 121.3,160.37 "/>
  <path class="fil2" d="M121.95 128.48l4.58 7.94 0 2.25 -5.88 -10.19 1.3 0zm4.58 25.05l-4.62 7.97 -1.3 0 5.92 -10.21 0 2.24z"/>
  <polygon class="fil2" points="103.93,128.48 121.3,128.48 121.3,129.61 103.93,129.61 "/>
 </g>
</svg>
