<?xml version="1.0" encoding="UTF-8"?>
<!DOCTYPE svg PUBLIC "-//W3C//DTD SVG 1.1//EN" "http://www.w3.org/Graphics/SVG/1.1/DTD/svg11.dtd">
<!-- Creator: CorelDRAW 2018 (64 Bit) -->
<svg xmlns="http://www.w3.org/2000/svg" xml:space="preserve" width="450px" height="476px" version="1.1" style="shape-rendering:geometricPrecision; text-rendering:geometricPrecision; image-rendering:optimizeQuality; fill-rule:evenodd; clip-rule:evenodd"
viewBox="0 0 450 476.17"
 xmlns:xlink="http://www.w3.org/1999/xlink">
 <defs>
  <style type="text/css">
   <![CDATA[
    .fil0 {fill:none}
    .fil1 {fill:#DAEBDE}
    .fil3 {fill:black;fill-rule:nonzero}
    .fil2 {fill:black;fill-rule:nonzero}
   ]]>
  </style>
 </defs>
 <g id="Camada_x0020_1">
  <metadata id="CorelCorpID_0Corel-Layer"/>
  <rect class="fil0" width="450" height="476.17"/>
  <rect class="fil1" x="163.05" y="178.32" width="183.75" height="253.36" rx="16.33" ry="10.37"/>
  <polygon class="fil2" points="217.52,274.77 243.06,274.77 243.06,277.14 217.52,277.14 "/>
  <polygon class="fil3" points="80.86,123.35 80.86,155.43 74.9,155.43 74.9,141.68 58.31,141.68 58.31,155.43 52.35,155.43 52.35,123.35 58.31,123.35 58.31,136.59 74.9,136.59 74.9,123.35 "/>
  <path class="fil3" d="M97.67 154.33c2.16,0.26 3.8,0.99 4.94,2.19 1.13,1.2 1.7,2.7 1.7,4.5 0,1.36 -0.35,2.59 -1.04,3.7 -0.69,1.12 -1.73,2 -3.11,2.66 -1.39,0.65 -3.09,0.98 -5.09,0.98 -1.66,0 -3.27,-0.24 -4.81,-0.72 -1.55,-0.48 -2.87,-1.14 -3.95,-1.98l1.86 -3.37c0.85,0.71 1.87,1.27 3.09,1.68 1.21,0.42 2.46,0.62 3.75,0.62 1.53,0 2.73,-0.32 3.61,-0.95 0.88,-0.63 1.32,-1.49 1.32,-2.58 0,-1.09 -0.42,-1.94 -1.25,-2.55 -0.83,-0.61 -2.11,-0.92 -3.82,-0.92l-2.13 0 0 -2.96 5.3 -6.3 -10.6 0 0 -3.64 15.9 0 0 2.9 -5.67 6.74z"/>
  <path class="fil3" d="M290.5 242.48l0 3.67 -17.2 0 0 -2.9 9.26 -8.8c1.05,-1 1.75,-1.87 2.12,-2.62 0.37,-0.74 0.55,-1.48 0.55,-2.22 0,-1.08 -0.36,-1.92 -1.1,-2.5 -0.73,-0.57 -1.81,-0.86 -3.23,-0.86 -2.38,0 -4.2,0.81 -5.47,2.43l-3.03 -2.33c0.91,-1.22 2.14,-2.17 3.68,-2.85 1.55,-0.68 3.27,-1.02 5.19,-1.02 2.53,0 4.55,0.6 6.06,1.8 1.51,1.2 2.27,2.83 2.27,4.9 0,1.27 -0.27,2.46 -0.8,3.57 -0.54,1.11 -1.56,2.38 -3.07,3.8l-6.23 5.93 11 0z"/>
  <polygon class="fil3" points="138.8,123.35 138.8,155.43 133.9,155.43 116.2,133.7 116.2,155.43 110.29,155.43 110.29,123.35 115.2,123.35 132.89,145.07 132.89,123.35 "/>
  <path class="fil3" d="M219.01 155.89c-3.24,0 -6.16,-0.71 -8.78,-2.13 -2.61,-1.42 -4.66,-3.39 -6.14,-5.89 -1.48,-2.51 -2.22,-5.33 -2.22,-8.48 0,-3.15 0.75,-5.98 2.24,-8.48 1.5,-2.51 3.56,-4.47 6.17,-5.89 2.61,-1.42 5.54,-2.13 8.78,-2.13 2.62,0 5.02,0.46 7.19,1.37 2.17,0.92 4,2.25 5.5,3.99l-3.85 3.62c-2.32,-2.51 -5.18,-3.76 -8.57,-3.76 -2.2,0 -4.17,0.48 -5.91,1.45 -1.74,0.96 -3.1,2.3 -4.08,4.01 -0.98,1.71 -1.47,3.65 -1.47,5.82 0,2.17 0.49,4.11 1.47,5.82 0.98,1.71 2.34,3.05 4.08,4.01 1.74,0.96 3.71,1.44 5.91,1.44 3.39,0 6.25,-1.26 8.57,-3.8l3.85 3.67c-1.5,1.74 -3.34,3.07 -5.52,3.98 -2.19,0.92 -4.59,1.38 -7.22,1.38z"/>
  <path class="fil3" d="M298.74 155.89c-3.24,0 -6.16,-0.71 -8.77,-2.13 -2.62,-1.42 -4.67,-3.39 -6.15,-5.89 -1.48,-2.51 -2.22,-5.33 -2.22,-8.48 0,-3.15 0.75,-5.98 2.25,-8.48 1.49,-2.51 3.55,-4.47 6.16,-5.89 2.61,-1.42 5.54,-2.13 8.78,-2.13 2.63,0 5.02,0.46 7.19,1.37 2.17,0.92 4.01,2.25 5.5,3.99l-3.85 3.62c-2.32,-2.51 -5.18,-3.76 -8.57,-3.76 -2.2,0 -4.17,0.48 -5.91,1.45 -1.74,0.96 -3.1,2.3 -4.08,4.01 -0.98,1.71 -1.47,3.65 -1.47,5.82 0,2.17 0.49,4.11 1.47,5.82 0.98,1.71 2.34,3.05 4.08,4.01 1.74,0.96 3.71,1.44 5.91,1.44 3.39,0 6.25,-1.26 8.57,-3.8l3.85 3.67c-1.49,1.74 -3.33,3.07 -5.52,3.98 -2.18,0.92 -4.59,1.38 -7.22,1.38z"/>
  <path class="fil3" d="M367.11 117.09c-3.27,0 -6.22,-0.71 -8.85,-2.13 -2.62,-1.43 -4.69,-3.4 -6.18,-5.92 -1.5,-2.52 -2.25,-5.34 -2.25,-8.45 0,-3.12 0.75,-5.94 2.25,-8.46 1.49,-2.52 3.56,-4.49 6.18,-5.91 2.63,-1.42 5.58,-2.13 8.85,-2.13 3.27,0 6.22,0.71 8.85,2.13 2.62,1.42 4.69,3.38 6.18,5.89 1.5,2.5 2.25,5.33 2.25,8.48 0,3.14 -0.75,5.97 -2.25,8.48 -1.49,2.5 -3.56,4.46 -6.18,5.89 -2.63,1.42 -5.58,2.13 -8.85,2.13zm0 -5.23c2.14,0 4.06,-0.48 5.77,-1.44 1.72,-0.96 3.06,-2.31 4.04,-4.04 0.98,-1.72 1.47,-3.65 1.47,-5.79 0,-2.14 -0.49,-4.08 -1.47,-5.8 -0.98,-1.73 -2.32,-3.07 -4.04,-4.04 -1.71,-0.96 -3.63,-1.44 -5.77,-1.44 -2.14,0 -4.06,0.48 -5.78,1.44 -1.71,0.97 -3.05,2.31 -4.03,4.04 -0.98,1.72 -1.47,3.66 -1.47,5.8 0,2.14 0.49,4.07 1.47,5.79 0.98,1.73 2.32,3.08 4.03,4.04 1.72,0.96 3.64,1.44 5.78,1.44z"/>
  <path class="fil3" d="M367.11 194.69c-3.27,0 -6.22,-0.71 -8.85,-2.13 -2.62,-1.42 -4.69,-3.39 -6.18,-5.91 -1.5,-2.52 -2.25,-5.34 -2.25,-8.46 0,-3.12 0.75,-5.93 2.25,-8.46 1.49,-2.52 3.56,-4.49 6.18,-5.91 2.63,-1.42 5.58,-2.13 8.85,-2.13 3.27,0 6.22,0.71 8.85,2.13 2.62,1.42 4.69,3.39 6.18,5.89 1.5,2.51 2.25,5.33 2.25,8.48 0,3.15 -0.75,5.97 -2.25,8.48 -1.49,2.5 -3.56,4.47 -6.18,5.89 -2.63,1.42 -5.58,2.13 -8.85,2.13zm0 -5.22c2.14,0 4.06,-0.49 5.77,-1.45 1.72,-0.96 3.06,-2.3 4.04,-4.03 0.98,-1.73 1.47,-3.66 1.47,-5.8 0,-2.14 -0.49,-4.07 -1.47,-5.8 -0.98,-1.72 -2.32,-3.07 -4.04,-4.03 -1.71,-0.96 -3.63,-1.44 -5.77,-1.44 -2.14,0 -4.06,0.48 -5.78,1.44 -1.71,0.96 -3.05,2.31 -4.03,4.03 -0.98,1.73 -1.47,3.66 -1.47,5.8 0,2.14 0.49,4.07 1.47,5.8 0.98,1.73 2.32,3.07 4.03,4.03 1.72,0.96 3.64,1.45 5.78,1.45z"/>
  <path class="fil3" d="M219.01 234.01c-3.24,0 -6.16,-0.71 -8.78,-2.13 -2.61,-1.42 -4.66,-3.39 -6.14,-5.89 -1.48,-2.51 -2.22,-5.33 -2.22,-8.48 0,-3.15 0.75,-5.97 2.24,-8.48 1.5,-2.5 3.56,-4.47 6.17,-5.89 2.61,-1.42 5.54,-2.13 8.78,-2.13 2.62,0 5.02,0.46 7.19,1.38 2.17,0.91 4,2.24 5.5,3.98l-3.85 3.62c-2.32,-2.5 -5.18,-3.75 -8.57,-3.75 -2.2,0 -4.17,0.48 -5.91,1.44 -1.74,0.96 -3.1,2.3 -4.08,4.01 -0.98,1.71 -1.47,3.65 -1.47,5.82 0,2.17 0.49,4.11 1.47,5.82 0.98,1.71 2.34,3.05 4.08,4.01 1.74,0.96 3.71,1.45 5.91,1.45 3.39,0 6.25,-1.27 8.57,-3.81l3.85 3.67c-1.5,1.74 -3.34,3.07 -5.52,3.99 -2.19,0.91 -4.59,1.37 -7.22,1.37z"/>
  <polygon id="1" class="fil3" points="265.99,201.47 265.99,233.55 260.03,233.55 260.03,219.8 243.44,219.8 243.44,233.55 237.48,233.55 237.48,201.47 243.44,201.47 243.44,214.71 260.03,214.71 260.03,201.47 "/>
  <polygon class="fil3" points="232.67,45.14 232.67,77.22 226.71,77.22 226.71,63.47 210.12,63.47 210.12,77.22 204.16,77.22 204.16,45.14 210.12,45.14 210.12,58.38 226.71,58.38 226.71,45.14 "/>
  <polygon class="fil3" points="161.36,126.98 154.72,126.98 154.72,133.55 150.71,133.55 150.71,126.98 144.07,126.98 144.07,123.23 150.71,123.23 150.71,116.67 154.72,116.67 154.72,123.23 161.36,123.23 "/>
  <polygon class="fil3" points="386.72,160.82 397.03,160.82 397.03,164.72 386.72,164.72 "/>
  <polygon class="fil3" points="217.69,165.81 217.69,190.82 215.33,190.82 215.33,165.81 "/>
  <polygon class="fil3" points="163.91,138.21 188.91,138.21 188.91,140.57 163.91,140.57 "/>
  <polygon class="fil3" points="243.64,138.21 268.64,138.21 268.64,140.57 243.64,140.57 "/>
  <polygon class="fil3" points="318.26,121.53 339.91,109.03 341.08,111.07 319.43,123.57 "/>
  <polygon class="fil3" points="321.2,126.63 342.85,114.13 344.02,116.17 322.37,128.67 "/>
  <polygon class="fil3" points="322.37,155.2 344.02,167.7 342.85,169.74 321.2,157.24 "/>
  <polygon class="fil3" points="217.69,243.92 217.69,268.93 215.33,268.93 215.33,243.92 "/>
  <polygon class="fil3" points="217.69,87.62 217.69,112.63 215.33,112.63 215.33,87.62 "/>
  <polygon class="fil3" points="217.69,243.92 217.69,268.93 215.33,268.93 215.33,243.92 "/>
  <polygon class="fil3" points="251.5,399.38 268.5,369.92 267.13,367.57 248.78,399.37 "/>
  <polygon class="fil3" points="218.71,398.76 201.71,369.3 203.08,366.96 221.44,398.75 "/>
  <polygon class="fil2" points="251.49,274.77 217.48,274.78 216.13,277.14 252.84,277.14 "/>
  <polygon class="fil2" points="251.49,332.12 217.48,332.12 216.13,329.76 252.84,329.76 "/>
  <path class="fil2" d="M215 404.19c-6.54,-11.33 -13.06,-22.66 -19.61,-33.97l19.94 -34.54 39.9 0 19.95 34.55 -19.95 34.54c-13.29,-0.02 -26.59,-0.01 -39.89,0l-0.34 -0.58zm-7.6 -17.87l9.3 16.1 37.16 0 18.6 -32.2 -18.59 -32.19 -37.17 0 -18.59 32.2 9.29 16.09z"/>
  <polygon class="fil3" points="296.5,287.42 296.5,319.5 291.6,319.5 273.91,297.78 273.91,319.5 267.99,319.5 267.99,287.42 272.9,287.42 290.59,309.14 290.59,287.42 "/>
  <polygon class="fil3" points="329.46,287.42 329.46,319.5 323.5,319.5 323.5,305.75 306.91,305.75 306.91,319.5 300.95,319.5 300.95,287.42 306.91,287.42 306.91,300.66 323.5,300.66 323.5,287.42 "/>
  <polygon class="fil2" points="215.33,337.99 215.33,268.93 217.69,268.93 217.69,337.99 "/>
  <polygon class="fil2" points="253.87,338 217.52,338 217.52,335.64 253.87,335.64 "/>
  <path class="fil2" d="M255.22 268.9l9.6 16.62 0 4.7 -12.32 -21.32 2.72 0zm9.6 52.42l-9.67 16.68 -2.72 0 12.39 -21.37 0 4.69z"/>
  <polygon class="fil2" points="217.52,268.9 253.87,268.9 253.87,271.26 217.52,271.26 "/>
 </g>
</svg>
