<?xml version="1.0" encoding="UTF-8"?>
<!DOCTYPE svg PUBLIC "-//W3C//DTD SVG 1.1//EN" "http://www.w3.org/Graphics/SVG/1.1/DTD/svg11.dtd">
<!-- Creator: CorelDRAW 2018 (64 Bit) -->
<svg xmlns="http://www.w3.org/2000/svg" xml:space="preserve" width="450px" height="700px" version="1.1" style="shape-rendering:geometricPrecision; text-rendering:geometricPrecision; image-rendering:optimizeQuality; fill-rule:evenodd; clip-rule:evenodd"
viewBox="0 0 4844.32 7535.61"
 xmlns:xlink="http://www.w3.org/1999/xlink">
 <defs>
  <style type="text/css">
   <![CDATA[
    .fil0 {fill:none}
    .fil1 {fill:#F6ECD8}
    .fil2 {fill:black;fill-rule:nonzero}
    .fil3 {fill:black;fill-rule:nonzero}
   ]]>
  </style>
 </defs>
 <g id="Camada_x0020_1">
  <metadata id="CorelCorpID_0Corel-Layer"/>
  <rect class="fil0" y="-0.01" width="4844.32" height="7535.61"/>
  <rect class="fil1" x="1676.16" y="1919.59" width="1816.72" height="2783.71" rx="161.48" ry="113.9"/>
  <polygon class="fil2" points="870.5,1327.84 870.5,1673.22 806.36,1673.22 806.36,1525.2 627.75,1525.2 627.75,1673.22 563.61,1673.22 563.61,1327.84 627.75,1327.84 627.75,1470.43 806.36,1470.43 806.36,1327.84 "/>
  <path class="fil2" d="M1051.46 1661.33c23.2,2.88 40.9,10.76 53.11,23.68 12.19,12.92 18.29,29.06 18.29,48.44 0,14.6 -3.71,27.87 -11.12,39.84 -7.41,11.96 -18.6,21.47 -33.56,28.53 -14.94,7.05 -33.18,10.58 -54.71,10.58 -17.94,0 -35.23,-2.57 -51.85,-7.72 -16.63,-5.14 -30.81,-12.26 -42.53,-21.35l20.1 -36.24c9.09,7.66 20.16,13.7 33.19,18.12 13.04,4.43 26.5,6.64 40.37,6.64 16.5,0 29.48,-3.41 38.93,-10.22 9.45,-6.82 14.18,-16.09 14.18,-27.81 0,-11.72 -4.49,-20.88 -13.45,-27.45 -8.98,-6.59 -22.68,-9.87 -41.1,-9.87l-22.96 0 0 -31.94 57.05 -67.82 -114.1 0 0 -39.11 171.16 0 0 31.22 -61 72.48z"/>
  <path class="fil2" d="M3127.25 2610.35l0 39.46 -185.15 0 0 -31.21 99.75 -94.74c11.25,-10.77 18.84,-20.15 22.8,-28.16 3.94,-8.02 5.91,-15.97 5.91,-23.87 0,-11.72 -3.94,-20.7 -11.84,-26.91 -7.89,-6.22 -19.49,-9.34 -34.81,-9.34 -25.6,0 -45.22,8.74 -58.85,26.21l-32.65 -25.12c9.81,-13.16 23.03,-23.39 39.65,-30.69 16.63,-7.29 35.23,-10.94 55.8,-10.94 27.28,0 49.04,6.46 65.31,19.37 16.27,12.92 24.39,30.51 24.39,52.76 0,13.63 -2.86,26.43 -8.6,38.4 -5.75,11.95 -16.75,25.59 -33.01,40.9l-67.11 63.88 118.41 0z"/>
  <polygon class="fil2" points="1494.2,1327.84 1494.2,1673.22 1441.41,1673.22 1250.95,1439.35 1250.95,1673.22 1187.3,1673.22 1187.3,1327.84 1240.09,1327.84 1430.55,1561.71 1430.55,1327.84 "/>
  <path class="fil2" d="M2357.68 1678.15c-34.86,0 -66.36,-7.64 -94.48,-22.93 -28.13,-15.3 -50.17,-36.44 -66.12,-63.41 -15.96,-26.97 -23.94,-57.4 -23.94,-91.28 0,-33.88 8.06,-64.31 24.18,-91.28 16.13,-26.98 38.24,-48.11 66.36,-63.41 28.13,-15.29 59.62,-22.94 94.5,-22.94 28.29,0 54.1,4.94 77.46,14.8 23.35,9.87 43.09,24.18 59.21,42.93l-41.45 38.98c-25,-26.98 -55.76,-40.46 -92.26,-40.46 -23.69,0 -44.91,5.18 -63.65,15.54 -18.75,10.36 -33.39,24.76 -43.92,43.18 -10.52,18.41 -15.79,39.3 -15.79,62.66 0,23.36 5.27,44.25 15.79,62.66 10.53,18.42 25.17,32.81 43.92,43.18 18.74,10.36 39.96,15.53 63.65,15.53 36.5,0 67.26,-13.64 92.26,-40.95l41.45 39.48c-16.12,18.74 -35.93,33.06 -59.46,42.92 -23.52,9.87 -49.42,14.8 -77.71,14.8z"/>
  <path class="fil2" d="M3216 1678.15c-34.86,0 -66.36,-7.64 -94.48,-22.93 -28.13,-15.3 -50.17,-36.44 -66.12,-63.41 -15.95,-26.97 -23.94,-57.4 -23.94,-91.28 0,-33.88 8.06,-64.31 24.18,-91.28 16.13,-26.98 38.24,-48.11 66.36,-63.41 28.13,-15.29 59.62,-22.94 94.5,-22.94 28.29,0 54.1,4.94 77.46,14.8 23.35,9.87 43.09,24.18 59.21,42.93l-41.45 38.98c-25,-26.98 -55.76,-40.46 -92.26,-40.46 -23.69,0 -44.91,5.18 -63.65,15.54 -18.75,10.36 -33.39,24.76 -43.92,43.18 -10.52,18.41 -15.79,39.3 -15.79,62.66 0,23.36 5.27,44.25 15.79,62.66 10.53,18.42 25.17,32.81 43.92,43.18 18.74,10.36 39.96,15.53 63.65,15.53 36.5,0 67.26,-13.64 92.26,-40.95l41.45 39.48c-16.12,18.74 -35.93,33.06 -59.46,42.92 -23.52,9.87 -49.42,14.8 -77.71,14.8z"/>
  <path class="fil2" d="M3951.98 1260.45c-35.19,0 -66.93,-7.64 -95.22,-22.94 -28.29,-15.29 -50.49,-36.51 -66.61,-63.65 -16.12,-27.14 -24.18,-57.48 -24.18,-91.03 0,-33.56 8.06,-63.9 24.18,-91.04 16.12,-27.14 38.32,-48.36 66.61,-63.65 28.29,-15.3 60.03,-22.94 95.22,-22.94 35.2,0 66.95,7.64 95.24,22.94 28.29,15.29 50.49,36.43 66.61,63.41 16.11,26.96 24.17,57.39 24.17,91.28 0,33.88 -8.06,64.31 -24.17,91.27 -16.12,26.97 -38.32,48.12 -66.61,63.41 -28.29,15.3 -60.04,22.94 -95.24,22.94zm0 -56.25c23.03,0 43.75,-5.17 62.18,-15.54 18.42,-10.36 32.89,-24.83 43.42,-43.42 10.53,-18.59 15.79,-39.39 15.79,-62.41 0,-23.03 -5.26,-43.83 -15.79,-62.42 -10.53,-18.59 -25,-33.06 -43.42,-43.42 -18.43,-10.36 -39.15,-15.54 -62.18,-15.54 -23.02,0 -43.74,5.18 -62.16,15.54 -18.42,10.36 -32.89,24.83 -43.42,43.42 -10.53,18.59 -15.79,39.39 -15.79,62.42 0,23.02 5.26,43.82 15.79,62.41 10.53,18.59 25,33.06 43.42,43.42 18.42,10.37 39.14,15.54 62.16,15.54z"/>
  <path class="fil2" d="M3951.98 2095.87c-35.19,0 -66.93,-7.64 -95.22,-22.94 -28.29,-15.29 -50.49,-36.51 -66.61,-63.65 -16.12,-27.14 -24.18,-57.48 -24.18,-91.03 0,-33.56 8.06,-63.89 24.18,-91.04 16.12,-27.13 38.32,-48.35 66.61,-63.65 28.29,-15.3 60.03,-22.94 95.22,-22.94 35.2,0 66.95,7.64 95.24,22.94 28.29,15.3 50.49,36.43 66.61,63.41 16.11,26.97 24.17,57.39 24.17,91.28 0,33.88 -8.06,64.31 -24.17,91.28 -16.12,26.96 -38.32,48.11 -66.61,63.4 -28.29,15.3 -60.04,22.94 -95.24,22.94zm0 -56.25c23.03,0 43.75,-5.17 62.18,-15.54 18.42,-10.36 32.89,-24.83 43.42,-43.42 10.53,-18.59 15.79,-39.39 15.79,-62.41 0,-23.03 -5.26,-43.83 -15.79,-62.42 -10.53,-18.59 -25,-33.06 -43.42,-43.42 -18.43,-10.36 -39.15,-15.54 -62.18,-15.54 -23.02,0 -43.74,5.18 -62.16,15.54 -18.42,10.36 -32.89,24.83 -43.42,43.42 -10.53,18.59 -15.79,39.39 -15.79,62.42 0,23.02 5.26,43.82 15.79,62.41 10.53,18.59 25,33.06 43.42,43.42 18.42,10.37 39.14,15.54 62.16,15.54z"/>
  <path class="fil2" d="M2357.68 2519.16c-34.86,0 -66.36,-7.64 -94.48,-22.94 -28.13,-15.29 -50.17,-36.44 -66.12,-63.41 -15.96,-26.97 -23.94,-57.39 -23.94,-91.28 0,-33.88 8.06,-64.31 24.18,-91.28 16.13,-26.98 38.24,-48.11 66.36,-63.4 28.13,-15.3 59.62,-22.94 94.5,-22.94 28.29,0 54.1,4.93 77.46,14.8 23.35,9.87 43.09,24.17 59.21,42.92l-41.45 38.99c-25,-26.98 -55.76,-40.46 -92.26,-40.46 -23.69,0 -44.91,5.17 -63.65,15.54 -18.75,10.36 -33.39,24.75 -43.92,43.18 -10.52,18.41 -15.79,39.3 -15.79,62.65 0,23.36 5.27,44.25 15.79,62.66 10.53,18.43 25.17,32.82 43.92,43.18 18.74,10.36 39.96,15.54 63.65,15.54 36.5,0 67.26,-13.64 92.26,-40.96l41.45 39.48c-16.12,18.74 -35.93,33.06 -59.46,42.93 -23.52,9.86 -49.42,14.8 -77.71,14.8z"/>
  <polygon id="1" class="fil2" points="2863.42,2168.84 2863.42,2514.22 2799.28,2514.22 2799.28,2366.2 2620.67,2366.2 2620.67,2514.22 2556.53,2514.22 2556.53,2168.84 2620.67,2168.84 2620.67,2311.44 2799.28,2311.44 2799.28,2168.84 "/>
  <polygon class="fil2" points="2504.71,485.89 2504.71,831.28 2440.57,831.28 2440.57,683.25 2261.96,683.25 2261.96,831.28 2197.82,831.28 2197.82,485.89 2261.96,485.89 2261.96,628.49 2440.57,628.49 2440.57,485.89 "/>
  <polygon class="fil2" points="1737.02,1367 1665.57,1367 1665.57,1437.64 1622.38,1437.64 1622.38,1367 1550.92,1367 1550.92,1326.63 1622.38,1326.63 1622.38,1255.99 1665.57,1255.99 1665.57,1326.63 1737.02,1326.63 "/>
  <polygon class="fil2" points="4163.06,1731.29 4274.08,1731.29 4274.08,1773.27 4163.06,1773.27 "/>
  <polygon class="fil2" points="2343.5,1785.02 2343.5,2054.17 2318.07,2054.17 2318.07,1785.02 "/>
  <polygon class="fil2" points="1764.49,1487.82 2033.63,1487.82 2033.63,1513.24 1764.49,1513.24 "/>
  <polygon class="fil2" points="2622.81,1487.82 2891.95,1487.82 2891.95,1513.24 2622.81,1513.24 "/>
  <polygon class="fil2" points="3426.1,1308.33 3659.19,1173.77 3671.8,1195.72 3438.71,1330.28 "/>
  <polygon class="fil2" points="3457.76,1363.17 3690.85,1228.61 3703.46,1250.56 3470.37,1385.12 "/>
  <polygon class="fil2" points="3470.37,1670.79 3703.46,1805.35 3690.85,1827.3 3457.76,1692.74 "/>
  <polygon class="fil2" points="2343.5,2625.87 2343.5,2895.02 2318.07,2895.02 2318.07,2625.87 "/>
  <polygon class="fil2" points="2343.5,943.28 2343.5,1212.43 2318.07,1212.43 2318.07,943.28 "/>
  <polygon class="fil2" points="2343.5,2625.87 2343.5,2895.02 2318.07,2895.02 2318.07,2625.87 "/>
  <polygon class="fil2" points="2638.88,3125.31 2638.87,3491.47 2613.44,3505.97 2613.44,3110.79 "/>
  <polygon class="fil2" points="2329.92,2954.6 2012.82,3137.69 2012.97,3166.97 2355.21,2969.37 "/>
  <polygon class="fil2" points="2332.73,3669.24 2015.63,3486.15 2015.78,3456.87 2358.02,3654.47 "/>
  <polygon class="fil2" points="2343.5,3724.66 2343.5,3993.8 2318.07,3993.8 2318.07,3724.66 "/>
  <path class="fil2" d="M2359.16 4425.24c-35.2,0 -66.93,-7.64 -95.22,-22.94 -28.29,-15.3 -50.49,-36.52 -66.62,-63.65 -16.12,-27.15 -24.18,-57.48 -24.18,-91.04 0,-33.55 8.06,-63.89 24.18,-91.04 16.13,-27.13 38.33,-48.35 66.62,-63.65 28.29,-15.29 60.02,-22.93 95.22,-22.93 35.19,0 66.94,7.64 95.23,22.93 28.29,15.3 50.49,36.43 66.61,63.41 16.11,26.97 24.17,57.4 24.17,91.28 0,33.89 -8.06,64.31 -24.17,91.28 -16.12,26.97 -38.32,48.11 -66.61,63.41 -28.29,15.3 -60.04,22.94 -95.23,22.94zm0 -56.25c23.02,0 43.75,-5.18 62.17,-15.54 18.42,-10.36 32.89,-24.83 43.42,-43.42 10.53,-18.59 15.79,-39.39 15.79,-62.42 0,-23.02 -5.26,-43.83 -15.79,-62.41 -10.53,-18.59 -25,-33.06 -43.42,-43.43 -18.42,-10.36 -39.15,-15.53 -62.17,-15.53 -23.03,0 -43.74,5.17 -62.17,15.53 -18.42,10.37 -32.89,24.84 -43.42,43.43 -10.52,18.58 -15.79,39.39 -15.79,62.41 0,23.03 5.27,43.83 15.79,62.42 10.53,18.59 25,33.06 43.42,43.42 18.43,10.36 39.14,15.54 62.17,15.54z"/>
  <polygon class="fil2" points="2903.35,4074.92 2903.35,4420.3 2839.2,4420.3 2839.2,4272.28 2660.6,4272.28 2660.6,4420.3 2596.45,4420.3 2596.45,4074.92 2660.6,4074.92 2660.6,4217.52 2839.2,4217.52 2839.2,4074.92 "/>
  <path class="fil3" d="M2324.48 2884.05c-121.88,70.36 -243.66,140.9 -365.65,211.09l0 429.39 371.96 214.73 371.96 -214.73 0 -429.39c-124.09,-71.4 -248.06,-143.04 -371.96,-214.74l-6.31 3.65zm-167.01 125.64l173.32 -100.06 346.53 200.06 0 400.29 -346.53 200.07 -346.53 -200.07 0 -400.29 173.21 -100z"/>
 </g>
</svg>
